{"glyphs":{"0":{"ha":724,"x_min":54,"x_max":671,"o":"m 375 713 q 594 621 517 713 q 671 361 671 529 q 588 85 671 183 q 351 -12 504 -12 q 132 79 210 -12 q 54 336 54 171 q 138 614 54 515 q 375 713 222 713 m 361 542 q 238 495 278 542 q 197 349 197 449 q 238 199 197 247 q 363 150 278 150 q 528 340 528 150 q 361 542 528 542 z "},"1":{"ha":500,"x_min":11,"x_max":363,"o":"m 351 289 l 361 0 l 174 0 l 182 269 l 182 500 l 25 458 l 11 468 l 11 617 l 336 710 l 363 690 l 351 289 z "},"2":{"ha":654,"x_min":54,"x_max":621,"o":"m 336 710 q 493 665 432 710 q 554 540 554 619 q 399 263 554 429 l 294 147 l 297 142 l 485 142 l 610 153 l 621 140 l 599 -8 l 431 0 l 115 0 l 64 -3 l 54 4 l 54 117 l 242 301 q 340 414 308 369 q 372 492 372 458 q 351 536 372 519 q 293 553 331 553 q 110 471 201 553 l 89 471 l 58 614 q 336 710 201 710 z "},"3":{"ha":599,"x_min":32,"x_max":544,"o":"m 283 713 q 458 660 392 713 q 525 522 525 607 q 493 412 525 465 q 393 321 461 358 l 393 314 q 544 129 544 271 q 501 -7 544 53 q 378 -99 457 -67 q 196 -132 299 -132 q 46 -118 122 -132 l 36 25 l 49 38 q 203 8 131 8 q 324 39 281 8 q 368 125 368 69 q 242 224 368 219 l 144 224 l 135 236 l 140 363 l 201 365 q 296 399 254 367 q 338 482 338 432 q 313 540 338 519 q 243 561 288 561 q 79 496 171 561 l 60 496 l 32 631 q 283 713 151 713 z "},"4":{"ha":699,"x_min":29,"x_max":661,"o":"m 538 76 l 544 -111 l 535 -124 l 390 -133 l 381 -122 l 385 78 l 163 78 l 42 74 l 29 90 l 29 207 l 369 703 l 539 703 l 535 219 l 650 219 l 661 203 l 653 74 l 538 76 m 388 219 l 388 493 l 375 493 l 188 219 l 388 219 z "},"5":{"ha":600,"x_min":26,"x_max":556,"o":"m 536 556 l 522 542 l 396 556 l 235 556 l 231 400 l 317 382 q 491 303 438 357 q 544 161 544 250 q 500 6 544 74 q 374 -98 456 -61 q 189 -135 293 -135 q 36 -118 117 -135 l 26 26 l 39 39 q 204 7 131 7 q 325 42 281 7 q 369 136 369 78 q 338 210 369 183 q 233 250 306 238 l 100 274 l 88 289 l 94 685 l 117 706 l 197 703 l 400 703 l 544 710 l 556 699 l 536 556 z "},"6":{"ha":671,"x_min":46,"x_max":625,"o":"m 394 501 q 563 433 501 501 q 625 260 625 364 q 591 122 625 185 q 490 23 557 60 q 331 -14 424 -14 q 119 69 193 -14 q 46 299 46 151 q 151 606 46 468 q 450 828 257 743 l 460 828 l 586 746 l 586 728 q 359 614 440 672 q 243 475 278 556 l 254 463 q 394 501 317 501 m 339 107 q 427 141 396 107 q 458 238 458 175 q 340 372 458 372 q 214 331 279 372 l 214 301 q 242 155 214 203 q 339 107 271 107 z "},"7":{"ha":600,"x_min":21,"x_max":564,"o":"m 496 703 l 564 706 l 564 569 l 335 69 l 257 -139 l 108 -97 l 97 -68 l 388 549 l 158 549 l 32 536 l 21 551 l 33 707 l 189 703 l 496 703 z "},"8":{"ha":685,"x_min":57,"x_max":621,"o":"m 358 826 q 534 772 471 826 q 597 624 597 718 q 475 433 597 513 l 475 425 q 582 348 543 392 q 621 231 621 304 q 540 53 621 118 q 324 -12 458 -12 q 127 46 197 -12 q 57 197 57 104 q 210 396 57 326 l 210 404 q 83 597 83 474 q 158 765 83 703 q 358 826 233 826 m 346 699 q 264 673 293 699 q 235 603 235 647 q 267 530 235 557 q 358 479 299 503 q 428 532 403 504 q 453 603 453 560 q 424 673 453 647 q 346 699 396 699 m 326 347 q 241 299 271 326 q 211 221 211 271 q 245 141 211 171 q 339 111 279 111 q 434 141 400 111 q 468 217 468 171 q 433 291 468 264 q 326 347 399 318 z "},"9":{"ha":671,"x_min":46,"x_max":625,"o":"m 276 201 q 108 270 169 201 q 46 443 46 339 q 80 581 46 518 q 181 680 114 643 q 340 717 247 717 q 551 634 478 717 q 625 404 625 551 q 519 97 625 235 q 221 -125 414 -40 l 211 -125 l 85 -43 l 85 -25 q 312 89 231 31 q 428 228 393 147 l 417 240 q 276 201 354 201 m 332 596 q 244 562 275 596 q 213 465 213 528 q 331 331 213 331 q 457 372 392 331 l 457 401 q 428 548 457 500 q 332 596 400 596 z "}," ":{"ha":210,"x_min":0,"x_max":0,"o":""},"!":{"ha":367,"x_min":71,"x_max":290,"o":"m 240 329 l 135 315 l 117 333 l 106 894 l 122 915 l 268 925 l 290 903 l 240 329 m 172 188 q 240 163 215 188 q 264 93 264 138 q 238 18 264 46 q 165 -10 211 -10 q 95 15 119 -10 q 71 86 71 40 q 98 160 71 132 q 172 188 125 188 z "},"\"":{"ha":492,"x_min":76,"x_max":438,"o":"m 181 574 l 94 561 l 79 574 l 76 882 l 219 892 l 229 879 l 181 574 m 389 574 l 301 561 l 288 574 l 285 882 l 426 892 l 438 879 l 389 574 z "},"#":{"ha":763,"x_min":28,"x_max":735,"o":"m 553 350 l 678 350 l 689 338 l 679 243 l 532 243 l 493 44 l 386 44 l 376 57 l 413 243 l 274 243 l 235 44 l 128 44 l 119 57 l 156 243 l 39 243 l 28 256 l 36 350 l 176 350 l 204 494 l 85 494 l 74 507 l 82 601 l 225 601 l 263 796 l 365 796 l 378 782 l 343 601 l 483 601 l 521 796 l 624 796 l 636 782 l 601 601 l 722 601 l 735 589 l 725 494 l 581 494 l 553 350 m 322 494 l 294 350 l 433 350 l 463 494 l 322 494 z "},"$":{"ha":625,"x_min":53,"x_max":558,"o":"m 558 215 q 506 74 558 136 q 351 -7 453 11 l 339 -189 l 233 -189 l 218 -174 l 228 -10 q 53 31 138 -3 l 76 194 l 94 207 q 198 140 140 165 q 300 115 256 115 q 363 135 339 115 q 386 183 386 154 q 358 233 386 214 q 271 275 331 251 q 169 324 210 300 q 101 388 129 347 q 72 488 72 428 q 126 627 72 568 q 276 704 181 686 l 288 896 l 392 896 l 410 879 l 399 708 q 543 676 475 701 l 517 521 l 490 514 q 328 581 400 581 q 267 562 289 581 q 244 517 244 543 q 272 469 244 488 q 360 425 300 450 q 462 376 422 399 q 530 315 501 354 q 558 215 558 275 z "},"%":{"ha":1186,"x_min":43,"x_max":1142,"o":"m 936 881 l 289 -128 l 210 -81 l 201 -61 l 850 953 l 925 907 l 936 881 m 271 903 q 424 840 371 903 q 476 660 476 776 q 419 465 476 532 q 251 397 361 397 q 97 460 150 397 q 43 640 43 522 q 102 835 43 768 q 271 903 161 903 m 258 781 q 183 749 207 781 q 160 650 160 718 q 260 510 160 510 q 361 643 361 510 q 336 747 361 714 q 258 781 311 781 m 936 497 q 1089 434 1036 497 q 1142 254 1142 371 q 1084 59 1142 126 q 917 -8 1026 -8 q 762 54 815 -8 q 708 235 708 117 q 767 430 708 363 q 936 497 826 497 m 924 375 q 849 344 872 375 q 825 244 825 313 q 925 104 825 104 q 1026 238 1026 104 q 1001 342 1026 308 q 924 375 976 375 z "},"&":{"ha":989,"x_min":43,"x_max":965,"o":"m 961 379 l 946 265 l 767 265 q 644 56 735 129 q 408 -17 553 -17 q 140 82 238 -17 q 43 354 43 181 q 81 542 43 461 q 189 668 119 624 q 349 713 258 713 q 478 676 433 713 q 524 581 524 640 l 522 565 q 878 988 772 754 l 893 988 q 965 871 947 938 q 808 654 925 775 q 533 424 692 533 q 217 246 375 314 q 421 115 265 115 q 591 185 531 115 q 654 381 651 256 l 667 394 l 950 394 l 961 379 m 343 594 q 238 535 276 594 q 197 375 199 476 q 358 456 288 413 q 410 539 410 489 q 343 594 410 594 z "},"'":{"ha":285,"x_min":76,"x_max":229,"o":"m 181 574 l 94 561 l 79 574 l 76 882 l 219 892 l 229 879 l 181 574 z "},"(":{"ha":410,"x_min":97,"x_max":404,"o":"m 404 846 q 283 654 321 771 q 246 353 246 538 q 283 66 246 178 q 404 -122 321 -46 l 404 -137 l 338 -193 l 322 -193 q 151 22 204 -107 q 97 351 99 150 q 151 697 99 564 q 322 918 204 831 l 338 918 l 404 861 l 404 846 z "},")":{"ha":410,"x_min":4,"x_max":311,"o":"m 4 -122 q 125 69 88 -47 q 163 371 163 186 q 125 658 163 546 q 4 846 88 769 l 4 861 l 71 917 l 86 917 q 257 702 204 831 q 311 372 310 574 q 257 26 310 160 q 86 -194 204 -107 l 71 -194 l 4 -137 l 4 -122 z "},"*":{"ha":532,"x_min":39,"x_max":513,"o":"m 296 849 l 238 842 l 228 851 l 222 1013 q 331 1031 274 1031 l 336 1019 l 296 849 m 200 775 l 186 769 l 39 814 q 53 922 38 863 l 67 926 l 208 833 l 200 775 m 463 890 q 513 792 492 844 l 504 783 l 338 769 l 311 822 l 317 835 l 463 890 m 425 615 q 349 538 401 581 l 336 540 l 274 706 l 315 744 l 331 743 l 425 615 m 249 701 l 165 568 q 65 617 132 578 l 67 629 l 194 743 l 247 717 l 249 701 z "},"+":{"ha":667,"x_min":32,"x_max":635,"o":"m 397 424 l 622 424 l 635 411 l 625 299 l 397 299 l 397 69 l 285 61 l 271 72 l 271 299 l 44 299 l 32 311 l 42 424 l 271 424 l 271 654 l 383 664 l 397 650 l 397 424 z "},",":{"ha":318,"x_min":32,"x_max":261,"o":"m 199 183 q 261 64 261 133 q 93 -176 261 -57 l 33 -124 l 32 -110 q 108 26 108 -46 q 64 110 108 74 l 65 125 q 199 183 129 164 z "},"-":{"ha":422,"x_min":38,"x_max":383,"o":"m 383 314 l 53 263 l 38 278 l 38 393 l 368 443 l 383 428 l 383 314 z "},".":{"ha":318,"x_min":61,"x_max":254,"o":"m 163 188 q 230 163 206 188 q 254 93 254 138 q 228 18 254 46 q 156 -10 201 -10 q 85 15 110 -10 q 61 86 61 40 q 88 160 61 132 q 163 188 115 188 z "},"/":{"ha":394,"x_min":-1,"x_max":425,"o":"m 138 -160 l 10 -160 l -1 -144 l 285 944 l 410 944 l 425 928 l 138 -160 z "},":":{"ha":318,"x_min":56,"x_max":249,"o":"m 157 188 q 224 163 200 188 q 249 93 249 138 q 222 18 249 46 q 150 -10 196 -10 q 80 15 104 -10 q 56 86 56 40 q 83 160 56 132 q 157 188 110 188 m 157 551 q 224 526 200 551 q 249 457 249 501 q 222 382 249 410 q 150 354 196 354 q 80 379 104 354 q 56 450 56 404 q 83 524 56 496 q 157 551 110 551 z "},";":{"ha":318,"x_min":26,"x_max":256,"o":"m 193 183 q 256 64 256 133 q 88 -176 256 -57 l 28 -124 l 26 -110 q 103 26 103 -46 q 58 110 103 74 l 60 125 q 193 183 124 164 m 157 551 q 224 526 200 551 q 249 457 249 501 q 222 382 249 410 q 150 354 196 354 q 80 379 104 354 q 56 450 56 404 q 83 524 56 496 q 157 551 110 551 z "},"<":{"ha":667,"x_min":47,"x_max":618,"o":"m 47 436 l 47 286 l 568 88 l 585 100 l 611 203 l 178 361 l 178 371 l 610 535 l 618 549 l 578 654 l 60 453 l 47 436 z "},"=":{"ha":667,"x_min":32,"x_max":635,"o":"m 625 428 l 44 428 l 32 440 l 42 553 l 622 553 l 635 540 l 625 428 m 625 168 l 44 168 l 32 181 l 42 293 l 622 293 l 635 281 l 625 168 z "},">":{"ha":667,"x_min":49,"x_max":619,"o":"m 619 436 l 619 286 l 99 88 l 82 100 l 56 203 l 489 361 l 489 371 l 57 535 l 49 549 l 89 654 l 607 453 l 619 436 z "},"?":{"ha":472,"x_min":65,"x_max":497,"o":"m 117 929 q 399 861 300 918 q 497 704 497 804 q 371 513 497 585 l 271 453 l 268 446 l 276 328 l 147 311 l 135 324 l 121 490 l 128 504 l 253 568 q 331 675 331 610 q 271 760 331 731 q 78 799 211 790 l 65 817 l 99 919 l 117 929 m 219 188 q 287 163 263 188 q 311 93 311 138 q 285 18 311 46 q 213 -10 258 -10 q 142 15 167 -10 q 118 86 118 40 q 145 160 118 132 q 219 188 172 188 z "},"@":{"ha":1172,"x_min":39,"x_max":1143,"o":"m 1143 433 q 1007 115 1143 228 q 619 -1 871 3 l 650 217 l 633 217 q 468 -10 550 75 l 443 -10 q 335 73 368 18 q 303 213 303 128 q 339 393 303 304 q 448 549 375 482 q 626 642 521 617 l 635 642 l 742 614 l 842 644 l 856 636 l 790 156 l 789 126 q 960 223 899 143 q 1022 426 1022 303 q 975 608 1022 531 q 840 727 928 686 q 635 765 751 768 q 388 699 494 763 q 222 526 281 636 q 163 279 163 417 q 228 28 163 133 q 413 -132 293 -76 q 690 -187 532 -187 l 697 -206 l 647 -292 q 327 -226 464 -290 q 115 -37 190 -161 q 39 257 39 86 q 116 577 39 435 q 333 801 193 719 q 657 882 474 882 q 913 827 803 882 q 1083 671 1022 772 q 1143 433 1143 569 m 489 153 q 534 188 504 153 q 603 294 564 224 q 685 461 643 364 l 688 482 l 688 488 l 599 515 q 492 447 531 515 q 453 271 453 379 q 489 153 453 153 z "},"A":{"ha":833,"x_min":11,"x_max":811,"o":"m 619 0 l 597 117 l 574 200 l 399 204 l 244 200 l 221 126 l 197 0 l 11 0 l 314 894 l 538 894 l 811 0 l 619 0 m 428 718 l 415 718 l 293 346 l 413 343 l 533 346 l 428 718 z "},"B":{"ha":804,"x_min":108,"x_max":760,"o":"m 581 464 q 760 253 760 422 q 353 -7 760 -7 q 108 0 233 -7 l 118 267 l 108 894 l 426 896 q 640 838 564 896 q 717 672 717 781 q 681 546 717 600 q 581 464 646 492 m 524 647 q 488 734 524 708 q 361 760 451 760 l 293 760 l 289 517 l 419 513 q 524 647 524 540 m 385 128 q 520 163 472 128 q 568 263 568 197 q 440 385 568 361 l 286 382 l 285 283 l 289 133 q 385 128 338 128 z "},"C":{"ha":718,"x_min":39,"x_max":701,"o":"m 467 906 q 701 851 597 906 l 668 694 l 653 688 q 458 750 565 750 q 238 460 238 750 q 464 146 238 146 q 669 206 575 146 l 686 196 l 671 36 q 449 -12 565 -12 q 144 104 249 -12 q 39 439 39 221 q 151 783 39 661 q 467 906 263 906 z "},"D":{"ha":910,"x_min":108,"x_max":871,"o":"m 468 900 q 767 792 663 900 q 871 481 871 683 q 754 117 871 243 q 421 -10 638 -10 q 108 0 268 -10 l 118 267 l 108 894 l 468 900 m 454 136 q 675 438 675 136 q 622 676 675 601 q 454 750 568 750 q 297 743 381 750 l 289 283 l 293 146 q 454 136 390 136 z "},"E":{"ha":707,"x_min":108,"x_max":686,"o":"m 682 140 l 669 0 l 108 0 l 118 267 l 108 894 l 675 894 l 686 879 l 672 739 l 458 746 l 297 744 l 293 529 l 447 526 l 593 531 l 604 517 l 592 376 l 433 381 l 290 379 l 289 283 l 293 149 l 450 147 l 671 156 l 682 140 z "},"F":{"ha":633,"x_min":108,"x_max":651,"o":"m 293 503 l 418 501 l 569 506 l 582 492 l 568 351 l 403 356 l 290 354 l 289 283 l 297 0 l 108 0 l 118 267 l 108 894 l 640 894 l 651 879 l 638 738 l 425 746 l 297 744 l 293 503 z "},"G":{"ha":831,"x_min":39,"x_max":768,"o":"m 506 906 q 768 851 651 906 l 728 682 l 710 679 q 588 735 642 718 q 474 753 535 753 q 293 679 350 753 q 236 438 236 606 q 260 261 236 326 q 336 166 285 196 q 472 136 388 136 q 590 156 525 136 l 593 232 l 590 369 l 764 383 l 760 261 l 764 43 q 457 -12 597 -12 q 144 101 249 -12 q 39 428 39 215 q 160 783 39 660 q 506 906 282 906 z "},"H":{"ha":967,"x_min":108,"x_max":858,"o":"m 856 0 l 665 0 l 676 267 l 675 371 l 472 374 l 290 369 l 289 283 l 297 0 l 108 0 l 118 267 l 108 894 l 300 894 l 293 526 l 485 522 l 672 526 l 665 894 l 858 894 l 847 283 l 856 0 z "},"I":{"ha":410,"x_min":108,"x_max":300,"o":"m 297 0 l 108 0 l 118 267 l 108 894 l 300 894 l 289 283 l 297 0 z "},"J":{"ha":465,"x_min":8,"x_max":358,"o":"m 351 168 q 325 33 351 89 q 240 -65 299 -22 q 78 -147 181 -108 l 21 -47 l 21 -31 q 142 58 107 14 q 178 171 178 101 l 178 276 l 169 756 l 22 751 l 8 765 l 18 894 l 358 894 l 349 294 l 351 168 z "},"K":{"ha":811,"x_min":107,"x_max":824,"o":"m 481 472 q 824 39 640 250 l 821 18 q 636 -14 735 -3 l 614 -3 q 292 460 414 268 l 289 283 l 296 0 l 107 0 l 118 267 l 107 894 l 299 894 l 292 479 l 542 808 l 593 894 l 797 894 l 481 472 z "},"L":{"ha":601,"x_min":103,"x_max":599,"o":"m 586 0 l 103 0 l 113 267 l 103 894 l 294 894 l 283 283 l 288 156 l 588 156 l 599 140 l 586 0 z "},"M":{"ha":1107,"x_min":61,"x_max":1040,"o":"m 874 0 l 860 271 l 828 615 l 814 615 l 614 94 l 468 94 l 286 615 l 274 615 l 239 289 l 219 0 l 61 0 l 151 894 l 368 894 l 404 763 l 546 339 l 558 339 l 707 763 l 747 894 l 960 894 l 1040 0 l 874 0 z "},"N":{"ha":965,"x_min":108,"x_max":858,"o":"m 854 0 l 651 0 l 288 606 l 275 606 l 274 308 l 281 0 l 108 0 l 118 264 l 110 894 l 313 894 l 676 289 l 689 289 l 683 886 l 858 897 l 847 276 l 854 0 z "},"O":{"ha":893,"x_min":39,"x_max":856,"o":"m 463 907 q 753 792 651 907 q 856 467 856 678 q 745 111 856 236 q 432 -14 635 -14 q 141 103 243 -14 q 39 436 39 221 q 149 785 39 663 q 463 907 260 907 m 446 754 q 285 685 335 754 q 235 461 235 617 q 284 208 235 283 q 447 132 333 132 q 608 201 558 132 q 658 429 658 271 q 609 680 658 606 q 446 754 560 754 z "},"P":{"ha":768,"x_min":108,"x_max":743,"o":"m 451 896 q 667 825 592 896 q 743 622 743 754 q 699 445 743 521 q 572 328 654 369 q 378 286 489 286 l 289 286 l 289 283 l 297 0 l 108 0 l 118 267 l 108 894 l 451 896 m 419 424 q 547 606 547 460 q 509 717 547 681 q 392 757 471 754 l 297 751 l 292 429 l 419 424 z "},"Q":{"ha":901,"x_min":39,"x_max":1022,"o":"m 1022 -153 q 935 -274 985 -226 l 919 -279 q 463 -14 661 -183 l 433 -14 q 142 103 244 -14 q 39 436 39 221 q 149 785 39 663 q 463 907 260 907 q 753 792 651 907 q 856 464 856 678 q 797 190 856 303 q 631 26 739 78 q 1015 -133 813 -85 l 1022 -153 m 235 457 q 285 207 235 282 q 449 132 335 132 q 608 203 557 132 q 658 432 658 274 q 608 680 658 606 q 444 754 558 754 q 284 685 333 754 q 235 457 235 615 z "},"R":{"ha":819,"x_min":108,"x_max":793,"o":"m 578 356 q 793 44 686 183 l 790 24 q 606 -14 700 -8 l 586 1 q 424 301 486 174 l 289 301 l 289 283 l 297 0 l 108 0 l 118 267 l 108 894 l 451 896 q 668 827 592 896 q 744 631 744 758 q 701 473 744 544 q 578 356 657 401 m 429 442 q 547 613 547 482 q 509 719 547 683 q 392 757 471 754 l 297 751 l 292 447 l 429 442 z "},"S":{"ha":692,"x_min":43,"x_max":644,"o":"m 396 906 q 622 860 510 906 l 592 697 l 564 686 q 466 739 517 719 q 374 758 415 758 q 285 728 318 758 q 251 660 251 699 q 288 592 251 619 q 404 526 325 564 q 528 462 481 492 q 610 383 576 432 q 644 264 644 335 q 603 124 644 188 q 485 24 561 61 q 308 -12 408 -12 q 43 44 176 -12 l 69 219 l 90 231 q 212 156 146 182 q 329 131 278 131 q 424 160 390 131 q 458 232 458 190 q 422 304 458 276 q 303 371 385 332 q 181 433 228 404 q 100 511 133 463 q 67 629 67 560 q 108 770 67 707 q 225 869 150 833 q 396 906 300 906 z "},"T":{"ha":699,"x_min":21,"x_max":679,"o":"m 668 739 l 500 747 l 444 747 l 438 283 l 446 0 l 257 0 l 267 267 l 260 747 l 204 747 l 33 739 l 21 754 l 33 894 l 668 894 l 679 879 l 668 739 z "},"U":{"ha":886,"x_min":86,"x_max":804,"o":"m 796 322 q 703 75 797 163 q 432 -12 608 -12 q 174 72 263 -12 q 89 315 85 157 l 90 444 l 86 894 l 275 894 l 265 340 q 443 142 264 142 q 622 331 624 142 l 613 894 l 804 894 l 797 440 l 796 322 z "},"V":{"ha":815,"x_min":14,"x_max":814,"o":"m 288 0 l 14 894 l 206 894 l 228 776 l 397 175 l 410 175 l 604 767 l 628 894 l 814 894 l 513 0 l 288 0 z "},"W":{"ha":1254,"x_min":26,"x_max":1247,"o":"m 756 0 l 622 428 l 610 428 l 475 0 l 276 0 l 26 894 l 211 894 l 225 785 l 383 194 l 396 194 l 547 676 l 483 894 l 675 894 l 696 765 l 857 194 l 869 194 l 1050 772 l 1072 894 l 1247 894 l 953 0 l 756 0 z "},"X":{"ha":847,"x_min":18,"x_max":831,"o":"m 831 0 l 604 0 l 563 89 l 414 321 l 253 79 l 213 0 l 18 0 l 304 442 l 21 894 l 247 894 l 289 804 l 429 586 l 574 811 l 613 894 l 811 894 l 542 468 l 831 0 z "},"Y":{"ha":775,"x_min":6,"x_max":779,"o":"m 471 0 l 282 0 l 293 249 l 290 301 l 6 894 l 206 894 l 225 832 l 376 492 l 390 492 l 558 826 l 585 894 l 779 894 l 465 304 l 463 249 l 471 0 z "},"Z":{"ha":760,"x_min":42,"x_max":722,"o":"m 264 143 l 564 143 l 715 156 l 722 144 l 707 -4 l 506 0 l 149 0 l 42 -6 l 42 129 l 490 750 l 207 750 l 56 738 l 47 747 l 61 896 l 622 894 l 708 896 l 708 758 l 264 143 z "},"[":{"ha":410,"x_min":111,"x_max":410,"o":"m 410 807 l 261 788 l 261 -64 l 410 -82 l 410 -167 l 401 -175 l 111 -161 l 121 363 l 111 886 l 401 900 l 410 890 l 410 807 z "},"\\":{"ha":394,"x_min":-15,"x_max":411,"o":"m 272 -160 l 400 -160 l 411 -144 l 125 944 l 0 944 l -15 928 l 272 -160 z "},"]":{"ha":410,"x_min":-1,"x_max":297,"o":"m -1 -83 l 147 -64 l 147 788 l -1 806 l -1 890 l 7 899 l 297 885 l 288 361 l 297 -162 l 7 -176 l -1 -167 l -1 -83 z "},"^":{"ha":613,"x_min":24,"x_max":590,"o":"m 578 188 l 474 163 l 317 560 l 307 560 l 143 163 l 128 156 l 24 194 l 224 679 l 242 689 l 390 689 l 590 203 l 578 188 z "},"_":{"ha":617,"x_min":-21,"x_max":638,"o":"m 628 -240 l -8 -240 l -21 -226 l -11 -124 l 626 -124 l 638 -136 l 628 -240 z "},"`":{"ha":540,"x_min":101,"x_max":438,"o":"m 101 904 l 104 886 q 150 858 135 867 q 375 722 324 751 l 393 724 l 438 793 q 186 1006 276 922 l 168 1004 l 101 904 z "},"a":{"ha":735,"x_min":24,"x_max":700,"o":"m 524 0 l 504 101 l 492 142 l 350 143 l 225 140 l 215 111 l 194 0 l 24 0 l 269 701 l 476 701 l 700 0 l 524 0 m 375 542 l 364 542 l 271 274 l 361 272 l 454 274 l 375 542 z "},"b":{"ha":718,"x_min":101,"x_max":664,"o":"m 519 363 q 664 200 664 328 q 317 -6 664 -6 q 101 0 240 -6 l 108 208 l 101 701 l 383 703 q 566 657 500 703 q 632 525 632 611 q 519 363 632 411 m 450 501 q 420 561 450 544 q 315 578 390 578 l 272 578 l 269 413 l 371 410 q 431 440 411 419 q 450 501 450 461 m 347 117 q 485 208 485 117 q 461 261 485 242 q 389 292 438 281 l 268 289 l 267 225 l 269 121 q 347 117 313 117 z "},"c":{"ha":631,"x_min":46,"x_max":603,"o":"m 408 711 q 603 675 513 711 l 572 528 l 558 521 q 397 568 489 568 q 271 519 313 568 q 229 364 229 469 q 406 135 229 135 q 572 176 493 135 l 588 168 l 574 22 q 394 -11 492 -11 q 135 81 224 -11 q 46 344 46 172 q 140 615 46 519 q 408 711 235 711 z "},"d":{"ha":792,"x_min":101,"x_max":746,"o":"m 410 707 q 659 622 572 707 q 746 378 746 536 q 648 92 746 192 q 367 -8 550 -8 q 101 0 260 -8 l 108 208 l 101 701 l 410 707 m 399 125 q 565 336 565 125 q 525 513 565 460 q 396 567 485 567 q 276 561 331 567 l 269 225 l 272 135 q 399 125 346 125 z "},"e":{"ha":633,"x_min":101,"x_max":599,"o":"m 594 131 l 582 0 l 101 0 l 108 208 l 101 701 l 589 701 l 599 688 l 588 558 l 407 565 l 276 565 l 274 424 l 399 422 l 519 426 l 529 414 l 518 282 l 386 286 l 271 286 l 269 225 l 272 136 l 394 136 l 583 142 l 594 131 z "},"f":{"ha":563,"x_min":94,"x_max":563,"o":"m 267 400 l 364 399 l 493 403 l 504 390 l 492 260 l 350 264 l 264 263 l 263 225 l 269 0 l 94 0 l 103 208 l 94 701 l 553 701 l 563 688 l 550 558 l 371 565 l 269 565 l 267 400 z "},"g":{"ha":722,"x_min":46,"x_max":660,"o":"m 440 711 q 660 672 557 711 l 614 514 l 599 514 q 502 557 544 544 q 408 569 460 569 q 270 519 313 569 q 228 343 228 468 q 246 213 228 260 q 303 145 264 165 q 411 125 343 125 q 499 142 453 125 l 499 186 l 497 297 l 657 308 l 654 215 l 654 35 q 399 -11 518 -11 q 135 78 224 -11 q 46 335 46 168 q 149 615 46 518 q 440 711 251 711 z "},"h":{"ha":839,"x_min":101,"x_max":740,"o":"m 738 0 l 563 0 l 569 208 l 568 276 l 411 278 l 271 275 l 269 225 l 276 0 l 101 0 l 108 208 l 101 701 l 279 701 l 274 424 l 422 421 l 567 422 l 563 701 l 740 701 l 731 225 l 738 0 z "},"i":{"ha":388,"x_min":101,"x_max":279,"o":"m 276 0 l 101 0 l 108 208 l 101 701 l 279 701 l 269 225 l 276 0 z "},"j":{"ha":438,"x_min":25,"x_max":329,"o":"m 324 133 q 276 -18 324 39 q 104 -122 228 -75 l 49 -35 l 49 -19 q 135 45 110 11 q 161 132 161 79 l 161 213 l 156 572 l 36 569 l 25 581 l 36 701 l 329 701 l 322 231 l 324 133 z "},"k":{"ha":722,"x_min":101,"x_max":719,"o":"m 444 371 q 719 38 571 201 l 715 17 q 543 -12 621 -7 l 521 -3 q 272 349 383 179 l 269 225 l 276 0 l 101 0 l 108 208 l 101 701 l 279 701 l 272 385 l 464 631 l 507 701 l 699 703 l 444 371 z "},"l":{"ha":539,"x_min":96,"x_max":519,"o":"m 508 0 l 96 0 l 104 208 l 96 701 l 274 701 l 264 225 l 267 143 l 510 143 l 519 131 l 508 0 z "},"m":{"ha":953,"x_min":61,"x_max":889,"o":"m 732 0 l 722 213 l 699 442 l 688 442 l 533 69 l 399 69 l 261 442 l 250 442 l 225 229 l 210 0 l 61 0 l 136 701 l 342 701 l 369 599 l 471 301 l 482 301 l 592 597 l 622 701 l 824 701 l 889 0 l 732 0 z "},"n":{"ha":839,"x_min":101,"x_max":739,"o":"m 736 0 l 546 0 l 265 435 l 256 435 l 254 246 l 260 0 l 101 0 l 108 206 l 101 701 l 290 701 l 571 267 l 583 267 l 578 694 l 739 706 l 729 222 l 736 0 z "},"o":{"ha":778,"x_min":46,"x_max":733,"o":"m 403 713 q 647 622 561 713 q 733 367 733 532 q 640 87 733 186 q 375 -12 546 -12 q 132 80 218 -12 q 46 340 46 172 q 139 615 46 518 q 403 713 232 713 m 388 571 q 265 524 301 571 q 228 364 228 478 q 244 220 228 272 q 295 146 260 168 q 390 124 331 124 q 515 169 478 124 q 551 331 551 215 q 535 474 551 422 q 483 549 518 526 q 388 571 449 571 z "},"p":{"ha":686,"x_min":101,"x_max":651,"o":"m 404 703 q 588 647 524 703 q 651 485 651 590 q 567 289 651 363 q 340 215 482 215 l 269 215 l 276 0 l 101 0 l 108 208 l 101 701 l 404 703 m 372 340 q 444 386 421 356 q 468 468 468 417 q 438 547 468 521 q 346 576 408 574 l 276 574 l 272 344 l 372 340 z "},"q":{"ha":786,"x_min":46,"x_max":861,"o":"m 861 -108 q 782 -215 818 -182 l 768 -218 q 413 -11 574 -142 q 375 -12 400 -12 q 132 80 218 -12 q 46 340 46 172 q 139 615 46 518 q 403 713 232 713 q 647 622 561 713 q 733 367 733 532 q 688 155 733 242 q 557 26 643 68 q 854 -92 694 -51 l 861 -108 m 228 364 q 244 220 228 272 q 295 146 260 168 q 390 124 331 124 q 515 169 478 124 q 551 331 551 215 q 535 474 551 422 q 483 549 518 526 q 388 571 449 571 q 265 524 301 571 q 228 364 228 478 z "},"r":{"ha":728,"x_min":101,"x_max":693,"o":"m 519 276 q 693 40 613 142 l 692 21 q 522 -11 604 -6 l 497 6 q 376 226 419 142 l 269 226 l 269 225 l 276 0 l 101 0 l 108 208 l 101 701 l 404 703 q 587 648 522 703 q 651 492 651 593 q 617 370 651 426 q 519 276 582 314 m 376 354 q 468 474 468 385 q 439 548 468 524 q 347 575 410 572 l 276 572 l 272 360 l 376 354 z "},"s":{"ha":618,"x_min":53,"x_max":558,"o":"m 350 711 q 542 676 450 711 l 515 521 l 490 514 q 328 581 400 581 q 267 562 289 581 q 244 517 244 543 q 272 469 244 488 q 360 425 300 450 q 462 376 422 399 q 530 315 501 354 q 558 215 558 275 q 527 103 558 156 q 433 19 496 51 q 276 -12 369 -12 q 53 31 163 -12 l 76 194 l 94 207 q 197 140 140 165 q 299 115 254 115 q 362 135 338 115 q 386 183 386 154 q 358 233 386 214 q 269 275 329 251 q 167 324 207 301 q 99 388 128 347 q 71 488 71 428 q 105 601 71 550 q 202 682 139 653 q 350 711 265 711 z "},"t":{"ha":619,"x_min":32,"x_max":588,"o":"m 578 554 l 436 564 l 396 564 l 392 225 l 397 0 l 224 0 l 231 208 l 228 564 l 188 564 l 43 554 l 32 568 l 42 701 l 578 701 l 588 688 l 578 554 z "},"u":{"ha":774,"x_min":83,"x_max":693,"o":"m 686 238 q 608 53 688 118 q 379 -11 528 -11 q 158 53 235 -11 q 86 238 82 118 l 88 347 l 83 701 l 258 701 l 250 263 q 386 131 249 131 q 524 263 525 131 l 517 701 l 693 701 l 688 344 l 686 238 z "},"v":{"ha":721,"x_min":26,"x_max":703,"o":"m 249 0 l 26 701 l 203 701 l 224 600 l 351 160 l 363 160 l 511 590 l 531 701 l 703 701 l 458 0 l 249 0 z "},"w":{"ha":1075,"x_min":38,"x_max":1058,"o":"m 633 0 l 535 300 l 524 300 l 424 0 l 236 0 l 38 701 l 213 701 l 224 604 l 338 182 l 349 182 l 463 535 l 417 701 l 597 701 l 613 588 l 731 182 l 742 182 l 874 594 l 893 701 l 1058 701 l 822 0 l 633 0 z "},"x":{"ha":744,"x_min":28,"x_max":719,"o":"m 719 0 l 511 0 l 475 76 l 365 232 l 242 67 l 207 0 l 29 0 l 263 343 l 28 701 l 239 701 l 275 624 l 379 476 l 489 632 l 522 701 l 706 701 l 483 369 l 719 0 z "},"y":{"ha":690,"x_min":17,"x_max":679,"o":"m 422 0 l 247 0 l 256 190 l 254 222 l 17 701 l 201 701 l 218 650 l 335 404 l 346 404 l 476 643 l 499 701 l 679 701 l 417 229 l 415 190 l 422 0 z "},"z":{"ha":671,"x_min":50,"x_max":626,"o":"m 257 132 l 488 132 l 619 143 l 626 135 l 613 -4 l 432 0 l 144 0 l 50 -4 l 50 119 l 410 568 l 186 568 l 58 556 l 51 565 l 65 704 l 219 701 l 538 701 l 614 703 l 614 575 l 257 132 z "},"{":{"ha":410,"x_min":50,"x_max":403,"o":"m 306 913 q 394 900 344 913 l 403 886 l 388 792 q 338 799 357 799 q 263 714 263 799 q 279 615 263 685 q 294 519 294 542 q 200 376 294 421 l 200 369 q 270 312 246 349 q 294 229 294 275 q 278 131 294 197 q 263 33 263 54 q 338 -53 263 -53 q 388 -46 357 -53 l 403 -139 l 394 -153 q 306 -165 353 -165 q 165 -123 214 -165 q 117 -1 117 -81 q 133 128 117 47 q 146 219 146 190 q 50 329 146 304 l 50 417 q 146 526 146 442 q 133 619 146 557 q 117 749 117 700 q 165 870 117 828 q 306 913 214 913 z "},"|":{"ha":426,"x_min":142,"x_max":286,"o":"m 282 404 l 282 -350 l 157 -360 l 142 -343 l 143 390 l 144 1106 l 272 1115 l 286 1103 l 282 404 z "},"}":{"ha":410,"x_min":6,"x_max":358,"o":"m 103 -167 q 14 -154 64 -167 l 6 -140 l 21 -46 q 71 -53 51 -53 q 146 32 146 -53 q 129 131 146 61 q 114 226 114 204 q 208 369 114 325 l 208 376 q 138 434 163 397 q 114 517 114 471 q 131 615 114 549 q 146 713 146 692 q 71 799 146 799 q 21 792 51 799 l 6 885 l 14 899 q 103 911 56 911 q 243 869 194 911 q 292 747 292 826 q 275 618 292 699 q 263 526 263 556 q 358 417 263 442 l 358 329 q 263 219 263 304 q 275 126 263 189 q 292 -3 292 46 q 243 -124 292 -82 q 103 -167 194 -167 z "},"~":{"ha":667,"x_min":42,"x_max":626,"o":"m 208 328 q 169 311 188 328 q 108 250 150 294 l 90 250 l 42 311 l 42 328 l 156 457 l 172 464 q 315 426 203 460 q 461 390 440 390 q 494 403 476 390 q 542 447 511 417 l 561 468 l 578 468 l 626 408 l 626 392 l 513 263 l 496 256 q 346 294 456 261 q 208 328 229 328 z "}," ":{"ha":210,"x_min":0,"x_max":0,"o":""},"¡":{"ha":367,"x_min":85,"x_max":304,"o":"m 135 321 l 240 335 l 258 317 l 269 -244 l 253 -265 l 107 -275 l 85 -253 l 135 321 m 203 463 q 135 488 160 463 q 111 557 111 513 q 138 632 111 604 q 210 660 164 660 q 280 635 256 660 q 304 564 304 610 q 277 490 304 518 q 203 463 250 463 z "},"¢":{"ha":532,"x_min":40,"x_max":521,"o":"m 360 186 q 499 221 422 186 l 513 210 l 494 67 q 379 43 439 50 l 365 -172 l 246 -172 l 232 -157 l 244 50 q 94 157 147 74 q 40 369 40 240 q 105 599 40 511 q 286 707 169 688 l 299 913 l 414 913 l 433 896 l 421 707 q 521 678 478 699 l 490 531 l 475 524 q 349 563 404 563 q 250 517 285 563 q 215 386 215 471 q 253 238 215 289 q 360 186 290 186 z "},"£":{"ha":619,"x_min":25,"x_max":583,"o":"m 571 -4 l 396 0 l 32 0 l 25 10 l 33 110 q 135 249 135 135 l 133 378 l 32 378 l 25 388 l 35 476 l 133 476 l 132 574 q 204 761 131 696 q 413 826 278 826 q 572 804 489 826 l 561 672 l 550 664 q 399 708 465 708 q 292 601 292 708 l 290 476 l 468 476 l 474 468 l 467 378 l 290 378 l 289 260 q 276 183 289 213 q 236 131 264 153 l 236 125 l 436 125 l 576 135 l 583 125 l 571 -4 z "},"¤":{"ha":604,"x_min":19,"x_max":597,"o":"m 592 679 l 496 593 q 526 485 526 543 q 499 385 526 436 l 596 303 l 597 286 l 518 201 l 501 203 l 417 299 q 308 265 365 265 q 207 294 254 265 l 125 199 l 108 197 l 24 276 l 25 294 l 119 378 q 89 485 89 426 q 118 588 89 538 l 22 669 l 19 686 l 99 769 l 115 769 l 203 674 q 308 703 249 703 q 407 676 361 703 l 490 772 l 508 775 l 592 696 l 592 679 m 308 604 q 222 571 256 604 q 189 485 189 538 q 222 399 189 432 q 308 367 256 367 q 394 400 361 367 q 428 485 428 433 q 394 571 428 538 q 308 604 361 604 z "},"¥":{"ha":731,"x_min":39,"x_max":710,"o":"m 444 239 l 694 239 l 703 231 l 696 154 l 436 154 l 442 0 l 283 0 l 290 154 l 46 154 l 39 164 l 44 239 l 282 239 l 228 343 l 46 343 l 39 354 l 44 428 l 183 428 l 42 700 l 208 700 l 225 650 l 363 392 l 374 392 l 524 644 l 547 700 l 710 700 l 553 428 l 694 428 l 703 421 l 696 343 l 504 343 l 444 239 z "},"¦":{"ha":426,"x_min":142,"x_max":286,"o":"m 282 524 l 156 508 l 143 519 l 143 1106 l 272 1115 l 286 1103 l 282 524 m 282 -350 l 157 -360 l 142 -343 l 143 208 l 267 222 l 282 206 l 282 -350 z "},"§":{"ha":599,"x_min":35,"x_max":565,"o":"m 435 211 q 507 75 507 153 q 473 -31 507 18 q 379 -108 439 -79 q 244 -136 319 -136 q 140 -125 199 -136 q 35 -96 81 -114 l 58 50 l 75 61 q 171 1 121 22 q 264 -21 221 -21 q 327 -1 304 -21 q 350 43 350 18 q 323 91 350 71 q 238 140 296 111 q 137 198 175 172 q 70 264 99 224 q 42 360 42 304 q 76 473 42 419 q 171 558 111 526 q 100 693 100 615 q 134 799 100 750 q 228 876 168 847 q 361 906 288 906 q 535 874 454 906 l 513 733 l 490 726 q 336 786 400 786 q 278 767 300 786 q 256 722 256 747 q 281 677 256 696 q 368 626 307 658 q 469 570 429 596 q 537 503 508 544 q 565 408 565 463 q 531 296 565 349 q 435 211 496 243 m 197 403 q 231 338 197 365 q 336 274 265 310 q 408 364 408 308 q 376 431 408 404 q 269 496 343 457 q 197 403 197 458 z "},"¨":{"ha":540,"x_min":61,"x_max":460,"o":"m 155 884 q 216 862 194 884 q 239 798 239 839 q 214 729 239 755 q 148 704 190 704 q 84 727 106 704 q 62 791 62 749 q 86 859 62 833 q 155 884 111 884 m 374 884 q 436 862 413 884 q 458 798 458 839 q 434 729 458 755 q 368 704 410 704 q 303 727 326 704 q 281 791 281 749 q 306 859 281 833 q 374 884 331 884 z "},"©":{"ha":954,"x_min":60,"x_max":893,"o":"m 476 831 q 694 778 600 831 q 841 629 789 725 q 893 407 893 533 q 841 185 893 281 q 694 36 789 89 q 476 -17 600 -17 q 258 36 353 -17 q 112 185 164 89 q 60 407 60 281 q 112 629 60 533 q 258 778 164 725 q 476 831 353 831 m 476 767 q 292 722 372 767 q 169 595 213 676 q 125 407 125 514 q 169 219 125 300 q 292 92 213 138 q 476 47 372 47 q 660 92 581 47 q 784 219 740 138 q 828 407 828 300 q 784 595 828 514 q 660 722 740 676 q 476 767 581 767 m 507 646 q 631 622 567 646 l 608 525 l 600 519 q 503 544 554 544 q 422 515 449 544 q 396 419 396 485 q 508 278 396 278 q 608 299 560 278 l 619 293 l 610 196 q 499 176 560 176 q 325 235 383 176 q 267 407 267 294 q 329 583 267 521 q 507 646 392 646 z "},"ª":{"ha":472,"x_min":35,"x_max":449,"o":"m 244 906 q 365 872 322 906 q 407 778 407 839 l 403 671 q 399 585 399 613 q 417 554 399 554 q 439 560 432 554 l 449 551 l 435 475 q 365 451 403 451 q 313 467 331 451 q 285 518 294 482 l 279 518 q 179 450 238 468 q 74 488 113 451 q 35 586 35 524 q 136 699 35 682 l 274 721 l 275 750 q 219 806 275 806 q 86 758 168 806 l 76 763 l 61 856 q 244 906 150 906 m 199 640 q 164 599 164 633 q 210 549 164 549 q 272 582 242 549 l 274 654 l 199 640 z "},"«":{"ha":596,"x_min":25,"x_max":561,"o":"m 25 329 l 214 576 l 301 531 l 304 513 l 160 317 l 304 122 l 301 104 l 214 57 l 25 299 l 25 329 m 282 329 l 471 576 l 558 531 l 561 513 l 417 317 l 561 122 l 558 104 l 471 57 l 282 299 l 282 329 z "},"¬":{"ha":667,"x_min":31,"x_max":600,"o":"m 600 69 l 488 61 l 474 72 l 474 299 l 43 299 l 31 311 l 40 424 l 592 424 l 600 413 l 600 69 z "},"­":{"ha":422,"x_min":38,"x_max":383,"o":"m 383 314 l 53 263 l 38 278 l 38 393 l 368 443 l 383 428 l 383 314 z "},"®":{"ha":619,"x_min":51,"x_max":568,"o":"m 310 975 q 497 904 426 975 q 568 718 568 833 q 497 529 568 600 q 310 458 426 458 q 122 529 193 458 q 51 718 51 600 q 122 904 51 833 q 310 975 193 975 m 311 504 q 464 563 406 504 q 522 718 522 621 q 464 871 522 813 q 311 929 406 929 q 157 871 215 929 q 99 718 99 813 q 157 563 99 621 q 311 504 215 504 m 424 778 q 372 697 424 729 q 440 606 397 658 l 439 599 q 374 586 415 589 l 365 592 q 317 678 338 636 l 274 678 l 276 590 l 210 590 l 211 669 l 210 861 l 328 863 q 399 840 374 863 q 424 778 424 818 m 318 728 q 353 772 353 742 q 304 813 353 811 l 276 811 l 275 731 l 318 728 z "},"¯":{"ha":540,"x_min":65,"x_max":475,"o":"m 467 801 l 78 801 l 65 814 l 75 917 l 464 917 l 475 904 l 467 801 z "},"°":{"ha":407,"x_min":22,"x_max":383,"o":"m 204 907 q 331 855 279 907 q 383 726 383 803 q 331 599 383 651 q 204 547 279 547 q 75 599 128 547 q 22 726 22 651 q 75 855 22 803 q 204 907 128 907 m 203 826 q 131 798 160 826 q 103 726 103 769 q 131 656 103 685 q 203 628 160 628 q 274 656 246 628 q 303 726 303 685 q 274 798 303 769 q 203 826 246 826 z "},"±":{"ha":667,"x_min":32,"x_max":635,"o":"m 397 424 l 622 424 l 635 411 l 625 299 l 397 299 l 397 69 l 285 61 l 271 72 l 271 299 l 44 299 l 32 311 l 42 424 l 271 424 l 271 654 l 383 664 l 397 650 l 397 424 m 625 -161 l 44 -161 l 32 -149 l 42 -36 l 622 -36 l 635 -49 l 625 -161 z "},"²":{"ha":501,"x_min":46,"x_max":468,"o":"m 256 979 q 375 944 328 979 q 422 849 422 910 q 396 761 422 808 q 310 642 369 714 l 239 553 l 242 550 l 368 550 l 461 556 l 468 546 l 453 432 l 322 438 l 90 438 l 54 436 l 46 440 l 46 526 l 176 668 q 252 760 231 731 q 274 815 274 790 q 259 848 274 835 q 218 861 244 861 q 153 844 189 861 q 88 797 118 826 l 71 797 l 46 907 q 256 979 153 979 z "},"³":{"ha":446,"x_min":31,"x_max":400,"o":"m 210 981 q 337 945 289 981 q 385 851 385 910 q 300 725 385 769 l 300 719 q 400 594 400 690 q 332 475 400 521 q 153 429 264 429 q 47 440 99 429 l 38 543 l 49 553 q 156 538 103 538 q 257 599 257 538 q 188 651 257 651 l 115 651 l 108 661 l 110 757 l 153 758 q 210 778 186 760 q 235 824 235 796 q 176 867 235 867 q 68 832 133 867 l 53 832 l 31 929 q 210 981 114 981 z "},"´":{"ha":540,"x_min":103,"x_max":439,"o":"m 439 904 l 436 886 q 390 858 406 867 q 165 722 217 751 l 147 724 l 103 793 q 354 1006 264 922 l 372 1004 l 439 904 z "},"µ":{"ha":725,"x_min":79,"x_max":701,"o":"m 682 24 q 583 -10 635 -10 q 508 13 536 -10 q 464 86 481 35 l 453 86 q 304 -8 381 13 q 253 -3 274 -8 l 253 -257 l 79 -257 l 85 267 l 79 633 l 253 649 l 253 239 q 339 140 253 140 q 457 194 394 140 l 457 633 l 632 649 l 621 174 q 653 122 619 122 q 688 132 665 122 l 701 122 l 682 24 z "},"¶":{"ha":725,"x_min":35,"x_max":700,"o":"m 688 751 l 594 751 l 588 274 l 589 189 q 529 11 589 82 q 322 -118 469 -60 l 272 -35 l 272 -17 q 382 71 349 25 q 415 181 415 117 l 415 251 l 408 753 l 346 753 q 261 703 290 744 q 232 593 232 663 q 265 475 232 528 q 363 390 299 422 l 299 293 q 103 401 172 322 q 35 600 35 481 q 123 817 35 740 q 374 894 211 894 l 688 894 l 700 879 l 688 751 z "},"·":{"ha":318,"x_min":61,"x_max":254,"o":"m 163 449 q 230 424 206 449 q 254 354 254 399 q 228 279 254 307 q 156 251 201 251 q 85 276 110 251 q 61 347 61 301 q 88 421 61 393 q 163 449 115 449 z "},"¸":{"ha":540,"x_min":151,"x_max":396,"o":"m 339 -93 q 396 -175 396 -124 q 360 -250 396 -221 q 265 -279 324 -279 q 151 -240 203 -279 l 164 -162 l 172 -158 q 254 -200 214 -200 q 288 -171 288 -200 q 264 -143 288 -156 l 196 -104 l 228 36 l 317 36 l 292 -67 l 339 -93 z "},"¹":{"ha":383,"x_min":14,"x_max":279,"o":"m 272 629 l 278 438 l 128 438 l 133 613 l 133 819 l 24 794 l 14 801 l 14 917 l 258 981 l 279 965 l 272 629 z "},"º":{"ha":482,"x_min":32,"x_max":450,"o":"m 249 906 q 399 849 347 906 q 450 685 450 793 q 394 509 450 569 q 233 449 339 449 q 83 505 135 449 q 32 669 32 561 q 88 845 32 785 q 249 906 143 906 m 240 807 q 185 779 201 807 q 168 685 168 751 q 185 576 168 607 q 243 544 203 544 q 300 572 283 544 q 317 668 317 600 q 299 776 317 744 q 240 807 282 807 z "},"»":{"ha":592,"x_min":28,"x_max":563,"o":"m 563 307 l 374 60 l 286 106 l 283 124 l 428 319 l 283 514 l 286 532 l 374 579 l 563 338 l 563 307 m 307 307 l 118 60 l 31 106 l 28 124 l 172 319 l 28 514 l 31 532 l 118 579 l 307 338 l 307 307 z "},"¼":{"ha":1038,"x_min":14,"x_max":1000,"o":"m 178 -128 l 99 -81 l 90 -61 l 740 953 l 815 907 l 825 881 l 178 -128 m 24 717 l 14 724 l 14 839 l 258 903 l 279 888 l 272 551 l 278 360 l 128 360 l 133 535 l 133 742 l 24 717 m 919 119 l 926 10 l 918 0 l 803 -6 l 794 1 l 797 121 l 657 121 l 565 117 l 556 129 l 556 219 l 785 536 l 921 536 l 917 229 l 992 229 l 1000 217 l 993 117 l 919 119 m 800 229 l 799 379 l 790 379 l 683 229 l 800 229 z "},"½":{"ha":1074,"x_min":14,"x_max":1040,"o":"m 825 881 l 178 -128 l 99 -81 l 90 -61 l 740 953 l 815 907 l 825 881 m 272 551 l 278 360 l 128 360 l 133 535 l 133 742 l 24 717 l 14 724 l 14 839 l 258 903 l 279 888 l 272 551 m 828 542 q 947 507 900 542 q 994 411 994 472 q 968 324 994 371 q 882 204 942 276 l 811 115 l 814 113 l 940 113 l 1033 118 l 1040 108 l 1025 -6 l 894 0 l 663 0 l 626 -1 l 618 3 l 618 89 l 749 231 q 824 323 803 293 q 846 378 846 353 q 831 410 846 397 q 790 424 817 424 q 726 406 761 424 q 660 360 690 389 l 643 360 l 618 469 q 828 542 725 542 z "},"¾":{"ha":1090,"x_min":31,"x_max":1053,"o":"m 231 -128 l 151 -81 l 143 -61 l 793 953 l 868 907 l 878 881 l 231 -128 m 400 517 q 332 397 400 443 q 153 351 264 351 q 47 363 99 351 l 38 465 l 49 475 q 156 460 103 460 q 257 521 257 460 q 188 574 257 574 l 115 574 l 108 583 l 110 679 l 153 681 q 210 700 186 682 q 235 746 235 718 q 176 789 235 789 q 68 754 133 789 l 53 754 l 31 851 q 210 903 114 903 q 337 867 289 903 q 385 774 385 832 q 300 647 385 692 l 300 642 q 400 517 400 613 m 972 119 l 979 10 l 971 0 l 856 -6 l 847 1 l 850 121 l 710 121 l 618 117 l 608 129 l 608 219 l 838 536 l 974 536 l 969 229 l 1044 229 l 1053 217 l 1046 117 l 972 119 m 853 229 l 851 379 l 843 379 l 736 229 l 853 229 z "},"¿":{"ha":472,"x_min":-19,"x_max":413,"o":"m 361 -279 q 79 -211 178 -268 q -19 -54 -19 -154 q 107 138 -19 65 l 207 197 l 210 204 l 201 322 l 331 339 l 343 326 l 357 160 l 350 146 l 225 82 q 147 -25 147 40 q 207 -110 147 -81 q 400 -149 267 -140 l 413 -167 l 379 -269 l 361 -279 m 258 463 q 191 488 215 463 q 167 557 167 513 q 193 632 167 604 q 265 660 219 660 q 335 635 311 660 q 360 564 360 610 q 333 490 360 518 q 258 463 306 463 z "},"À":{"ha":833,"x_min":11,"x_max":811,"o":"m 550 997 q 251 1106 379 1056 l 246 1122 l 293 1232 l 310 1236 q 599 1079 431 1164 l 568 1003 l 550 997 m 619 0 l 597 117 l 574 200 l 399 204 l 244 200 l 221 126 l 197 0 l 11 0 l 313 894 l 538 894 l 811 0 l 619 0 m 428 718 l 415 718 l 293 346 l 411 343 l 533 346 l 428 718 z "},"Á":{"ha":833,"x_min":11,"x_max":811,"o":"m 619 0 l 597 117 l 574 200 l 399 204 l 244 200 l 221 126 l 197 0 l 11 0 l 314 894 l 538 894 l 811 0 l 619 0 m 428 718 l 415 718 l 293 346 l 413 343 l 533 346 l 428 718 m 625 1121 l 619 1104 q 321 996 492 1054 l 303 1001 l 272 1078 q 561 1235 440 1163 l 578 1231 l 625 1121 z "},"Â":{"ha":833,"x_min":11,"x_max":811,"o":"m 214 1085 q 400 1229 310 1149 l 438 1229 q 624 1085 524 1153 l 590 1011 l 572 1011 l 529 1036 q 419 1099 478 1063 q 310 1036 361 1063 l 267 1011 l 249 1011 l 214 1085 m 619 0 l 597 117 l 574 200 l 399 204 l 244 200 l 221 126 l 197 0 l 11 0 l 313 894 l 538 894 l 811 0 l 619 0 m 428 718 l 415 718 l 293 346 l 411 343 l 533 346 l 428 718 z "},"Ã":{"ha":833,"x_min":11,"x_max":811,"o":"m 619 0 l 597 117 l 574 200 l 399 204 l 244 200 l 221 126 l 197 0 l 11 0 l 314 894 l 538 894 l 811 0 l 619 0 m 428 718 l 415 718 l 293 346 l 413 343 l 533 346 l 428 718 m 661 1153 l 564 1029 l 546 1022 q 431 1049 508 1026 q 332 1071 347 1071 q 302 1058 317 1071 q 271 1028 288 1046 q 246 1000 254 1010 l 229 1000 l 174 1054 l 174 1069 l 272 1193 l 289 1200 q 407 1172 322 1196 q 503 1151 485 1151 q 535 1165 519 1151 q 568 1197 551 1179 q 590 1222 585 1215 l 607 1222 l 661 1168 l 661 1153 z "},"Ä":{"ha":833,"x_min":11,"x_max":811,"o":"m 296 1017 q 233 1040 256 1017 q 211 1104 211 1063 q 235 1172 211 1147 q 303 1197 260 1197 q 365 1174 343 1197 q 388 1111 388 1151 q 363 1042 388 1067 q 296 1017 339 1017 m 538 1017 q 475 1040 497 1017 q 453 1104 453 1063 q 477 1172 453 1147 q 544 1197 501 1197 q 607 1174 585 1197 q 629 1111 629 1151 q 605 1042 629 1067 q 538 1017 581 1017 m 619 0 l 597 117 l 574 200 l 399 204 l 244 200 l 221 126 l 197 0 l 11 0 l 313 894 l 538 894 l 811 0 l 619 0 m 428 718 l 415 718 l 293 346 l 411 343 l 533 346 l 428 718 z "},"Å":{"ha":833,"x_min":11,"x_max":811,"o":"m 619 0 l 597 117 l 574 200 l 399 204 l 244 200 l 221 126 l 197 0 l 11 0 l 314 894 l 538 894 l 811 0 l 619 0 m 428 718 l 415 718 l 293 346 l 413 343 l 533 346 l 428 718 m 421 1254 q 518 1221 485 1254 q 551 1128 551 1188 q 515 1027 551 1063 q 414 992 478 992 q 319 1025 353 992 q 285 1122 285 1058 q 320 1219 285 1185 q 421 1254 356 1254 m 417 1175 q 361 1124 361 1175 q 418 1068 361 1068 q 475 1121 475 1068 q 417 1175 475 1175 z "},"Æ":{"ha":1142,"x_min":-25,"x_max":1131,"o":"m 1118 0 l 578 0 l 571 117 l 547 307 l 253 229 l 204 126 l 163 0 l -25 0 l 406 894 l 1017 894 l 1029 879 l 1014 739 l 799 746 l 676 746 l 707 494 l 976 564 l 990 553 l 1006 421 l 724 354 l 749 147 l 890 147 l 1119 156 l 1131 140 l 1118 0 m 497 718 l 485 718 l 333 397 l 531 449 l 497 718 z "},"Ç":{"ha":718,"x_min":39,"x_max":701,"o":"m 464 146 q 668 206 575 146 l 686 196 l 671 36 q 476 -12 578 -6 l 463 -67 l 510 -93 q 567 -175 567 -124 q 531 -250 567 -221 q 436 -279 494 -279 q 322 -240 374 -279 l 335 -162 l 343 -158 q 425 -200 385 -200 q 458 -171 458 -200 q 435 -143 458 -156 l 367 -104 l 389 -10 q 128 123 217 8 q 39 439 39 238 q 151 783 39 661 q 465 906 263 906 q 701 851 597 906 l 667 694 l 653 688 q 458 750 565 750 q 236 460 236 750 q 464 146 236 146 z "},"È":{"ha":707,"x_min":108,"x_max":685,"o":"m 524 997 q 225 1106 353 1056 l 219 1122 l 267 1232 l 283 1236 q 572 1079 404 1164 l 542 1003 l 524 997 m 681 140 l 669 0 l 108 0 l 119 267 l 108 894 l 675 894 l 685 879 l 672 739 l 457 746 l 297 744 l 294 528 l 446 526 l 593 531 l 604 517 l 592 376 l 433 381 l 292 379 l 290 283 l 294 149 l 450 147 l 671 156 l 681 140 z "},"É":{"ha":707,"x_min":108,"x_max":686,"o":"m 682 140 l 669 0 l 108 0 l 118 267 l 108 894 l 675 894 l 686 879 l 672 739 l 458 746 l 297 744 l 293 529 l 447 526 l 593 531 l 604 517 l 592 376 l 433 381 l 290 379 l 289 283 l 293 149 l 450 147 l 671 156 l 682 140 m 599 1121 l 593 1104 q 294 996 465 1054 l 276 1001 l 246 1078 q 535 1235 414 1163 l 551 1231 l 599 1121 z "},"Ê":{"ha":707,"x_min":108,"x_max":685,"o":"m 188 1085 q 374 1229 283 1149 l 411 1229 q 597 1085 497 1153 l 564 1011 l 546 1011 l 503 1036 q 393 1099 451 1063 q 283 1036 335 1063 l 240 1011 l 222 1011 l 188 1085 m 681 140 l 669 0 l 108 0 l 119 267 l 108 894 l 675 894 l 685 879 l 672 739 l 457 746 l 297 744 l 294 528 l 446 526 l 593 531 l 604 517 l 592 376 l 433 381 l 292 379 l 290 283 l 294 149 l 450 147 l 671 156 l 681 140 z "},"Ë":{"ha":707,"x_min":108,"x_max":685,"o":"m 269 1017 q 207 1040 229 1017 q 185 1104 185 1063 q 209 1172 185 1147 q 276 1197 233 1197 q 339 1174 317 1197 q 361 1111 361 1151 q 337 1042 361 1067 q 269 1017 313 1017 m 511 1017 q 449 1040 471 1017 q 426 1104 426 1063 q 451 1172 426 1147 q 518 1197 475 1197 q 581 1174 558 1197 q 603 1111 603 1151 q 578 1042 603 1067 q 511 1017 554 1017 m 681 140 l 669 0 l 108 0 l 119 267 l 108 894 l 675 894 l 685 879 l 672 739 l 457 746 l 297 744 l 294 528 l 446 526 l 593 531 l 604 517 l 592 376 l 433 381 l 292 379 l 290 283 l 294 149 l 450 147 l 671 156 l 681 140 z "},"Ì":{"ha":410,"x_min":31,"x_max":383,"o":"m 94 1236 q 383 1079 215 1164 l 353 1003 l 335 997 q 36 1106 164 1056 l 31 1122 l 78 1232 l 94 1236 m 299 0 l 108 0 l 119 267 l 108 894 l 300 894 l 290 283 l 299 0 z "},"Í":{"ha":410,"x_min":58,"x_max":411,"o":"m 297 0 l 108 0 l 118 267 l 108 894 l 300 894 l 289 283 l 297 0 m 411 1121 l 406 1104 q 107 996 278 1054 l 89 1001 l 58 1078 q 347 1235 226 1163 l 364 1231 l 411 1121 z "},"Î":{"ha":410,"x_min":-1,"x_max":408,"o":"m -1 1085 q 185 1229 94 1149 l 222 1229 q 408 1085 308 1153 l 375 1011 l 357 1011 l 314 1036 q 204 1099 263 1063 q 94 1036 146 1063 l 51 1011 l 33 1011 l -1 1085 m 299 0 l 108 0 l 119 267 l 108 894 l 300 894 l 290 283 l 299 0 z "},"Ï":{"ha":410,"x_min":11,"x_max":400,"o":"m 103 1197 q 165 1174 143 1197 q 188 1111 188 1151 q 163 1042 188 1067 q 96 1017 139 1017 q 33 1040 56 1017 q 11 1104 11 1063 q 35 1172 11 1147 q 103 1197 60 1197 m 315 1197 q 378 1174 356 1197 q 400 1111 400 1151 q 376 1042 400 1067 q 308 1017 351 1017 q 246 1040 268 1017 q 224 1104 224 1063 q 248 1172 224 1147 q 315 1197 272 1197 m 299 0 l 108 0 l 119 267 l 108 894 l 300 894 l 290 283 l 299 0 z "},"Ð":{"ha":944,"x_min":21,"x_max":906,"o":"m 504 900 q 802 792 699 900 q 906 481 906 683 q 789 117 906 243 q 456 -10 672 -10 q 144 0 303 -10 l 143 0 l 154 267 l 153 382 l 29 382 l 21 394 l 28 507 l 150 507 l 143 894 l 144 894 l 504 900 m 490 136 q 710 438 710 136 q 656 676 710 601 q 489 750 603 750 q 332 743 418 750 l 329 507 l 492 507 l 500 494 l 494 382 l 326 382 l 325 283 l 329 146 q 490 136 426 136 z "},"Ñ":{"ha":965,"x_min":108,"x_max":858,"o":"m 854 0 l 651 0 l 288 606 l 275 606 l 274 308 l 281 0 l 108 0 l 118 264 l 110 894 l 313 894 l 676 289 l 689 289 l 683 886 l 858 897 l 847 276 l 854 0 m 724 1153 l 626 1029 l 608 1022 q 493 1049 571 1026 q 394 1071 410 1071 q 365 1058 379 1071 q 333 1028 350 1046 q 308 1000 317 1010 l 292 1000 l 236 1054 l 236 1069 l 335 1193 l 351 1200 q 469 1172 385 1196 q 565 1151 547 1151 q 598 1165 582 1151 q 631 1197 614 1179 q 653 1222 647 1215 l 669 1222 l 724 1168 l 724 1153 z "},"Ò":{"ha":893,"x_min":39,"x_max":854,"o":"m 339 1236 q 628 1079 460 1164 l 597 1003 l 579 997 q 281 1106 408 1056 l 275 1122 l 322 1232 l 339 1236 m 463 907 q 752 792 650 907 q 854 467 854 678 q 744 111 854 236 q 432 -14 635 -14 q 141 103 243 -14 q 39 436 39 221 q 149 785 39 663 q 463 907 260 907 m 444 754 q 284 685 333 754 q 235 461 235 617 q 284 208 235 283 q 447 132 333 132 q 608 201 557 132 q 658 429 658 271 q 608 680 658 606 q 444 754 558 754 z "},"Ó":{"ha":893,"x_min":39,"x_max":856,"o":"m 463 907 q 753 792 651 907 q 856 467 856 678 q 745 111 856 236 q 432 -14 635 -14 q 141 103 243 -14 q 39 436 39 221 q 149 785 39 663 q 463 907 260 907 m 446 754 q 285 685 335 754 q 235 461 235 617 q 284 208 235 283 q 447 132 333 132 q 608 201 558 132 q 658 429 658 271 q 609 680 658 606 q 446 754 560 754 m 654 1121 l 649 1104 q 350 996 521 1054 l 332 1001 l 301 1078 q 590 1235 469 1163 l 607 1231 l 654 1121 z "},"Ô":{"ha":893,"x_min":39,"x_max":854,"o":"m 243 1085 q 429 1229 339 1149 l 467 1229 q 653 1085 553 1153 l 619 1011 l 601 1011 l 558 1036 q 449 1099 507 1063 q 339 1036 390 1063 l 296 1011 l 278 1011 l 243 1085 m 463 907 q 752 792 650 907 q 854 467 854 678 q 744 111 854 236 q 432 -14 635 -14 q 141 103 243 -14 q 39 436 39 221 q 149 785 39 663 q 463 907 260 907 m 444 754 q 284 685 333 754 q 235 461 235 617 q 284 208 235 283 q 447 132 333 132 q 608 201 557 132 q 658 429 658 271 q 608 680 658 606 q 444 754 558 754 z "},"Õ":{"ha":893,"x_min":39,"x_max":856,"o":"m 463 907 q 753 792 651 907 q 856 467 856 678 q 745 111 856 236 q 432 -14 635 -14 q 141 103 243 -14 q 39 436 39 221 q 149 785 39 663 q 463 907 260 907 m 446 754 q 285 685 335 754 q 235 461 235 617 q 284 208 235 283 q 447 132 333 132 q 608 201 558 132 q 658 429 658 271 q 609 680 658 606 q 446 754 560 754 m 690 1153 l 593 1029 l 575 1022 q 460 1049 538 1026 q 361 1071 376 1071 q 331 1058 346 1071 q 300 1028 317 1046 q 275 1000 283 1010 l 258 1000 l 203 1054 l 203 1069 l 301 1193 l 318 1200 q 436 1172 351 1196 q 532 1151 514 1151 q 565 1165 549 1151 q 597 1197 581 1179 q 619 1222 614 1215 l 636 1222 l 690 1168 l 690 1153 z "},"Ö":{"ha":893,"x_min":39,"x_max":854,"o":"m 332 1197 q 394 1174 372 1197 q 417 1111 417 1151 q 392 1042 417 1067 q 325 1017 368 1017 q 263 1040 285 1017 q 240 1104 240 1063 q 265 1172 240 1147 q 332 1197 289 1197 m 574 1197 q 636 1174 614 1197 q 658 1111 658 1151 q 634 1042 658 1067 q 567 1017 610 1017 q 504 1040 526 1017 q 482 1104 482 1063 q 506 1172 482 1147 q 574 1197 531 1197 m 463 907 q 752 792 650 907 q 854 467 854 678 q 744 111 854 236 q 432 -14 635 -14 q 141 103 243 -14 q 39 436 39 221 q 149 785 39 663 q 463 907 260 907 m 444 754 q 284 685 333 754 q 235 461 235 617 q 284 208 235 283 q 447 132 333 132 q 608 201 557 132 q 658 429 658 271 q 608 680 658 606 q 444 754 558 754 z "},"×":{"ha":667,"x_min":86,"x_max":582,"o":"m 582 521 l 422 363 l 582 201 l 582 185 l 496 111 l 333 272 l 171 110 l 86 185 l 86 200 l 246 363 l 86 521 l 86 540 l 171 613 l 333 450 l 496 613 l 582 540 l 582 521 z "},"Ø":{"ha":893,"x_min":39,"x_max":854,"o":"m 711 831 q 854 467 854 719 q 744 111 854 236 q 432 -14 635 -14 q 314 0 365 -14 l 235 -165 l 117 -122 l 108 -106 l 188 60 q 39 436 39 175 q 149 785 39 663 q 463 907 260 907 q 585 892 526 907 l 656 1039 l 771 997 l 782 978 l 711 831 m 447 132 q 608 201 557 132 q 658 429 658 271 q 608 680 658 606 q 444 754 558 754 q 284 685 333 754 q 235 461 235 617 q 284 208 235 283 q 447 132 333 132 z "},"Ù":{"ha":886,"x_min":86,"x_max":803,"o":"m 338 1236 q 626 1079 458 1164 l 596 1003 l 578 997 q 279 1106 407 1056 l 274 1122 l 321 1232 l 338 1236 m 796 322 q 703 75 797 163 q 432 -12 608 -12 q 174 72 263 -12 q 88 315 85 157 l 90 444 l 86 894 l 275 894 l 265 340 q 443 142 264 142 q 621 331 622 142 l 613 894 l 803 894 l 797 440 l 796 322 z "},"Ú":{"ha":886,"x_min":86,"x_max":804,"o":"m 796 322 q 703 75 797 163 q 432 -12 608 -12 q 174 72 263 -12 q 89 315 85 157 l 90 444 l 86 894 l 275 894 l 265 340 q 443 142 264 142 q 622 331 624 142 l 613 894 l 804 894 l 797 440 l 796 322 m 653 1121 l 647 1104 q 349 996 519 1054 l 331 1001 l 300 1078 q 589 1235 468 1163 l 606 1231 l 653 1121 z "},"Û":{"ha":886,"x_min":86,"x_max":803,"o":"m 242 1085 q 428 1229 338 1149 l 465 1229 q 651 1085 551 1153 l 618 1011 l 600 1011 l 557 1036 q 447 1099 506 1063 q 338 1036 389 1063 l 294 1011 l 276 1011 l 242 1085 m 796 322 q 703 75 797 163 q 432 -12 608 -12 q 174 72 263 -12 q 88 315 85 157 l 90 444 l 86 894 l 275 894 l 265 340 q 443 142 264 142 q 621 331 622 142 l 613 894 l 803 894 l 797 440 l 796 322 z "},"Ü":{"ha":886,"x_min":86,"x_max":803,"o":"m 332 1197 q 394 1174 372 1197 q 417 1111 417 1151 q 392 1042 417 1067 q 325 1017 368 1017 q 263 1040 285 1017 q 240 1104 240 1063 q 265 1172 240 1147 q 332 1197 289 1197 m 574 1197 q 636 1174 614 1197 q 658 1111 658 1151 q 634 1042 658 1067 q 567 1017 610 1017 q 504 1040 526 1017 q 482 1104 482 1063 q 506 1172 482 1147 q 574 1197 531 1197 m 796 322 q 703 75 797 163 q 432 -12 608 -12 q 174 72 263 -12 q 88 315 85 157 l 90 444 l 86 894 l 275 894 l 265 340 q 443 142 264 142 q 621 331 622 142 l 613 894 l 803 894 l 797 440 l 796 322 z "},"Ý":{"ha":775,"x_min":6,"x_max":779,"o":"m 471 0 l 282 0 l 293 249 l 290 301 l 6 894 l 206 894 l 225 832 l 376 492 l 390 492 l 558 826 l 585 894 l 779 894 l 465 304 l 463 249 l 471 0 m 590 1121 l 585 1104 q 286 996 457 1054 l 268 1001 l 238 1078 q 526 1235 406 1163 l 543 1231 l 590 1121 z "},"Þ":{"ha":779,"x_min":108,"x_max":750,"o":"m 457 754 q 675 685 600 754 q 750 479 750 615 q 655 236 750 322 q 383 150 560 150 l 294 149 l 299 0 l 108 0 l 118 267 l 111 753 l 108 894 l 301 894 l 299 754 l 457 754 m 422 289 q 551 465 551 324 q 514 577 551 542 q 397 615 476 613 l 297 611 l 292 294 l 422 289 z "},"ß":{"ha":817,"x_min":82,"x_max":783,"o":"m 415 711 q 564 693 493 711 q 721 636 635 675 l 729 614 l 569 415 q 697 344 651 375 q 763 277 742 313 q 783 194 783 242 q 710 41 783 93 q 524 -11 636 -11 q 315 33 408 -11 l 339 193 l 353 201 q 435 147 393 167 q 513 128 478 128 q 571 147 549 128 q 593 196 593 167 q 570 243 593 222 q 502 285 547 264 q 367 342 457 306 l 363 364 l 510 547 q 399 574 453 574 q 254 446 254 574 l 250 225 l 257 0 l 82 0 l 90 206 l 86 446 q 172 640 86 568 q 415 711 258 711 z "},"à":{"ha":735,"x_min":24,"x_max":700,"o":"m 482 778 q 257 914 431 807 q 211 942 242 922 l 208 960 l 275 1060 l 293 1061 q 544 849 383 978 l 500 779 l 482 778 m 524 0 l 506 101 l 493 142 l 350 143 l 225 140 l 215 111 l 194 0 l 24 0 l 269 701 l 476 701 l 700 0 l 524 0 m 375 542 l 364 542 l 271 274 l 361 272 l 454 274 l 375 542 z "},"á":{"ha":735,"x_min":24,"x_max":700,"o":"m 524 0 l 504 101 l 492 142 l 350 143 l 225 140 l 215 111 l 194 0 l 24 0 l 269 701 l 476 701 l 700 0 l 524 0 m 375 542 l 364 542 l 271 274 l 361 272 l 454 274 l 375 542 m 578 960 l 575 942 q 529 914 544 922 q 304 778 356 807 l 286 779 l 242 849 q 493 1061 403 978 l 511 1060 l 578 960 z "},"â":{"ha":735,"x_min":24,"x_max":700,"o":"m 161 857 q 357 1053 240 929 l 397 1053 q 592 857 506 933 l 546 786 l 528 786 q 376 914 436 858 q 226 786 322 863 l 208 786 l 161 857 m 524 0 l 506 101 l 493 142 l 350 143 l 225 140 l 215 111 l 194 0 l 24 0 l 269 701 l 476 701 l 700 0 l 524 0 m 375 542 l 364 542 l 271 274 l 361 272 l 454 274 l 375 542 z "},"ã":{"ha":735,"x_min":24,"x_max":700,"o":"m 524 0 l 504 101 l 492 142 l 350 143 l 225 140 l 215 111 l 194 0 l 24 0 l 269 701 l 476 701 l 700 0 l 524 0 m 375 542 l 364 542 l 271 274 l 361 272 l 454 274 l 375 542 m 618 960 l 521 836 l 503 829 q 388 856 465 833 q 289 878 304 878 q 259 865 274 878 q 228 835 244 853 q 203 807 211 817 l 186 807 l 131 861 l 131 876 l 229 1000 l 246 1007 q 364 979 279 1003 q 460 958 442 958 q 492 972 476 958 q 525 1004 508 986 q 547 1029 542 1022 l 564 1029 l 618 975 l 618 960 z "},"ä":{"ha":735,"x_min":24,"x_max":700,"o":"m 254 824 q 192 847 214 824 q 169 911 169 869 q 194 979 169 954 q 261 1004 218 1004 q 324 981 301 1004 q 346 918 346 958 q 322 849 346 874 q 254 824 297 824 m 496 824 q 433 847 456 824 q 411 911 411 869 q 435 979 411 954 q 503 1004 460 1004 q 565 981 543 1004 q 588 918 588 958 q 563 849 588 874 q 496 824 539 824 m 524 0 l 506 101 l 493 142 l 350 143 l 225 140 l 215 111 l 194 0 l 24 0 l 269 701 l 476 701 l 700 0 l 524 0 m 375 542 l 364 542 l 271 274 l 361 272 l 454 274 l 375 542 z "},"å":{"ha":735,"x_min":24,"x_max":700,"o":"m 524 0 l 504 101 l 492 142 l 350 143 l 225 140 l 215 111 l 194 0 l 24 0 l 269 701 l 476 701 l 700 0 l 524 0 m 375 542 l 364 542 l 271 274 l 361 272 l 454 274 l 375 542 m 378 1061 q 475 1028 442 1061 q 508 935 508 994 q 472 834 508 869 q 371 799 435 799 q 276 832 310 799 q 242 929 242 865 q 277 1026 242 992 q 378 1061 313 1061 m 374 982 q 318 931 318 982 q 375 875 318 875 q 432 928 432 875 q 374 982 432 982 z "},"æ":{"ha":988,"x_min":-6,"x_max":967,"o":"m 956 0 l 500 0 l 494 96 l 476 226 l 217 158 l 189 106 l 156 0 l -6 0 l 354 701 l 874 701 l 883 688 l 869 565 l 689 574 l 589 574 l 613 389 l 839 447 l 850 438 l 863 318 l 628 265 l 646 129 l 765 129 l 957 136 l 967 124 l 956 0 m 433 550 l 422 550 l 296 308 l 460 350 l 433 550 z "},"ç":{"ha":631,"x_min":46,"x_max":604,"o":"m 406 135 q 572 176 493 135 l 589 168 l 574 22 q 415 -11 503 -7 l 401 -67 l 449 -93 q 506 -175 506 -124 q 469 -250 506 -221 q 375 -279 433 -279 q 261 -240 313 -279 l 274 -162 l 282 -158 q 364 -200 324 -200 q 397 -171 397 -200 q 374 -143 397 -156 l 306 -104 l 328 -7 q 117 99 189 10 q 46 344 46 189 q 140 615 46 519 q 408 711 235 711 q 604 675 514 711 l 574 528 l 558 521 q 397 568 489 568 q 272 519 313 568 q 231 364 231 469 q 406 135 231 135 z "},"è":{"ha":633,"x_min":101,"x_max":599,"o":"m 450 778 q 225 914 399 807 q 179 942 210 922 l 176 960 l 243 1060 l 261 1061 q 513 849 351 978 l 468 779 l 450 778 m 594 131 l 582 0 l 101 0 l 110 208 l 101 701 l 589 701 l 599 688 l 588 558 l 407 565 l 276 565 l 274 424 l 399 422 l 519 426 l 531 414 l 518 282 l 386 286 l 271 286 l 269 225 l 272 136 l 394 136 l 583 142 l 594 131 z "},"é":{"ha":633,"x_min":101,"x_max":599,"o":"m 594 131 l 582 0 l 101 0 l 108 208 l 101 701 l 589 701 l 599 688 l 588 558 l 407 565 l 276 565 l 274 424 l 399 422 l 519 426 l 529 414 l 518 282 l 386 286 l 271 286 l 269 225 l 272 136 l 394 136 l 583 142 l 594 131 m 546 960 l 543 942 q 497 914 513 922 q 272 778 324 807 l 254 779 l 210 849 q 461 1061 371 978 l 479 1060 l 546 960 z "},"ê":{"ha":633,"x_min":101,"x_max":599,"o":"m 129 857 q 325 1053 208 929 l 365 1053 q 560 857 474 933 l 514 786 l 496 786 q 344 914 404 858 q 194 786 290 863 l 176 786 l 129 857 m 594 131 l 582 0 l 101 0 l 110 208 l 101 701 l 589 701 l 599 688 l 588 558 l 407 565 l 276 565 l 274 424 l 399 422 l 519 426 l 531 414 l 518 282 l 386 286 l 271 286 l 269 225 l 272 136 l 394 136 l 583 142 l 594 131 z "},"ë":{"ha":633,"x_min":101,"x_max":599,"o":"m 222 824 q 160 847 182 824 q 138 911 138 869 q 162 979 138 954 q 229 1004 186 1004 q 292 981 269 1004 q 314 918 314 958 q 290 849 314 874 q 222 824 265 824 m 464 824 q 401 847 424 824 q 379 911 379 869 q 403 979 379 954 q 471 1004 428 1004 q 533 981 511 1004 q 556 918 556 958 q 531 849 556 874 q 464 824 507 824 m 594 131 l 582 0 l 101 0 l 110 208 l 101 701 l 589 701 l 599 688 l 588 558 l 407 565 l 276 565 l 274 424 l 399 422 l 519 426 l 531 414 l 518 282 l 386 286 l 271 286 l 269 225 l 272 136 l 394 136 l 583 142 l 594 131 z "},"ì":{"ha":388,"x_min":28,"x_max":364,"o":"m 113 1061 q 364 849 203 978 l 319 779 l 301 778 q 76 914 250 807 q 31 942 61 922 l 28 960 l 94 1060 l 113 1061 m 276 0 l 101 0 l 110 208 l 101 701 l 279 701 l 269 225 l 276 0 z "},"í":{"ha":388,"x_min":61,"x_max":397,"o":"m 276 0 l 101 0 l 108 208 l 101 701 l 279 701 l 269 225 l 276 0 m 397 960 l 394 942 q 349 914 364 922 q 124 778 175 807 l 106 779 l 61 849 q 313 1061 222 978 l 331 1060 l 397 960 z "},"î":{"ha":388,"x_min":-18,"x_max":413,"o":"m -18 857 q 178 1053 61 929 l 218 1053 q 413 857 326 933 l 367 786 l 349 786 q 197 914 257 858 q 47 786 143 863 l 29 786 l -18 857 m 276 0 l 101 0 l 110 208 l 101 701 l 279 701 l 269 225 l 276 0 z "},"ï":{"ha":388,"x_min":3,"x_max":392,"o":"m 94 1004 q 157 981 135 1004 q 179 918 179 958 q 155 849 179 874 q 88 824 131 824 q 25 847 47 824 q 3 911 3 869 q 27 979 3 954 q 94 1004 51 1004 m 307 1004 q 369 981 347 1004 q 392 918 392 958 q 367 849 392 874 q 300 824 343 824 q 238 847 260 824 q 215 911 215 869 q 240 979 215 954 q 307 1004 264 1004 m 276 0 l 101 0 l 110 208 l 101 701 l 279 701 l 269 225 l 276 0 z "},"ð":{"ha":829,"x_min":25,"x_max":779,"o":"m 443 707 q 692 622 606 707 q 779 378 779 536 q 681 92 779 192 q 400 -8 582 -8 q 133 0 294 -8 l 142 208 l 140 289 l 35 289 l 25 303 l 32 401 l 139 401 l 133 701 l 443 707 m 431 125 q 597 336 597 125 q 557 513 597 460 q 428 567 517 567 q 308 561 363 567 l 306 401 l 453 401 l 461 389 l 454 289 l 303 289 l 301 225 l 304 135 q 431 125 399 125 z "},"ñ":{"ha":839,"x_min":101,"x_max":739,"o":"m 736 0 l 546 0 l 265 435 l 256 435 l 254 246 l 260 0 l 101 0 l 108 206 l 101 701 l 290 701 l 571 267 l 583 267 l 578 694 l 739 706 l 729 222 l 736 0 m 660 960 l 563 836 l 544 829 q 429 856 507 833 q 331 878 346 878 q 301 865 315 878 q 269 835 286 853 q 244 807 253 817 l 228 807 l 172 861 l 172 876 l 271 1000 l 288 1007 q 406 979 321 1003 q 501 958 483 958 q 534 972 518 958 q 567 1004 550 986 q 589 1029 583 1022 l 606 1029 l 660 975 l 660 960 z "},"ò":{"ha":778,"x_min":46,"x_max":733,"o":"m 308 1061 q 560 849 399 978 l 515 779 l 497 778 q 272 914 446 807 q 226 942 257 922 l 224 960 l 290 1060 l 308 1061 m 404 713 q 647 622 561 713 q 733 367 733 532 q 640 86 733 185 q 375 -12 547 -12 q 132 80 218 -12 q 46 340 46 172 q 139 615 46 518 q 404 713 232 713 m 388 571 q 265 524 301 571 q 228 364 228 478 q 244 220 228 272 q 295 146 260 168 q 390 124 331 124 q 515 169 478 124 q 551 331 551 215 q 535 474 551 422 q 483 549 518 526 q 388 571 449 571 z "},"ó":{"ha":778,"x_min":46,"x_max":733,"o":"m 403 713 q 647 622 561 713 q 733 367 733 532 q 640 87 733 186 q 375 -12 546 -12 q 132 80 218 -12 q 46 340 46 172 q 139 615 46 518 q 403 713 232 713 m 388 571 q 265 524 301 571 q 228 364 228 478 q 244 220 228 272 q 295 146 260 168 q 390 124 331 124 q 515 169 478 124 q 551 331 551 215 q 535 474 551 422 q 483 549 518 526 q 388 571 449 571 m 593 960 l 590 942 q 544 914 560 922 q 319 778 371 807 l 301 779 l 257 849 q 508 1061 418 978 l 526 1060 l 593 960 z "},"ô":{"ha":778,"x_min":46,"x_max":733,"o":"m 176 857 q 372 1053 256 929 l 413 1053 q 607 857 521 933 l 561 786 l 543 786 q 392 914 451 858 q 242 786 338 863 l 224 786 l 176 857 m 404 713 q 647 622 561 713 q 733 367 733 532 q 640 86 733 185 q 375 -12 547 -12 q 132 80 218 -12 q 46 340 46 172 q 139 615 46 518 q 404 713 232 713 m 388 571 q 265 524 301 571 q 228 364 228 478 q 244 220 228 272 q 295 146 260 168 q 390 124 331 124 q 515 169 478 124 q 551 331 551 215 q 535 474 551 422 q 483 549 518 526 q 388 571 449 571 z "},"õ":{"ha":778,"x_min":46,"x_max":733,"o":"m 403 713 q 647 622 561 713 q 733 367 733 532 q 640 87 733 186 q 375 -12 546 -12 q 132 80 218 -12 q 46 340 46 172 q 139 615 46 518 q 403 713 232 713 m 388 571 q 265 524 301 571 q 228 364 228 478 q 244 220 228 272 q 295 146 260 168 q 390 124 331 124 q 515 169 478 124 q 551 331 551 215 q 535 474 551 422 q 483 549 518 526 q 388 571 449 571 m 633 960 l 536 836 l 518 829 q 403 856 481 833 q 304 878 319 878 q 274 865 289 878 q 243 835 260 853 q 218 807 226 817 l 201 807 l 146 861 l 146 876 l 244 1000 l 261 1007 q 379 979 294 1003 q 475 958 457 958 q 508 972 492 958 q 540 1004 524 986 q 563 1029 557 1022 l 579 1029 l 633 975 l 633 960 z "},"ö":{"ha":778,"x_min":46,"x_max":733,"o":"m 276 1004 q 339 981 317 1004 q 361 918 361 958 q 337 849 361 874 q 269 824 313 824 q 207 847 229 824 q 185 911 185 869 q 209 979 185 954 q 276 1004 233 1004 m 518 1004 q 581 981 558 1004 q 603 918 603 958 q 578 849 603 874 q 511 824 554 824 q 449 847 471 824 q 426 911 426 869 q 451 979 426 954 q 518 1004 475 1004 m 404 713 q 647 622 561 713 q 733 367 733 532 q 640 86 733 185 q 375 -12 547 -12 q 132 80 218 -12 q 46 340 46 172 q 139 615 46 518 q 404 713 232 713 m 388 571 q 265 524 301 571 q 228 364 228 478 q 244 220 228 272 q 295 146 260 168 q 390 124 331 124 q 515 169 478 124 q 551 331 551 215 q 535 474 551 422 q 483 549 518 526 q 388 571 449 571 z "},"÷":{"ha":667,"x_min":39,"x_max":642,"o":"m 632 299 l 51 299 l 39 311 l 49 424 l 629 424 l 642 411 l 632 299 m 332 210 q 392 188 371 210 q 413 127 413 166 q 390 60 413 85 q 326 36 367 36 q 264 58 286 36 q 243 121 243 80 q 267 186 243 161 q 332 210 291 210 m 332 624 q 392 602 371 624 q 413 541 413 580 q 390 474 413 499 q 326 450 367 450 q 264 472 286 450 q 243 534 243 494 q 267 599 243 575 q 332 624 291 624 z "},"ø":{"ha":778,"x_min":46,"x_max":733,"o":"m 631 639 q 733 367 733 549 q 640 86 733 185 q 375 -12 547 -12 q 278 -1 325 -12 l 189 -158 l 83 -108 l 79 -92 l 160 54 q 46 340 46 147 q 139 615 46 518 q 404 713 232 713 q 515 699 468 713 l 590 831 l 690 779 l 700 763 l 631 639 m 390 124 q 515 169 478 124 q 551 331 551 215 q 535 474 551 422 q 483 549 518 526 q 388 571 449 571 q 265 524 301 571 q 228 364 228 478 q 244 220 228 272 q 295 146 260 168 q 390 124 331 124 z "},"ù":{"ha":774,"x_min":83,"x_max":693,"o":"m 307 1061 q 558 849 397 978 l 514 779 l 496 778 q 271 914 444 807 q 225 942 256 922 l 222 960 l 289 1060 l 307 1061 m 686 238 q 607 53 688 118 q 378 -11 526 -11 q 158 53 233 -11 q 85 238 82 118 l 88 347 l 83 701 l 258 701 l 249 263 q 386 131 247 131 q 522 263 524 131 l 515 701 l 693 701 l 686 344 l 686 238 z "},"ú":{"ha":774,"x_min":83,"x_max":693,"o":"m 686 238 q 608 53 688 118 q 379 -11 528 -11 q 158 53 235 -11 q 86 238 82 118 l 88 347 l 83 701 l 258 701 l 250 263 q 386 131 249 131 q 524 263 525 131 l 517 701 l 693 701 l 688 344 l 686 238 m 590 960 l 588 942 q 542 914 557 922 q 317 778 368 807 l 299 779 l 254 849 q 506 1061 415 978 l 524 1060 l 590 960 z "},"û":{"ha":774,"x_min":83,"x_max":693,"o":"m 175 857 q 371 1053 254 929 l 411 1053 q 606 857 519 933 l 560 786 l 542 786 q 390 914 450 858 q 240 786 336 863 l 222 786 l 175 857 m 686 238 q 607 53 688 118 q 378 -11 526 -11 q 158 53 233 -11 q 85 238 82 118 l 88 347 l 83 701 l 258 701 l 249 263 q 386 131 247 131 q 522 263 524 131 l 515 701 l 693 701 l 686 344 l 686 238 z "},"ü":{"ha":774,"x_min":83,"x_max":693,"o":"m 275 1004 q 338 981 315 1004 q 360 918 360 958 q 335 849 360 874 q 268 824 311 824 q 206 847 228 824 q 183 911 183 869 q 208 979 183 954 q 275 1004 232 1004 m 517 1004 q 579 981 557 1004 q 601 918 601 958 q 577 849 601 874 q 510 824 553 824 q 447 847 469 824 q 425 911 425 869 q 449 979 425 954 q 517 1004 474 1004 m 686 238 q 607 53 688 118 q 378 -11 526 -11 q 158 53 233 -11 q 85 238 82 118 l 88 347 l 83 701 l 258 701 l 249 263 q 386 131 247 131 q 522 263 524 131 l 515 701 l 693 701 l 686 344 l 686 238 z "},"ý":{"ha":690,"x_min":17,"x_max":679,"o":"m 422 0 l 247 0 l 256 190 l 254 222 l 17 701 l 201 701 l 218 650 l 335 404 l 346 404 l 476 643 l 499 701 l 679 701 l 417 229 l 415 190 l 422 0 m 554 960 l 551 942 q 506 914 521 922 q 281 778 332 807 l 263 779 l 218 849 q 469 1061 379 978 l 488 1060 l 554 960 z "},"þ":{"ha":694,"x_min":101,"x_max":658,"o":"m 410 599 q 594 542 531 599 q 658 378 658 486 q 576 183 658 253 q 343 114 494 114 l 274 113 l 278 0 l 101 0 l 108 208 l 103 596 l 101 597 l 103 597 l 101 701 l 281 701 l 278 599 l 410 599 m 376 240 q 449 284 425 256 q 472 363 472 313 q 443 443 472 418 q 350 471 414 468 l 276 467 l 271 244 l 376 240 z "},"ÿ":{"ha":690,"x_min":17,"x_max":679,"o":"m 231 824 q 168 847 190 824 q 146 911 146 869 q 170 979 146 954 q 238 1004 194 1004 q 300 981 278 1004 q 322 918 322 958 q 298 849 322 874 q 231 824 274 824 m 472 824 q 410 847 432 824 q 388 911 388 869 q 412 979 388 954 q 479 1004 436 1004 q 542 981 519 1004 q 564 918 564 958 q 540 849 564 874 q 472 824 515 824 m 422 0 l 247 0 l 256 190 l 254 224 l 17 701 l 201 701 l 218 650 l 335 404 l 346 404 l 475 643 l 499 701 l 679 701 l 415 228 l 414 190 l 422 0 z "},"Ā":{"ha":833,"x_min":11,"x_max":811,"o":"m 619 0 l 597 117 l 574 200 l 399 204 l 244 200 l 221 126 l 197 0 l 11 0 l 314 894 l 538 894 l 811 0 l 619 0 m 428 718 l 415 718 l 293 346 l 413 343 l 533 346 l 428 718 m 615 1050 l 226 1050 l 214 1063 l 224 1165 l 613 1165 l 624 1153 l 615 1050 z "},"ā":{"ha":735,"x_min":24,"x_max":700,"o":"m 524 0 l 504 101 l 492 142 l 350 143 l 225 140 l 215 111 l 194 0 l 24 0 l 269 701 l 476 701 l 700 0 l 524 0 m 375 542 l 364 542 l 271 274 l 361 272 l 454 274 l 375 542 m 572 857 l 183 857 l 171 869 l 181 972 l 569 972 l 581 960 l 572 857 z "},"Ă":{"ha":833,"x_min":11,"x_max":811,"o":"m 619 0 l 597 117 l 574 200 l 399 204 l 244 200 l 221 126 l 197 0 l 11 0 l 314 894 l 538 894 l 811 0 l 619 0 m 428 718 l 415 718 l 293 346 l 413 343 l 533 346 l 428 718 m 628 1147 q 547 1039 601 1076 q 415 1001 493 1001 q 287 1039 340 1001 q 210 1147 233 1076 l 253 1207 l 279 1207 q 335 1150 297 1171 q 422 1129 372 1129 q 558 1207 521 1129 l 585 1207 l 628 1147 z "},"ă":{"ha":735,"x_min":24,"x_max":700,"o":"m 524 0 l 504 101 l 492 142 l 350 143 l 225 140 l 215 111 l 194 0 l 24 0 l 269 701 l 476 701 l 700 0 l 524 0 m 375 542 l 364 542 l 271 274 l 361 272 l 454 274 l 375 542 m 586 965 q 512 839 565 886 q 372 792 458 792 q 238 840 289 792 q 168 965 188 889 l 211 1028 l 238 1028 q 378 922 271 922 q 517 1028 486 922 l 543 1028 l 586 965 z "},"Ą":{"ha":833,"x_min":11,"x_max":863,"o":"m 863 -204 q 715 -274 785 -274 q 625 -240 658 -274 q 592 -151 592 -207 q 607 -83 592 -117 q 661 0 622 -49 l 619 0 l 597 117 l 574 200 l 399 204 l 244 200 l 221 126 l 197 0 l 11 0 l 313 894 l 538 894 l 811 0 l 751 0 q 693 -124 693 -82 q 742 -169 693 -169 q 836 -129 788 -169 l 846 -129 l 863 -204 m 428 718 l 415 718 l 293 346 l 411 343 l 533 346 l 428 718 z "},"ą":{"ha":735,"x_min":24,"x_max":747,"o":"m 747 -203 q 613 -272 679 -272 q 524 -240 558 -272 q 490 -154 490 -207 q 560 0 490 -96 l 524 0 l 506 101 l 493 142 l 350 143 l 225 140 l 215 111 l 194 0 l 24 0 l 269 701 l 476 701 l 700 0 l 653 0 q 593 -122 593 -79 q 638 -168 593 -168 q 721 -124 681 -168 l 732 -124 l 747 -203 m 375 542 l 364 542 l 271 274 l 361 272 l 454 274 l 375 542 z "},"Ć":{"ha":718,"x_min":39,"x_max":701,"o":"m 467 906 q 701 851 597 906 l 668 694 l 653 688 q 458 750 565 750 q 238 460 238 750 q 464 146 238 146 q 669 206 575 146 l 686 196 l 671 36 q 449 -12 565 -12 q 144 104 249 -12 q 39 439 39 221 q 151 783 39 661 q 467 906 263 906 m 644 1121 l 639 1104 q 340 996 511 1054 l 322 1001 l 292 1078 q 581 1235 460 1163 l 597 1231 l 644 1121 z "},"ć":{"ha":631,"x_min":46,"x_max":603,"o":"m 408 711 q 603 675 513 711 l 572 528 l 558 521 q 397 568 489 568 q 271 519 313 568 q 229 364 229 469 q 406 135 229 135 q 572 176 493 135 l 588 168 l 574 22 q 394 -11 492 -11 q 135 81 224 -11 q 46 344 46 172 q 140 615 46 519 q 408 711 235 711 m 578 960 l 575 942 q 529 914 544 922 q 304 778 356 807 l 286 779 l 242 849 q 493 1061 403 978 l 511 1060 l 578 960 z "},"Ĉ":{"ha":718,"x_min":39,"x_max":701,"o":"m 233 1085 q 419 1229 329 1149 l 457 1229 q 643 1085 543 1153 l 610 1011 l 592 1011 l 549 1036 q 439 1099 497 1063 q 329 1036 381 1063 l 286 1011 l 268 1011 l 233 1085 m 465 906 q 701 851 597 906 l 667 694 l 653 688 q 458 750 565 750 q 236 460 236 750 q 464 146 236 146 q 668 206 575 146 l 686 196 l 671 36 q 449 -12 565 -12 q 144 104 249 -12 q 39 439 39 221 q 151 783 39 661 q 465 906 263 906 z "},"ĉ":{"ha":631,"x_min":46,"x_max":604,"o":"m 163 857 q 358 1053 242 929 l 399 1053 q 593 857 507 933 l 547 786 l 529 786 q 378 914 438 858 q 228 786 324 863 l 210 786 l 163 857 m 408 711 q 604 675 514 711 l 574 528 l 558 521 q 397 568 489 568 q 272 519 313 568 q 231 364 231 469 q 406 135 231 135 q 572 176 493 135 l 589 168 l 574 22 q 394 -11 492 -11 q 135 81 224 -11 q 46 344 46 172 q 140 615 46 519 q 408 711 235 711 z "},"Ċ":{"ha":718,"x_min":39,"x_max":701,"o":"m 443 1211 q 510 1186 486 1211 q 535 1117 535 1161 q 508 1042 535 1069 q 436 1014 482 1014 q 366 1039 390 1014 q 342 1110 342 1064 q 369 1183 342 1156 q 443 1211 396 1211 m 465 906 q 701 851 597 906 l 667 694 l 653 688 q 458 750 565 750 q 236 460 236 750 q 464 146 236 146 q 668 206 575 146 l 686 196 l 671 36 q 449 -12 565 -12 q 144 104 249 -12 q 39 439 39 221 q 151 783 39 661 q 465 906 263 906 z "},"ċ":{"ha":631,"x_min":46,"x_max":604,"o":"m 381 1018 q 448 993 424 1018 q 472 924 472 968 q 446 849 472 876 q 374 821 419 821 q 303 846 328 821 q 279 917 279 871 q 306 990 279 963 q 381 1018 333 1018 m 408 711 q 604 675 514 711 l 574 528 l 558 521 q 397 568 489 568 q 272 519 313 568 q 231 364 231 469 q 406 135 231 135 q 572 176 493 135 l 589 168 l 574 22 q 394 -11 492 -11 q 135 81 224 -11 q 46 344 46 172 q 140 615 46 519 q 408 711 235 711 z "},"Č":{"ha":718,"x_min":39,"x_max":701,"o":"m 467 906 q 701 851 597 906 l 668 694 l 653 688 q 458 750 565 750 q 238 460 238 750 q 464 146 238 146 q 669 206 575 146 l 686 196 l 671 36 q 449 -12 565 -12 q 144 104 249 -12 q 39 439 39 221 q 151 783 39 661 q 467 906 263 906 m 644 1142 q 458 997 549 1078 l 421 997 q 235 1142 335 1074 l 268 1215 l 286 1215 l 329 1190 q 439 1128 381 1164 q 549 1190 497 1164 l 592 1215 l 610 1215 l 644 1142 z "},"č":{"ha":631,"x_min":46,"x_max":603,"o":"m 408 711 q 603 675 513 711 l 572 528 l 558 521 q 397 568 489 568 q 271 519 313 568 q 229 364 229 469 q 406 135 229 135 q 572 176 493 135 l 588 168 l 574 22 q 394 -11 492 -11 q 135 81 224 -11 q 46 344 46 172 q 140 615 46 519 q 408 711 235 711 m 593 979 q 397 783 514 907 l 357 783 q 163 979 249 903 l 208 1050 l 226 1050 q 378 922 318 978 q 528 1050 432 974 l 546 1050 l 593 979 z "},"Ď":{"ha":910,"x_min":108,"x_max":871,"o":"m 468 900 q 767 792 663 900 q 871 481 871 683 q 754 117 871 243 q 421 -10 638 -10 q 108 0 268 -10 l 118 267 l 108 894 l 468 900 m 454 136 q 675 438 675 136 q 622 676 675 601 q 454 750 568 750 q 297 743 381 750 l 289 283 l 293 146 q 454 136 390 136 m 651 1142 q 465 997 556 1078 l 428 997 q 242 1142 342 1074 l 275 1215 l 293 1215 l 336 1190 q 446 1128 388 1164 q 556 1190 504 1164 l 599 1215 l 617 1215 l 651 1142 z "},"ď":{"ha":792,"x_min":101,"x_max":746,"o":"m 410 707 q 659 622 572 707 q 746 378 746 536 q 648 92 746 192 q 367 -8 550 -8 q 101 0 260 -8 l 108 208 l 101 701 l 410 707 m 399 125 q 565 336 565 125 q 525 513 565 460 q 396 567 485 567 q 276 561 331 567 l 269 225 l 272 135 q 399 125 346 125 m 590 979 q 394 783 511 907 l 354 783 q 160 979 246 903 l 206 1050 l 224 1050 q 375 922 315 978 q 525 1050 429 974 l 543 1050 l 590 979 z "},"Đ":{"ha":910,"x_min":108,"x_max":871,"o":"m 468 900 q 767 792 663 900 q 871 481 871 683 q 754 117 871 243 q 421 -10 638 -10 q 108 0 268 -10 l 118 267 l 108 894 l 468 900 m 454 136 q 675 438 675 136 q 622 676 675 601 q 454 750 568 750 q 297 743 381 750 l 289 283 l 293 146 q 454 136 390 136 m 642 1050 l 253 1050 l 240 1063 l 250 1165 l 639 1165 l 650 1153 l 642 1050 z "},"đ":{"ha":792,"x_min":101,"x_max":746,"o":"m 410 707 q 659 622 572 707 q 746 378 746 536 q 648 92 746 192 q 367 -8 550 -8 q 101 0 260 -8 l 108 208 l 101 701 l 410 707 m 399 125 q 565 336 565 125 q 525 513 565 460 q 396 567 485 567 q 276 561 331 567 l 269 225 l 272 135 q 399 125 346 125 m 571 857 l 182 857 l 169 869 l 179 972 l 568 972 l 579 960 l 571 857 z "},"Ē":{"ha":707,"x_min":108,"x_max":686,"o":"m 682 140 l 669 0 l 108 0 l 118 267 l 108 894 l 675 894 l 686 879 l 672 739 l 458 746 l 297 744 l 293 529 l 447 526 l 593 531 l 604 517 l 592 376 l 433 381 l 290 379 l 289 283 l 293 149 l 450 147 l 671 156 l 682 140 m 589 1050 l 200 1050 l 188 1063 l 197 1165 l 586 1165 l 597 1153 l 589 1050 z "},"ē":{"ha":633,"x_min":101,"x_max":599,"o":"m 594 131 l 582 0 l 101 0 l 108 208 l 101 701 l 589 701 l 599 688 l 588 558 l 407 565 l 276 565 l 274 424 l 399 422 l 519 426 l 529 414 l 518 282 l 386 286 l 271 286 l 269 225 l 272 136 l 394 136 l 583 142 l 594 131 m 540 857 l 151 857 l 139 869 l 149 972 l 538 972 l 549 960 l 540 857 z "},"Ĕ":{"ha":707,"x_min":108,"x_max":686,"o":"m 682 140 l 669 0 l 108 0 l 118 267 l 108 894 l 675 894 l 686 879 l 672 739 l 458 746 l 297 744 l 293 529 l 447 526 l 593 531 l 604 517 l 592 376 l 433 381 l 290 379 l 289 283 l 293 149 l 450 147 l 671 156 l 682 140 m 601 1147 q 521 1039 575 1076 q 389 1001 467 1001 q 260 1039 314 1001 q 183 1147 207 1076 l 226 1207 l 253 1207 q 308 1150 271 1171 q 396 1129 346 1129 q 532 1207 494 1129 l 558 1207 l 601 1147 z "},"ĕ":{"ha":633,"x_min":101,"x_max":599,"o":"m 594 131 l 582 0 l 101 0 l 108 208 l 101 701 l 589 701 l 599 688 l 588 558 l 407 565 l 276 565 l 274 424 l 399 422 l 519 426 l 529 414 l 518 282 l 386 286 l 271 286 l 269 225 l 272 136 l 394 136 l 583 142 l 594 131 m 554 965 q 480 839 533 886 q 340 792 426 792 q 206 840 257 792 q 136 965 156 889 l 179 1028 l 206 1028 q 346 922 239 922 q 485 1028 454 922 l 511 1028 l 554 965 z "},"Ė":{"ha":707,"x_min":108,"x_max":685,"o":"m 390 1014 q 320 1039 344 1014 q 296 1110 296 1064 q 323 1183 296 1156 q 397 1211 350 1211 q 465 1186 440 1211 q 489 1117 489 1161 q 463 1042 489 1069 q 390 1014 436 1014 m 681 140 l 669 0 l 108 0 l 119 267 l 108 894 l 675 894 l 685 879 l 672 739 l 457 746 l 297 744 l 294 528 l 446 526 l 593 531 l 604 517 l 592 376 l 433 381 l 292 379 l 290 283 l 294 149 l 450 147 l 671 156 l 681 140 z "},"ė":{"ha":633,"x_min":101,"x_max":599,"o":"m 342 821 q 272 846 296 821 q 247 917 247 871 q 274 990 247 963 q 349 1018 301 1018 q 416 993 392 1018 q 440 924 440 968 q 414 849 440 876 q 342 821 388 821 m 594 131 l 582 0 l 101 0 l 110 208 l 101 701 l 589 701 l 599 688 l 588 558 l 407 565 l 276 565 l 274 424 l 399 422 l 519 426 l 531 414 l 518 282 l 386 286 l 271 286 l 269 225 l 272 136 l 394 136 l 583 142 l 594 131 z "},"Ę":{"ha":707,"x_min":108,"x_max":692,"o":"m 692 -206 q 549 -274 615 -274 q 457 -239 492 -274 q 422 -151 422 -204 q 463 -37 422 -92 l 489 0 l 108 0 l 119 267 l 108 894 l 675 894 l 685 879 l 672 739 l 457 746 l 297 744 l 294 528 l 446 526 l 593 531 l 604 517 l 592 376 l 433 381 l 292 379 l 290 283 l 294 149 l 450 147 l 671 156 l 681 140 l 669 0 l 581 0 l 546 -53 q 524 -118 524 -90 q 576 -169 524 -169 q 667 -129 618 -169 l 676 -129 l 692 -206 z "},"ę":{"ha":633,"x_min":101,"x_max":599,"o":"m 446 -56 q 424 -121 424 -93 q 476 -172 424 -172 q 567 -132 518 -172 l 576 -132 l 592 -208 q 449 -276 515 -276 q 357 -242 392 -276 q 322 -154 322 -207 q 363 -40 322 -94 l 392 0 l 101 0 l 110 208 l 101 701 l 589 701 l 599 688 l 588 558 l 407 565 l 276 565 l 274 424 l 399 422 l 519 426 l 531 414 l 518 282 l 386 286 l 271 286 l 269 225 l 272 136 l 394 136 l 583 142 l 594 131 l 582 0 l 483 0 l 446 -56 z "},"Ě":{"ha":707,"x_min":108,"x_max":686,"o":"m 682 140 l 669 0 l 108 0 l 118 267 l 108 894 l 675 894 l 686 879 l 672 739 l 458 746 l 297 744 l 293 529 l 447 526 l 593 531 l 604 517 l 592 376 l 433 381 l 290 379 l 289 283 l 293 149 l 450 147 l 671 156 l 682 140 m 599 1142 q 413 997 503 1078 l 375 997 q 189 1142 289 1074 l 222 1215 l 240 1215 l 283 1190 q 393 1128 335 1164 q 503 1190 451 1164 l 546 1215 l 564 1215 l 599 1142 z "},"ě":{"ha":633,"x_min":101,"x_max":599,"o":"m 594 131 l 582 0 l 101 0 l 108 208 l 101 701 l 589 701 l 599 688 l 588 558 l 407 565 l 276 565 l 274 424 l 399 422 l 519 426 l 529 414 l 518 282 l 386 286 l 271 286 l 269 225 l 272 136 l 394 136 l 583 142 l 594 131 m 560 979 q 364 783 481 907 l 324 783 q 129 979 215 903 l 175 1050 l 193 1050 q 344 922 285 978 q 494 1050 399 974 l 513 1050 l 560 979 z "},"Ĝ":{"ha":831,"x_min":39,"x_max":767,"o":"m 249 1085 q 435 1229 344 1149 l 472 1229 q 658 1085 558 1153 l 625 1011 l 607 1011 l 564 1036 q 454 1099 513 1063 q 344 1036 396 1063 l 301 1011 l 283 1011 l 249 1085 m 506 906 q 767 851 653 906 l 726 682 l 710 679 q 588 735 642 718 q 472 753 533 753 q 292 680 349 753 q 236 438 236 607 q 260 261 236 326 q 335 166 283 196 q 471 136 386 136 q 590 156 525 136 l 593 232 l 589 369 l 764 383 l 760 261 l 763 43 q 457 -12 597 -12 q 144 101 249 -12 q 39 428 39 215 q 160 783 39 660 q 506 906 282 906 z "},"ĝ":{"ha":722,"x_min":46,"x_max":660,"o":"m 168 857 q 364 1053 247 929 l 404 1053 q 599 857 513 933 l 553 786 l 535 786 q 383 914 443 858 q 233 786 329 863 l 215 786 l 168 857 m 440 711 q 660 672 560 711 l 615 514 l 599 514 q 502 557 544 544 q 410 569 460 569 q 271 519 313 569 q 229 343 229 469 q 247 213 229 260 q 305 145 265 165 q 413 125 344 125 q 500 142 451 125 l 500 186 l 497 297 l 657 308 l 656 215 l 656 35 q 399 -11 518 -11 q 135 78 224 -11 q 46 335 46 168 q 149 615 46 518 q 440 711 251 711 z "},"Ğ":{"ha":831,"x_min":39,"x_max":768,"o":"m 506 906 q 768 851 651 906 l 728 682 l 710 679 q 588 735 642 718 q 474 753 535 753 q 293 679 350 753 q 236 438 236 606 q 260 261 236 326 q 336 166 285 196 q 472 136 388 136 q 590 156 525 136 l 593 232 l 590 369 l 764 383 l 760 261 l 764 43 q 457 -12 597 -12 q 144 101 249 -12 q 39 428 39 215 q 160 783 39 660 q 506 906 282 906 m 663 1147 q 582 1039 636 1076 q 450 1001 528 1001 q 322 1039 375 1001 q 244 1147 268 1076 l 288 1207 l 314 1207 q 369 1150 332 1171 q 457 1129 407 1129 q 593 1207 556 1129 l 619 1207 l 663 1147 z "},"ğ":{"ha":722,"x_min":46,"x_max":660,"o":"m 440 711 q 660 672 557 711 l 614 514 l 599 514 q 502 557 544 544 q 408 569 460 569 q 270 519 313 569 q 228 343 228 468 q 246 213 228 260 q 303 145 264 165 q 411 125 343 125 q 499 142 453 125 l 499 186 l 497 297 l 657 308 l 654 215 l 654 35 q 399 -11 518 -11 q 135 78 224 -11 q 46 335 46 168 q 149 615 46 518 q 440 711 251 711 m 593 965 q 519 839 572 886 q 379 792 465 792 q 245 840 296 792 q 175 965 194 889 l 218 1028 l 244 1028 q 385 922 278 922 q 524 1028 493 922 l 550 1028 l 593 965 z "},"Ġ":{"ha":831,"x_min":39,"x_max":768,"o":"m 506 906 q 768 851 651 906 l 728 682 l 710 679 q 588 735 642 718 q 474 753 535 753 q 293 679 350 753 q 236 438 236 606 q 260 261 236 326 q 336 166 285 196 q 472 136 388 136 q 590 156 525 136 l 593 232 l 590 369 l 764 383 l 760 261 l 764 43 q 457 -12 597 -12 q 144 101 249 -12 q 39 428 39 215 q 160 783 39 660 q 506 906 282 906 m 458 1211 q 526 1186 501 1211 q 550 1117 550 1161 q 524 1042 550 1069 q 451 1014 497 1014 q 381 1039 406 1014 q 357 1110 357 1064 q 384 1183 357 1156 q 458 1211 411 1211 z "},"ġ":{"ha":722,"x_min":46,"x_max":660,"o":"m 386 1018 q 453 993 429 1018 q 478 924 478 968 q 451 849 478 876 q 379 821 425 821 q 309 846 333 821 q 285 917 285 871 q 312 990 285 963 q 386 1018 339 1018 m 440 711 q 660 672 560 711 l 615 514 l 599 514 q 502 557 544 544 q 410 569 460 569 q 271 519 313 569 q 229 343 229 469 q 247 213 229 260 q 305 145 265 165 q 413 125 344 125 q 500 142 451 125 l 500 186 l 497 297 l 657 308 l 656 215 l 656 35 q 399 -11 518 -11 q 135 78 224 -11 q 46 335 46 168 q 149 615 46 518 q 440 711 251 711 z "},"Ģ":{"ha":831,"x_min":39,"x_max":767,"o":"m 506 906 q 767 851 653 906 l 726 682 l 710 679 q 588 735 642 718 q 472 753 533 753 q 292 680 349 753 q 236 438 236 607 q 260 261 236 326 q 335 166 283 196 q 471 136 386 136 q 590 156 525 136 l 593 232 l 589 369 l 764 383 l 760 261 l 763 43 q 457 -12 597 -12 q 144 101 249 -12 q 39 428 39 215 q 160 783 39 660 q 506 906 282 906 m 468 -56 q 524 -161 524 -99 q 374 -378 524 -271 l 319 -331 l 318 -318 q 388 -196 388 -261 q 349 -121 388 -154 l 349 -107 q 468 -56 410 -71 z "},"ģ":{"ha":722,"x_min":46,"x_max":660,"o":"m 440 711 q 660 672 560 711 l 615 514 l 599 514 q 502 557 544 544 q 410 569 460 569 q 271 519 313 569 q 229 343 229 469 q 247 213 229 260 q 305 145 265 165 q 413 125 344 125 q 500 142 451 125 l 500 186 l 497 297 l 657 308 l 656 215 l 656 35 q 399 -11 518 -11 q 135 78 224 -11 q 46 335 46 168 q 149 615 46 518 q 440 711 251 711 m 417 -56 q 472 -161 472 -99 q 322 -378 472 -271 l 268 -331 l 267 -318 q 336 -196 336 -261 q 297 -121 336 -154 l 297 -107 q 417 -56 358 -71 z "},"Ĥ":{"ha":967,"x_min":108,"x_max":857,"o":"m 275 1085 q 461 1229 371 1149 l 499 1229 q 685 1085 585 1153 l 651 1011 l 633 1011 l 590 1036 q 481 1099 539 1063 q 371 1036 422 1063 l 328 1011 l 310 1011 l 275 1085 m 856 0 l 665 0 l 676 267 l 675 371 l 471 374 l 292 369 l 290 283 l 299 0 l 108 0 l 119 267 l 108 894 l 300 894 l 294 526 l 483 522 l 672 526 l 665 894 l 857 894 l 847 283 l 856 0 z "},"ĥ":{"ha":839,"x_min":101,"x_max":740,"o":"m 208 857 q 404 1053 288 929 l 444 1053 q 639 857 553 933 l 593 786 l 575 786 q 424 914 483 858 q 274 786 369 863 l 256 786 l 208 857 m 738 0 l 563 0 l 571 208 l 569 276 l 413 278 l 271 275 l 269 225 l 276 0 l 101 0 l 110 208 l 101 701 l 279 701 l 274 424 l 422 421 l 567 422 l 563 701 l 740 701 l 731 225 l 738 0 z "},"Ħ":{"ha":1011,"x_min":36,"x_max":975,"o":"m 867 283 l 874 0 l 685 0 l 696 267 l 694 371 l 490 374 l 310 369 l 308 283 l 317 0 l 126 0 l 138 267 l 131 660 l 44 660 l 36 669 l 43 768 l 129 768 l 126 894 l 318 894 l 317 768 l 688 768 l 685 894 l 876 894 l 875 768 l 967 768 l 975 757 l 968 660 l 872 660 l 867 283 m 314 660 l 313 526 l 503 522 l 692 526 l 689 660 l 314 660 z "},"ħ":{"ha":876,"x_min":40,"x_max":836,"o":"m 742 225 l 747 0 l 572 0 l 581 208 l 579 276 l 422 278 l 281 275 l 279 225 l 288 0 l 111 0 l 119 208 l 114 507 l 47 507 l 40 517 l 47 603 l 113 603 l 111 701 l 289 701 l 288 603 l 574 603 l 572 701 l 750 701 l 749 603 l 829 603 l 836 594 l 829 507 l 747 507 l 742 225 m 285 507 l 283 424 l 433 421 l 576 422 l 575 507 l 285 507 z "},"Ĩ":{"ha":410,"x_min":-10,"x_max":418,"o":"m 297 0 l 108 0 l 118 267 l 108 894 l 300 894 l 289 283 l 297 0 m 418 1149 l 331 1025 l 314 1019 q 213 1047 288 1024 q 136 1067 149 1067 q 106 1053 119 1067 q 78 1022 92 1040 q 60 997 65 1004 l 44 997 l -10 1051 l -10 1068 l 76 1189 l 93 1196 q 194 1168 119 1192 q 271 1149 258 1149 q 301 1162 288 1149 q 328 1193 315 1175 q 347 1218 342 1211 l 364 1218 l 418 1164 l 418 1149 z "},"ĩ":{"ha":388,"x_min":-17,"x_max":411,"o":"m 276 0 l 101 0 l 108 208 l 101 701 l 279 701 l 269 225 l 276 0 m 411 956 l 324 832 l 307 826 q 206 854 281 831 q 129 874 142 874 q 99 860 113 874 q 72 829 85 847 q 53 804 58 811 l 38 804 l -17 858 l -17 875 l 69 996 l 86 1003 q 188 975 113 999 q 264 956 251 956 q 294 969 281 956 q 322 1000 308 982 q 340 1025 335 1018 l 357 1025 l 411 971 l 411 956 z "},"Ī":{"ha":410,"x_min":36,"x_max":371,"o":"m 297 0 l 108 0 l 118 267 l 108 894 l 300 894 l 289 283 l 297 0 m 363 1050 l 49 1050 l 36 1063 l 46 1165 l 358 1165 l 371 1153 l 363 1050 z "},"ī":{"ha":388,"x_min":28,"x_max":363,"o":"m 276 0 l 101 0 l 108 208 l 101 701 l 279 701 l 269 225 l 276 0 m 354 857 l 40 857 l 28 869 l 38 972 l 350 972 l 363 960 l 354 857 z "},"Ĭ":{"ha":410,"x_min":-6,"x_max":413,"o":"m 297 0 l 108 0 l 118 267 l 108 894 l 300 894 l 289 283 l 297 0 m 413 1147 q 332 1039 386 1076 q 200 1001 278 1001 q 72 1039 125 1001 q -6 1147 18 1076 l 38 1207 l 64 1207 q 119 1150 82 1171 q 207 1129 157 1129 q 343 1207 306 1129 l 369 1207 l 413 1147 z "},"ĭ":{"ha":388,"x_min":-11,"x_max":407,"o":"m 276 0 l 101 0 l 108 208 l 101 701 l 279 701 l 269 225 l 276 0 m 407 965 q 333 839 386 886 q 193 792 279 792 q 59 840 110 792 q -11 965 8 889 l 32 1028 l 58 1028 q 199 922 92 922 q 338 1028 307 922 l 364 1028 l 407 965 z "},"Į":{"ha":410,"x_min":47,"x_max":300,"o":"m 204 0 q 149 -124 149 -81 q 196 -169 149 -169 q 271 -137 235 -169 l 282 -137 l 296 -221 q 171 -274 235 -274 q 81 -240 114 -274 q 47 -151 47 -206 q 60 -85 47 -118 q 108 0 74 -51 l 119 267 l 108 894 l 300 894 l 290 283 l 299 0 l 204 0 z "},"į":{"ha":388,"x_min":40,"x_max":289,"o":"m 289 -221 q 164 -274 228 -274 q 74 -240 107 -274 q 40 -151 40 -206 q 53 -85 40 -118 q 101 0 67 -51 l 110 208 l 101 701 l 279 701 l 269 225 l 276 0 l 197 0 q 142 -124 142 -81 q 189 -169 142 -169 q 264 -137 228 -169 l 275 -137 l 289 -221 z "},"İ":{"ha":410,"x_min":107,"x_max":300,"o":"m 208 1211 q 276 1186 251 1211 q 300 1117 300 1161 q 274 1042 300 1069 q 201 1014 247 1014 q 131 1039 156 1014 q 107 1110 107 1064 q 134 1183 107 1156 q 208 1211 161 1211 m 299 0 l 108 0 l 119 267 l 108 894 l 300 894 l 290 283 l 299 0 z "},"ı":{"ha":388,"x_min":101,"x_max":279,"o":"m 276 0 l 101 0 l 108 208 l 101 701 l 279 701 l 269 225 l 276 0 z "},"Ĳ":{"ha":875,"x_min":108,"x_max":768,"o":"m 297 0 l 108 0 l 118 267 l 108 894 l 300 894 l 289 283 l 297 0 m 761 168 q 735 33 761 89 q 649 -65 708 -22 q 488 -147 590 -108 l 431 -47 l 431 -31 q 552 58 517 14 q 588 171 588 101 l 588 276 l 579 756 l 432 751 l 418 765 l 428 894 l 768 894 l 758 294 l 761 168 z "},"ĳ":{"ha":826,"x_min":101,"x_max":717,"o":"m 276 0 l 101 0 l 108 208 l 101 701 l 279 701 l 269 225 l 276 0 m 711 133 q 663 -18 711 39 q 492 -122 615 -75 l 436 -35 l 436 -19 q 523 45 497 11 q 549 132 549 79 l 549 213 l 543 572 l 424 569 l 413 581 l 424 701 l 717 701 l 710 231 l 711 133 z "},"Ĵ":{"ha":465,"x_min":0,"x_max":410,"o":"m 224 1229 q 410 1085 310 1153 l 376 1011 l 358 1011 l 315 1036 q 206 1099 264 1063 q 96 1036 147 1063 l 53 1011 l 35 1011 l 0 1085 q 186 1229 96 1149 l 224 1229 m 347 294 l 350 168 q 324 33 350 89 q 240 -65 299 -22 q 78 -147 181 -108 l 21 -47 l 21 -31 q 142 58 107 14 q 176 171 176 101 l 176 276 l 169 756 l 21 751 l 8 765 l 17 894 l 358 894 l 347 294 z "},"ĵ":{"ha":438,"x_min":-35,"x_max":396,"o":"m 201 1053 q 396 857 310 933 l 350 786 l 332 786 q 181 914 240 858 q 31 786 126 863 l 13 786 l -35 857 q 161 1053 44 929 l 201 1053 m 322 231 l 324 133 q 276 -18 324 39 q 104 -122 228 -75 l 49 -35 l 49 -19 q 137 45 111 11 q 163 132 163 79 l 163 213 l 157 572 l 36 569 l 25 581 l 36 701 l 331 701 l 322 231 z "},"Ķ":{"ha":811,"x_min":107,"x_max":824,"o":"m 481 472 q 824 39 640 250 l 821 18 q 635 -14 736 -3 l 614 -3 q 292 460 414 268 l 289 283 l 297 0 l 107 0 l 118 267 l 107 894 l 299 894 l 292 479 l 542 808 l 593 894 l 797 894 l 481 472 m 463 -56 q 518 -161 518 -99 q 368 -378 518 -271 l 314 -331 l 313 -318 q 382 -196 382 -261 q 343 -121 382 -154 l 343 -107 q 463 -56 404 -71 z "},"ķ":{"ha":722,"x_min":101,"x_max":718,"o":"m 443 371 q 718 38 558 215 l 715 17 q 543 -12 618 -7 l 521 -3 q 272 349 383 179 l 269 225 l 276 0 l 101 0 l 110 208 l 101 701 l 279 701 l 272 385 l 464 631 l 507 701 l 699 703 l 443 371 m 394 -56 q 450 -161 450 -99 q 300 -378 450 -271 l 246 -331 l 244 -318 q 314 -196 314 -261 q 275 -121 314 -154 l 275 -107 q 394 -56 336 -71 z "},"ĸ":{"ha":722,"x_min":101,"x_max":719,"o":"m 444 371 q 719 38 571 201 l 715 17 q 543 -12 621 -7 l 521 -3 q 272 349 383 179 l 269 225 l 276 0 l 101 0 l 108 208 l 101 701 l 279 701 l 272 385 l 464 631 l 507 701 l 699 703 l 444 371 z "},"Ĺ":{"ha":601,"x_min":103,"x_max":599,"o":"m 586 0 l 103 0 l 113 267 l 103 894 l 294 894 l 283 283 l 288 156 l 588 156 l 599 140 l 586 0 m 501 1121 l 496 1104 q 197 996 368 1054 l 179 1001 l 149 1078 q 438 1235 317 1163 l 454 1231 l 501 1121 z "},"ĺ":{"ha":539,"x_min":96,"x_max":519,"o":"m 508 0 l 96 0 l 104 208 l 96 701 l 274 701 l 264 225 l 267 143 l 510 143 l 519 131 l 508 0 m 444 960 l 442 942 q 396 914 411 922 q 171 778 222 807 l 153 779 l 108 849 q 360 1061 269 978 l 378 1060 l 444 960 z "},"Ļ":{"ha":601,"x_min":103,"x_max":599,"o":"m 586 0 l 103 0 l 114 267 l 103 894 l 294 894 l 285 283 l 289 156 l 588 156 l 599 140 l 586 0 m 372 -56 q 428 -161 428 -99 q 278 -378 428 -271 l 224 -331 l 222 -318 q 292 -196 292 -261 q 253 -121 292 -154 l 253 -107 q 372 -56 314 -71 z "},"ļ":{"ha":539,"x_min":96,"x_max":518,"o":"m 507 0 l 96 0 l 104 208 l 96 701 l 274 701 l 264 225 l 267 143 l 508 143 l 518 131 l 507 0 m 313 -56 q 368 -161 368 -99 q 218 -378 368 -271 l 164 -331 l 163 -318 q 232 -196 232 -261 q 193 -121 232 -154 l 193 -107 q 313 -56 254 -71 z "},"Ľ":{"ha":649,"x_min":103,"x_max":601,"o":"m 599 140 l 586 0 l 103 0 l 114 267 l 103 894 l 294 894 l 285 283 l 289 156 l 588 156 l 599 140 m 458 813 l 590 821 l 601 808 l 556 531 l 475 518 l 461 529 l 458 813 z "},"ľ":{"ha":585,"x_min":96,"x_max":553,"o":"m 518 131 l 507 0 l 96 0 l 104 208 l 96 701 l 274 701 l 264 225 l 267 143 l 508 143 l 518 131 m 411 669 l 542 678 l 553 665 l 508 388 l 426 375 l 414 386 l 411 669 z "},"Ŀ":{"ha":632,"x_min":103,"x_max":603,"o":"m 586 0 l 103 0 l 113 267 l 103 894 l 294 894 l 283 283 l 288 156 l 588 156 l 599 140 l 586 0 m 511 639 q 578 614 554 639 q 603 544 603 589 q 576 469 603 497 q 504 442 550 442 q 434 467 458 442 q 410 538 410 492 q 437 611 410 583 q 511 639 464 639 z "},"ŀ":{"ha":583,"x_min":96,"x_max":544,"o":"m 518 131 l 507 0 l 96 0 l 104 208 l 96 701 l 274 701 l 264 225 l 267 143 l 508 143 l 518 131 m 446 333 q 376 358 400 333 q 351 429 351 383 q 378 503 351 475 q 453 531 406 531 q 520 506 496 531 q 544 436 544 481 q 518 361 544 389 q 446 333 492 333 z "},"Ł":{"ha":624,"x_min":0,"x_max":622,"o":"m 610 0 l 125 0 l 136 267 l 135 344 l 51 301 l 33 310 l 0 419 l 132 488 l 125 894 l 318 894 l 313 581 l 454 653 l 472 644 l 506 536 l 310 435 l 307 283 l 311 156 l 611 156 l 622 140 l 610 0 z "},"ł":{"ha":567,"x_min":10,"x_max":540,"o":"m 528 0 l 117 0 l 125 208 l 124 267 l 53 235 l 38 244 l 10 342 l 122 392 l 117 701 l 294 701 l 290 465 l 403 515 l 417 507 l 446 410 l 288 339 l 285 225 l 288 143 l 529 143 l 540 131 l 528 0 z "},"Ń":{"ha":965,"x_min":108,"x_max":858,"o":"m 854 0 l 651 0 l 288 606 l 275 606 l 274 308 l 281 0 l 108 0 l 118 264 l 110 894 l 313 894 l 676 289 l 689 289 l 683 886 l 858 897 l 847 276 l 854 0 m 688 1121 l 682 1104 q 383 996 554 1054 l 365 1001 l 335 1078 q 624 1235 503 1163 l 640 1231 l 688 1121 z "},"ń":{"ha":839,"x_min":101,"x_max":739,"o":"m 736 0 l 546 0 l 265 435 l 256 435 l 254 246 l 260 0 l 101 0 l 108 206 l 101 701 l 290 701 l 571 267 l 583 267 l 578 694 l 739 706 l 729 222 l 736 0 m 619 960 l 617 942 q 571 914 586 922 q 346 778 397 807 l 328 779 l 283 849 q 535 1061 444 978 l 553 1060 l 619 960 z "},"Ņ":{"ha":965,"x_min":108,"x_max":860,"o":"m 854 0 l 651 0 l 288 606 l 275 606 l 274 308 l 282 0 l 108 0 l 119 264 l 110 894 l 313 894 l 676 289 l 689 289 l 683 886 l 860 897 l 847 276 l 854 0 m 528 -56 q 583 -161 583 -99 q 433 -378 583 -271 l 379 -331 l 378 -318 q 447 -196 447 -261 q 408 -121 447 -154 l 408 -107 q 528 -56 469 -71 z "},"ņ":{"ha":839,"x_min":101,"x_max":739,"o":"m 736 0 l 546 0 l 265 435 l 256 435 l 254 246 l 260 0 l 101 0 l 110 206 l 103 701 l 290 701 l 572 267 l 583 267 l 579 694 l 739 706 l 731 222 l 736 0 m 464 -56 q 519 -161 519 -99 q 369 -378 519 -271 l 315 -331 l 314 -318 q 383 -196 383 -261 q 344 -121 383 -154 l 344 -107 q 464 -56 406 -71 z "},"Ň":{"ha":965,"x_min":108,"x_max":858,"o":"m 854 0 l 651 0 l 288 606 l 275 606 l 274 308 l 281 0 l 108 0 l 118 264 l 110 894 l 313 894 l 676 289 l 689 289 l 683 886 l 858 897 l 847 276 l 854 0 m 688 1142 q 501 997 592 1078 l 464 997 q 278 1142 378 1074 l 311 1215 l 329 1215 l 372 1190 q 482 1128 424 1164 q 592 1190 540 1164 l 635 1215 l 653 1215 l 688 1142 z "},"ň":{"ha":839,"x_min":101,"x_max":739,"o":"m 736 0 l 546 0 l 265 435 l 256 435 l 254 246 l 260 0 l 101 0 l 108 206 l 101 701 l 290 701 l 571 267 l 583 267 l 578 694 l 739 706 l 729 222 l 736 0 m 633 979 q 438 783 554 907 l 397 783 q 203 979 289 903 l 249 1050 l 267 1050 q 418 922 358 978 q 568 1050 472 974 l 586 1050 l 633 979 z "},"Ŋ":{"ha":965,"x_min":108,"x_max":858,"o":"m 851 78 q 826 -56 851 0 q 741 -155 800 -111 q 579 -237 682 -199 l 522 -137 l 522 -119 q 663 1 632 -64 l 288 606 l 275 606 l 274 308 l 281 0 l 108 0 l 118 264 l 110 894 l 313 894 l 676 301 l 689 301 l 683 886 l 858 897 l 847 276 l 851 78 z "},"ŋ":{"ha":839,"x_min":101,"x_max":739,"o":"m 733 57 q 691 -87 733 -32 q 539 -187 649 -142 l 482 -114 l 482 -99 q 564 -6 550 -57 l 265 435 l 254 435 l 254 246 l 260 0 l 101 0 l 110 206 l 101 701 l 290 701 l 571 286 l 583 286 l 578 694 l 739 706 l 729 222 l 733 57 z "},"Ō":{"ha":893,"x_min":39,"x_max":856,"o":"m 463 907 q 753 792 651 907 q 856 467 856 678 q 745 111 856 236 q 432 -14 635 -14 q 141 103 243 -14 q 39 436 39 221 q 149 785 39 663 q 463 907 260 907 m 446 754 q 285 685 335 754 q 235 461 235 617 q 284 208 235 283 q 447 132 333 132 q 608 201 558 132 q 658 429 658 271 q 609 680 658 606 q 446 754 560 754 m 644 1050 l 256 1050 l 243 1063 l 253 1165 l 642 1165 l 653 1153 l 644 1050 z "},"ō":{"ha":778,"x_min":46,"x_max":733,"o":"m 403 713 q 647 622 561 713 q 733 367 733 532 q 640 87 733 186 q 375 -12 546 -12 q 132 80 218 -12 q 46 340 46 172 q 139 615 46 518 q 403 713 232 713 m 388 571 q 265 524 301 571 q 228 364 228 478 q 244 220 228 272 q 295 146 260 168 q 390 124 331 124 q 515 169 478 124 q 551 331 551 215 q 535 474 551 422 q 483 549 518 526 q 388 571 449 571 m 588 857 l 199 857 l 186 869 l 196 972 l 585 972 l 596 960 l 588 857 z "},"Ŏ":{"ha":893,"x_min":39,"x_max":856,"o":"m 463 907 q 753 792 651 907 q 856 467 856 678 q 745 111 856 236 q 432 -14 635 -14 q 141 103 243 -14 q 39 436 39 221 q 149 785 39 663 q 463 907 260 907 m 446 754 q 285 685 335 754 q 235 461 235 617 q 284 208 235 283 q 447 132 333 132 q 608 201 558 132 q 658 429 658 271 q 609 680 658 606 q 446 754 560 754 m 657 1147 q 576 1039 631 1076 q 444 1001 522 1001 q 316 1039 369 1001 q 239 1147 263 1076 l 282 1207 l 308 1207 q 364 1150 326 1171 q 451 1129 401 1129 q 588 1207 550 1129 l 614 1207 l 657 1147 z "},"ŏ":{"ha":778,"x_min":46,"x_max":733,"o":"m 403 713 q 647 622 561 713 q 733 367 733 532 q 640 87 733 186 q 375 -12 546 -12 q 132 80 218 -12 q 46 340 46 172 q 139 615 46 518 q 403 713 232 713 m 388 571 q 265 524 301 571 q 228 364 228 478 q 244 220 228 272 q 295 146 260 168 q 390 124 331 124 q 515 169 478 124 q 551 331 551 215 q 535 474 551 422 q 483 549 518 526 q 388 571 449 571 m 601 965 q 527 839 581 886 q 388 792 474 792 q 253 840 304 792 q 183 965 203 889 l 226 1028 l 253 1028 q 393 922 286 922 q 532 1028 501 922 l 558 1028 l 601 965 z "},"Ő":{"ha":893,"x_min":39,"x_max":856,"o":"m 463 907 q 753 792 651 907 q 856 467 856 678 q 745 111 856 236 q 432 -14 635 -14 q 141 103 243 -14 q 39 436 39 221 q 149 785 39 663 q 463 907 260 907 m 446 754 q 285 685 335 754 q 235 461 235 617 q 284 208 235 283 q 447 132 333 132 q 608 201 558 132 q 658 429 658 271 q 609 680 658 606 q 446 754 560 754 m 283 1083 q 394 1226 372 1196 l 410 1229 l 494 1174 l 496 1158 q 324 997 419 1082 l 307 993 l 249 1040 l 283 1083 m 486 1068 q 610 1226 553 1150 l 624 1229 l 710 1174 l 711 1158 q 538 997 628 1076 l 522 993 l 464 1040 l 486 1068 z "},"ő":{"ha":778,"x_min":46,"x_max":733,"o":"m 403 713 q 647 622 561 713 q 733 367 733 532 q 640 87 733 186 q 375 -12 546 -12 q 132 80 218 -12 q 46 340 46 172 q 139 615 46 518 q 403 713 232 713 m 388 571 q 265 524 301 571 q 228 364 228 478 q 244 220 228 272 q 295 146 260 168 q 390 124 331 124 q 515 169 478 124 q 551 331 551 215 q 535 474 551 422 q 483 549 518 526 q 388 571 449 571 m 194 825 q 368 1064 290 949 l 382 1067 l 467 1006 l 468 992 q 268 782 392 906 l 251 778 l 194 825 m 407 825 q 579 1064 508 960 l 594 1067 l 679 1006 l 681 992 q 481 782 604 906 l 464 778 l 407 825 z "},"Œ":{"ha":1207,"x_min":39,"x_max":1185,"o":"m 489 911 q 631 903 542 911 q 744 894 708 894 l 1174 894 l 1185 879 l 1171 739 l 963 746 l 794 746 l 793 529 l 942 526 l 1093 531 l 1104 517 l 1090 376 l 929 381 l 789 379 l 789 281 l 790 150 l 946 147 l 1169 156 l 1181 140 l 1168 0 l 744 0 q 603 -8 693 1 q 461 -17 511 -17 q 149 103 260 -17 q 39 438 39 222 q 158 787 39 663 q 489 911 276 911 m 474 758 q 292 685 349 758 q 235 451 235 613 q 292 206 235 283 q 476 128 350 128 q 590 146 561 128 q 617 206 618 160 l 611 679 q 593 739 610 726 q 474 758 564 758 z "},"œ":{"ha":1039,"x_min":46,"x_max":1011,"o":"m 422 714 q 543 707 449 714 q 639 701 610 701 l 1001 701 l 1011 688 l 999 558 l 822 565 l 688 565 l 686 424 l 807 422 l 932 426 l 942 414 l 931 282 l 796 286 l 682 286 l 682 224 l 683 136 l 810 136 l 996 142 l 1006 131 l 993 0 l 639 0 q 522 -6 618 1 q 397 -12 456 -12 q 138 80 229 -12 q 46 342 46 172 q 145 616 46 518 q 422 714 244 714 m 407 571 q 269 522 311 571 q 228 356 228 472 q 270 176 228 231 q 411 122 313 122 q 501 138 479 122 q 521 189 521 149 l 515 504 q 503 553 515 546 q 407 571 476 571 z "},"Ŕ":{"ha":819,"x_min":108,"x_max":793,"o":"m 578 356 q 793 44 686 183 l 790 24 q 606 -14 700 -8 l 586 1 q 424 301 486 174 l 289 301 l 289 283 l 297 0 l 108 0 l 118 267 l 108 894 l 451 896 q 668 827 592 896 q 744 631 744 758 q 701 473 744 544 q 578 356 657 401 m 429 442 q 547 613 547 482 q 509 719 547 683 q 392 757 471 754 l 297 751 l 292 447 l 429 442 m 613 1153 l 610 1135 q 564 1107 579 1115 q 339 971 390 1000 l 321 972 l 276 1042 q 528 1254 438 1171 l 546 1253 l 613 1153 z "},"ŕ":{"ha":728,"x_min":101,"x_max":693,"o":"m 519 276 q 693 40 613 142 l 692 21 q 522 -11 604 -6 l 497 6 q 376 226 419 142 l 269 226 l 269 225 l 276 0 l 101 0 l 108 208 l 101 701 l 404 703 q 587 648 522 703 q 651 492 651 593 q 617 370 651 426 q 519 276 582 314 m 376 354 q 468 474 468 385 q 439 548 468 524 q 347 575 410 572 l 276 572 l 272 360 l 376 354 m 544 960 l 542 942 q 496 914 511 922 q 271 778 322 807 l 253 779 l 208 849 q 460 1061 369 978 l 478 1060 l 544 960 z "},"Ŗ":{"ha":819,"x_min":108,"x_max":792,"o":"m 576 356 q 792 44 700 164 l 789 24 q 606 -14 699 -8 l 585 1 q 422 301 481 186 l 290 301 l 290 283 l 299 0 l 108 0 l 119 267 l 108 894 l 451 896 q 668 827 592 896 q 744 631 744 758 q 700 473 744 544 q 576 356 656 401 m 429 442 q 547 613 547 482 q 509 719 547 683 q 392 757 471 754 l 297 751 l 293 447 l 429 442 m 458 -56 q 514 -161 514 -99 q 364 -378 514 -271 l 310 -331 l 308 -318 q 378 -196 378 -261 q 339 -121 378 -154 l 339 -107 q 458 -56 400 -71 z "},"ŗ":{"ha":728,"x_min":101,"x_max":694,"o":"m 519 276 q 694 40 606 149 l 692 21 q 524 -11 606 -6 l 497 6 q 376 226 407 167 l 269 226 l 269 225 l 276 0 l 101 0 l 110 208 l 101 701 l 404 703 q 588 648 524 703 q 653 492 653 593 q 618 370 653 426 q 519 276 583 314 m 378 354 q 468 474 468 385 q 439 548 468 524 q 347 575 410 572 l 276 572 l 272 360 l 378 354 m 390 -56 q 446 -161 446 -99 q 296 -378 446 -271 l 242 -331 l 240 -318 q 310 -196 310 -261 q 271 -121 310 -154 l 271 -107 q 390 -56 332 -71 z "},"Ř":{"ha":819,"x_min":108,"x_max":793,"o":"m 578 356 q 793 44 686 183 l 790 24 q 606 -14 700 -8 l 586 1 q 424 301 486 174 l 289 301 l 289 283 l 297 0 l 108 0 l 118 267 l 108 894 l 451 896 q 668 827 592 896 q 744 631 744 758 q 701 473 744 544 q 578 356 657 401 m 429 442 q 547 613 547 482 q 509 719 547 683 q 392 757 471 754 l 297 751 l 292 447 l 429 442 m 626 1172 q 431 976 547 1100 l 390 976 q 196 1172 282 1096 l 242 1243 l 260 1243 q 411 1115 351 1171 q 561 1243 465 1167 l 579 1243 l 626 1172 z "},"ř":{"ha":728,"x_min":101,"x_max":693,"o":"m 519 276 q 693 40 613 142 l 692 21 q 522 -11 604 -6 l 497 6 q 376 226 419 142 l 269 226 l 269 225 l 276 0 l 101 0 l 108 208 l 101 701 l 404 703 q 587 648 522 703 q 651 492 651 593 q 617 370 651 426 q 519 276 582 314 m 376 354 q 468 474 468 385 q 439 548 468 524 q 347 575 410 572 l 276 572 l 272 360 l 376 354 m 560 979 q 364 783 481 907 l 324 783 q 129 979 215 903 l 175 1050 l 193 1050 q 344 922 285 978 q 494 1050 399 974 l 513 1050 l 560 979 z "},"Ś":{"ha":692,"x_min":43,"x_max":644,"o":"m 396 906 q 622 860 510 906 l 592 697 l 564 686 q 466 739 517 719 q 374 758 415 758 q 285 728 318 758 q 251 660 251 699 q 288 592 251 619 q 404 526 325 564 q 528 462 481 492 q 610 383 576 432 q 644 264 644 335 q 603 124 644 188 q 485 24 561 61 q 308 -12 408 -12 q 43 44 176 -12 l 69 219 l 90 231 q 212 156 146 182 q 329 131 278 131 q 424 160 390 131 q 458 232 458 190 q 422 304 458 276 q 303 371 385 332 q 181 433 228 404 q 100 511 133 463 q 67 629 67 560 q 108 770 67 707 q 225 869 150 833 q 396 906 300 906 m 563 1153 l 560 1135 q 514 1107 529 1115 q 289 971 340 1000 l 271 972 l 226 1042 q 478 1254 388 1171 l 496 1253 l 563 1153 z "},"ś":{"ha":618,"x_min":53,"x_max":558,"o":"m 350 711 q 542 676 450 711 l 515 521 l 490 514 q 328 581 400 581 q 267 562 289 581 q 244 517 244 543 q 272 469 244 488 q 360 425 300 450 q 462 376 422 399 q 530 315 501 354 q 558 215 558 275 q 527 103 558 156 q 433 19 496 51 q 276 -12 369 -12 q 53 31 163 -12 l 76 194 l 94 207 q 197 140 140 165 q 299 115 254 115 q 362 135 338 115 q 386 183 386 154 q 358 233 386 214 q 269 275 329 251 q 167 324 207 301 q 99 388 128 347 q 71 488 71 428 q 105 601 71 550 q 202 682 139 653 q 350 711 265 711 m 521 960 l 518 942 q 472 914 488 922 q 247 778 299 807 l 229 779 l 185 849 q 436 1061 346 978 l 454 1060 l 521 960 z "},"Ŝ":{"ha":692,"x_min":43,"x_max":644,"o":"m 147 1050 q 343 1246 226 1122 l 383 1246 q 578 1050 492 1126 l 532 979 l 514 979 q 363 1107 422 1051 q 213 979 308 1056 l 194 979 l 147 1050 m 396 906 q 622 860 510 906 l 592 697 l 564 686 q 466 739 517 719 q 374 758 415 758 q 285 728 318 758 q 251 660 251 699 q 288 592 251 619 q 404 526 325 564 q 528 462 481 492 q 610 383 576 432 q 644 264 644 335 q 603 124 644 188 q 485 24 561 61 q 308 -12 408 -12 q 43 44 176 -12 l 69 219 l 90 231 q 212 156 146 182 q 329 131 278 131 q 424 160 390 131 q 458 232 458 190 q 422 304 458 276 q 303 371 385 332 q 181 433 228 404 q 100 511 133 463 q 67 629 67 560 q 108 770 67 707 q 225 869 150 833 q 396 906 300 906 z "},"ŝ":{"ha":618,"x_min":53,"x_max":558,"o":"m 106 857 q 301 1053 185 929 l 342 1053 q 536 857 450 933 l 490 786 l 472 786 q 321 914 381 858 q 171 786 267 863 l 153 786 l 106 857 m 350 711 q 543 676 451 711 l 517 521 l 490 514 q 328 581 400 581 q 267 562 289 581 q 244 517 244 543 q 272 469 244 488 q 360 425 300 450 q 462 376 422 399 q 530 315 501 354 q 558 215 558 275 q 528 103 558 156 q 434 19 497 51 q 278 -12 371 -12 q 53 31 164 -12 l 76 194 l 94 207 q 198 140 140 165 q 300 115 256 115 q 363 135 339 115 q 386 183 386 154 q 358 233 386 214 q 271 275 331 251 q 169 324 210 300 q 101 388 129 347 q 72 488 72 428 q 106 601 72 550 q 202 682 139 653 q 350 711 265 711 z "},"Ş":{"ha":692,"x_min":43,"x_max":644,"o":"m 644 264 q 572 86 644 161 q 376 -7 499 11 l 363 -67 l 410 -93 q 467 -175 467 -124 q 431 -250 467 -221 q 336 -279 394 -279 q 222 -240 274 -279 l 235 -162 l 243 -158 q 325 -200 285 -200 q 358 -171 358 -200 q 335 -143 358 -156 l 267 -104 l 288 -12 q 43 44 165 -8 l 69 219 l 90 231 q 212 156 146 182 q 329 131 278 131 q 424 160 390 131 q 458 232 458 190 q 422 304 458 276 q 303 371 385 332 q 181 433 228 404 q 100 511 133 463 q 67 629 67 560 q 108 770 67 707 q 225 869 150 833 q 396 906 300 906 q 622 860 510 906 l 592 697 l 564 686 q 466 739 517 719 q 374 758 415 758 q 285 728 318 758 q 251 660 251 699 q 288 592 251 619 q 404 526 325 564 q 528 462 481 492 q 610 383 576 432 q 644 264 644 335 z "},"ş":{"ha":618,"x_min":53,"x_max":558,"o":"m 558 215 q 499 66 558 131 q 325 -10 439 1 l 311 -67 l 358 -93 q 415 -175 415 -124 q 379 -250 415 -221 q 285 -279 343 -279 q 171 -240 222 -279 l 183 -162 l 192 -158 q 274 -200 233 -200 q 307 -171 307 -200 q 283 -143 307 -154 l 215 -104 l 236 -11 q 53 31 139 -4 l 76 194 l 94 207 q 198 140 140 165 q 300 115 256 115 q 363 135 339 115 q 386 183 386 154 q 358 233 386 214 q 271 275 331 251 q 169 324 210 300 q 101 388 129 347 q 72 488 72 428 q 106 601 72 550 q 202 682 139 653 q 350 711 265 711 q 543 676 451 711 l 517 521 l 490 514 q 328 581 400 581 q 267 562 289 581 q 244 517 244 543 q 272 469 244 488 q 360 425 300 450 q 462 376 422 399 q 530 315 501 354 q 558 215 558 275 z "},"Š":{"ha":692,"x_min":43,"x_max":644,"o":"m 396 906 q 622 860 510 906 l 592 697 l 564 686 q 466 739 517 719 q 374 758 415 758 q 285 728 318 758 q 251 660 251 699 q 288 592 251 619 q 404 526 325 564 q 528 462 481 492 q 610 383 576 432 q 644 264 644 335 q 603 124 644 188 q 485 24 561 61 q 308 -12 408 -12 q 43 44 176 -12 l 69 219 l 90 231 q 212 156 146 182 q 329 131 278 131 q 424 160 390 131 q 458 232 458 190 q 422 304 458 276 q 303 371 385 332 q 181 433 228 404 q 100 511 133 463 q 67 629 67 560 q 108 770 67 707 q 225 869 150 833 q 396 906 300 906 m 578 1172 q 382 976 499 1100 l 342 976 q 147 1172 233 1096 l 193 1243 l 211 1243 q 363 1115 303 1171 q 513 1243 417 1167 l 531 1243 l 578 1172 z "},"š":{"ha":618,"x_min":53,"x_max":558,"o":"m 350 711 q 542 676 450 711 l 515 521 l 490 514 q 328 581 400 581 q 267 562 289 581 q 244 517 244 543 q 272 469 244 488 q 360 425 300 450 q 462 376 422 399 q 530 315 501 354 q 558 215 558 275 q 527 103 558 156 q 433 19 496 51 q 276 -12 369 -12 q 53 31 163 -12 l 76 194 l 94 207 q 197 140 140 165 q 299 115 254 115 q 362 135 338 115 q 386 183 386 154 q 358 233 386 214 q 269 275 329 251 q 167 324 207 301 q 99 388 128 347 q 71 488 71 428 q 105 601 71 550 q 202 682 139 653 q 350 711 265 711 m 536 979 q 340 783 457 907 l 300 783 q 106 979 192 903 l 151 1050 l 169 1050 q 321 922 261 978 q 471 1050 375 974 l 489 1050 l 536 979 z "},"Ţ":{"ha":699,"x_min":21,"x_max":679,"o":"m 668 739 l 499 747 l 446 747 l 438 283 l 446 0 l 392 0 l 375 -67 l 422 -93 q 479 -175 479 -124 q 443 -250 479 -221 q 349 -279 407 -279 q 235 -240 286 -279 l 247 -162 l 256 -158 q 338 -200 297 -200 q 371 -171 371 -200 q 347 -143 371 -156 l 279 -104 l 303 0 l 257 0 l 268 267 l 260 747 l 203 747 l 33 739 l 21 754 l 33 894 l 668 894 l 679 879 l 668 739 z "},"ţ":{"ha":619,"x_min":26,"x_max":583,"o":"m 386 225 l 393 0 l 350 0 l 335 -67 l 382 -93 q 438 -175 438 -126 q 402 -249 438 -219 q 310 -278 367 -278 q 197 -239 249 -278 l 210 -162 l 219 -160 q 299 -201 261 -201 q 332 -172 332 -201 q 310 -142 332 -156 l 242 -103 l 265 0 l 219 0 l 226 208 l 222 564 l 182 564 l 39 554 l 26 568 l 38 701 l 574 701 l 583 688 l 574 554 l 431 564 l 392 564 l 386 225 z "},"Ť":{"ha":699,"x_min":21,"x_max":679,"o":"m 668 739 l 500 747 l 444 747 l 438 283 l 446 0 l 257 0 l 267 267 l 260 747 l 204 747 l 33 739 l 21 754 l 33 894 l 668 894 l 679 879 l 668 739 m 569 1172 q 374 976 490 1100 l 333 976 q 139 1172 225 1096 l 185 1243 l 203 1243 q 354 1115 294 1171 q 504 1243 408 1167 l 522 1243 l 569 1172 z "},"ť":{"ha":619,"x_min":32,"x_max":588,"o":"m 578 554 l 436 564 l 396 564 l 392 225 l 397 0 l 224 0 l 231 208 l 228 564 l 188 564 l 43 554 l 32 568 l 42 701 l 578 701 l 588 688 l 578 554 m 514 979 q 318 783 435 907 l 278 783 q 83 979 169 903 l 129 1050 l 147 1050 q 299 922 239 978 q 449 1050 353 974 l 467 1050 l 514 979 z "},"Ŧ":{"ha":699,"x_min":21,"x_max":679,"o":"m 440 474 l 576 474 l 589 461 l 581 371 l 439 371 l 438 283 l 446 0 l 257 0 l 268 267 l 267 371 l 142 371 l 129 383 l 136 474 l 265 474 l 260 747 l 203 747 l 33 739 l 21 754 l 33 894 l 668 894 l 679 879 l 668 739 l 499 747 l 446 747 l 440 474 z "},"ŧ":{"ha":619,"x_min":32,"x_max":588,"o":"m 393 354 l 511 354 l 524 342 l 517 251 l 392 251 l 392 225 l 399 0 l 224 0 l 232 208 l 232 251 l 117 251 l 104 264 l 111 354 l 231 354 l 228 564 l 188 564 l 43 554 l 32 568 l 43 701 l 579 701 l 588 688 l 578 554 l 436 564 l 397 564 l 393 354 z "},"Ũ":{"ha":886,"x_min":86,"x_max":804,"o":"m 796 322 q 703 75 797 163 q 432 -12 608 -12 q 174 72 263 -12 q 89 315 85 157 l 90 444 l 86 894 l 275 894 l 265 340 q 443 142 264 142 q 622 331 624 142 l 613 894 l 804 894 l 797 440 l 796 322 m 688 1153 l 590 1029 l 572 1022 q 457 1049 535 1026 q 358 1071 374 1071 q 328 1058 343 1071 q 297 1028 314 1046 q 272 1000 281 1010 l 256 1000 l 200 1054 l 200 1069 l 299 1193 l 315 1200 q 433 1172 349 1196 q 529 1151 511 1151 q 562 1165 546 1151 q 594 1197 578 1179 q 617 1222 611 1215 l 633 1222 l 688 1168 l 688 1153 z "},"ũ":{"ha":774,"x_min":83,"x_max":693,"o":"m 686 238 q 608 53 688 118 q 379 -11 528 -11 q 158 53 235 -11 q 86 238 82 118 l 88 347 l 83 701 l 258 701 l 250 263 q 386 131 249 131 q 524 263 525 131 l 517 701 l 693 701 l 688 344 l 686 238 m 631 960 l 533 836 l 515 829 q 400 856 478 833 q 301 878 317 878 q 272 865 286 878 q 240 835 257 853 q 215 807 224 817 l 199 807 l 143 861 l 143 876 l 242 1000 l 258 1007 q 376 979 292 1003 q 472 958 454 958 q 505 972 489 958 q 538 1004 521 986 q 560 1029 554 1022 l 576 1029 l 631 975 l 631 960 z "},"Ū":{"ha":886,"x_min":86,"x_max":804,"o":"m 796 322 q 703 75 797 163 q 432 -12 608 -12 q 174 72 263 -12 q 89 315 85 157 l 90 444 l 86 894 l 275 894 l 265 340 q 443 142 264 142 q 622 331 624 142 l 613 894 l 804 894 l 797 440 l 796 322 m 642 1050 l 253 1050 l 240 1063 l 250 1165 l 639 1165 l 650 1153 l 642 1050 z "},"ū":{"ha":774,"x_min":83,"x_max":693,"o":"m 686 238 q 608 53 688 118 q 379 -11 528 -11 q 158 53 235 -11 q 86 238 82 118 l 88 347 l 83 701 l 258 701 l 250 263 q 386 131 249 131 q 524 263 525 131 l 517 701 l 693 701 l 688 344 l 686 238 m 585 857 l 196 857 l 183 869 l 193 972 l 582 972 l 593 960 l 585 857 z "},"Ŭ":{"ha":886,"x_min":86,"x_max":804,"o":"m 796 322 q 703 75 797 163 q 432 -12 608 -12 q 174 72 263 -12 q 89 315 85 157 l 90 444 l 86 894 l 275 894 l 265 340 q 443 142 264 142 q 622 331 624 142 l 613 894 l 804 894 l 797 440 l 796 322 m 656 1158 q 581 1032 635 1079 q 442 985 528 985 q 308 1033 358 985 q 238 1158 257 1082 l 281 1221 l 307 1221 q 447 1115 340 1115 q 586 1221 556 1115 l 613 1221 l 656 1158 z "},"ŭ":{"ha":774,"x_min":83,"x_max":693,"o":"m 686 238 q 608 53 688 118 q 379 -11 528 -11 q 158 53 235 -11 q 86 238 82 118 l 88 347 l 83 701 l 258 701 l 250 263 q 386 131 249 131 q 524 263 525 131 l 517 701 l 693 701 l 688 344 l 686 238 m 599 965 q 524 839 578 886 q 385 792 471 792 q 251 840 301 792 q 181 965 200 889 l 224 1028 l 250 1028 q 390 922 283 922 q 529 1028 499 922 l 556 1028 l 599 965 z "},"Ů":{"ha":886,"x_min":86,"x_max":804,"o":"m 796 322 q 703 75 797 163 q 432 -12 608 -12 q 174 72 263 -12 q 89 315 85 157 l 90 444 l 86 894 l 275 894 l 265 340 q 443 142 264 142 q 622 331 624 142 l 613 894 l 804 894 l 797 440 l 796 322 m 447 1254 q 544 1221 511 1254 q 578 1128 578 1188 q 541 1027 578 1063 q 440 992 504 992 q 345 1025 379 992 q 311 1122 311 1058 q 347 1219 311 1185 q 447 1254 382 1254 m 443 1175 q 388 1124 388 1175 q 444 1068 388 1068 q 501 1121 501 1068 q 443 1175 501 1175 z "},"ů":{"ha":774,"x_min":83,"x_max":693,"o":"m 686 238 q 608 53 688 118 q 379 -11 528 -11 q 158 53 235 -11 q 86 238 82 118 l 88 347 l 83 701 l 258 701 l 250 263 q 386 131 249 131 q 524 263 525 131 l 517 701 l 693 701 l 688 344 l 686 238 m 390 1061 q 488 1028 454 1061 q 521 935 521 994 q 484 834 521 869 q 383 799 447 799 q 288 832 322 799 q 254 929 254 865 q 290 1026 254 992 q 390 1061 325 1061 m 386 982 q 331 931 331 982 q 388 875 331 875 q 444 928 444 875 q 386 982 444 982 z "},"Ű":{"ha":886,"x_min":86,"x_max":804,"o":"m 796 322 q 703 75 797 163 q 432 -12 608 -12 q 174 72 263 -12 q 89 315 85 157 l 90 444 l 86 894 l 275 894 l 265 340 q 443 142 264 142 q 622 331 624 142 l 613 894 l 804 894 l 797 440 l 796 322 m 281 1083 q 392 1226 369 1196 l 407 1229 l 492 1174 l 493 1158 q 321 997 417 1082 l 304 993 l 246 1040 l 281 1083 m 483 1068 q 607 1226 550 1150 l 621 1229 l 707 1174 l 708 1158 q 535 997 625 1076 l 519 993 l 461 1040 l 483 1068 z "},"ű":{"ha":774,"x_min":83,"x_max":693,"o":"m 686 238 q 608 53 688 118 q 379 -11 528 -11 q 158 53 235 -11 q 86 238 82 118 l 88 347 l 83 701 l 258 701 l 250 263 q 386 131 249 131 q 524 263 525 131 l 517 701 l 693 701 l 688 344 l 686 238 m 192 825 q 365 1064 288 949 l 379 1067 l 464 1006 l 465 992 q 265 782 389 906 l 249 778 l 192 825 m 404 825 q 576 1064 506 960 l 592 1067 l 676 1006 l 678 992 q 478 782 601 906 l 461 778 l 404 825 z "},"Ų":{"ha":886,"x_min":86,"x_max":803,"o":"m 796 322 q 688 61 799 149 l 613 -58 q 589 -125 589 -93 q 639 -171 589 -171 q 732 -129 686 -171 l 743 -129 l 760 -204 q 614 -274 682 -274 q 523 -240 557 -274 q 489 -151 489 -206 q 526 -44 489 -97 l 557 1 q 432 -12 503 -12 q 174 72 263 -12 q 88 315 85 157 l 90 444 l 86 894 l 275 894 l 265 340 q 443 142 264 142 q 621 331 622 142 l 613 894 l 803 894 l 797 440 l 796 322 z "},"ų":{"ha":774,"x_min":83,"x_max":693,"o":"m 507 -60 q 483 -126 483 -94 q 533 -172 483 -172 q 626 -131 581 -172 l 638 -131 l 654 -206 q 508 -275 576 -275 q 417 -241 451 -275 q 383 -153 383 -207 q 421 -44 383 -100 l 446 -7 q 378 -11 414 -11 q 158 53 233 -11 q 85 238 82 118 l 88 347 l 83 701 l 258 701 l 249 263 q 386 131 247 131 q 522 263 524 131 l 515 701 l 693 701 l 686 344 l 686 238 q 560 24 688 86 l 507 -60 z "},"Ŵ":{"ha":1254,"x_min":26,"x_max":1247,"o":"m 413 1085 q 599 1229 508 1149 l 636 1229 q 822 1085 722 1153 l 789 1011 l 771 1011 l 728 1036 q 618 1099 676 1063 q 508 1036 560 1063 l 465 1011 l 447 1011 l 413 1085 m 756 0 l 622 428 l 610 428 l 475 0 l 276 0 l 26 894 l 210 894 l 225 785 l 382 194 l 394 194 l 546 676 l 483 894 l 675 894 l 696 765 l 857 194 l 869 194 l 1050 772 l 1072 894 l 1247 894 l 953 0 l 756 0 z "},"ŵ":{"ha":1075,"x_min":38,"x_max":1058,"o":"m 297 857 q 493 1053 376 929 l 533 1053 q 728 857 642 933 l 682 786 l 664 786 q 513 914 572 858 q 363 786 458 863 l 344 786 l 297 857 m 632 0 l 535 300 l 524 300 l 424 0 l 235 0 l 38 701 l 211 701 l 224 604 l 338 182 l 349 182 l 463 535 l 415 701 l 596 701 l 613 588 l 729 182 l 742 182 l 874 594 l 893 701 l 1058 701 l 821 0 l 632 0 z "},"Ŷ":{"ha":775,"x_min":6,"x_max":778,"o":"m 179 1085 q 365 1229 275 1149 l 403 1229 q 589 1085 489 1153 l 556 1011 l 538 1011 l 494 1036 q 385 1099 443 1063 q 275 1036 326 1063 l 232 1011 l 214 1011 l 179 1085 m 471 0 l 282 0 l 293 249 l 292 299 l 6 894 l 204 894 l 225 832 l 376 492 l 389 492 l 558 826 l 583 894 l 778 894 l 465 304 l 463 249 l 471 0 z "},"ŷ":{"ha":690,"x_min":17,"x_max":679,"o":"m 138 857 q 333 1053 217 929 l 374 1053 q 568 857 482 933 l 522 786 l 504 786 q 353 914 413 858 q 203 786 299 863 l 185 786 l 138 857 m 422 0 l 247 0 l 256 190 l 254 224 l 17 701 l 201 701 l 218 650 l 335 404 l 346 404 l 475 643 l 499 701 l 679 701 l 415 228 l 414 190 l 422 0 z "},"Ÿ":{"ha":775,"x_min":6,"x_max":778,"o":"m 261 1017 q 199 1040 221 1017 q 176 1104 176 1063 q 201 1172 176 1147 q 268 1197 225 1197 q 331 1174 308 1197 q 353 1111 353 1151 q 328 1042 353 1067 q 261 1017 304 1017 m 503 1017 q 440 1040 463 1017 q 418 1104 418 1063 q 442 1172 418 1147 q 510 1197 467 1197 q 572 1174 550 1197 q 594 1111 594 1151 q 570 1042 594 1067 q 503 1017 546 1017 m 471 0 l 282 0 l 293 249 l 292 299 l 6 894 l 204 894 l 225 832 l 376 492 l 389 492 l 558 826 l 583 894 l 778 894 l 465 304 l 463 249 l 471 0 z "},"Ź":{"ha":760,"x_min":42,"x_max":722,"o":"m 264 143 l 564 143 l 715 156 l 722 144 l 707 -4 l 506 0 l 149 0 l 42 -6 l 42 129 l 490 750 l 207 750 l 56 738 l 47 747 l 61 896 l 622 894 l 708 896 l 708 758 l 264 143 m 590 1121 l 585 1104 q 286 996 457 1054 l 268 1001 l 238 1078 q 526 1235 406 1163 l 543 1231 l 590 1121 z "},"ź":{"ha":671,"x_min":50,"x_max":626,"o":"m 257 132 l 488 132 l 619 143 l 626 135 l 613 -4 l 432 0 l 144 0 l 50 -4 l 50 119 l 410 568 l 186 568 l 58 556 l 51 565 l 65 704 l 219 701 l 538 701 l 614 703 l 614 575 l 257 132 m 518 960 l 515 942 q 469 914 485 922 q 244 778 296 807 l 226 779 l 182 849 q 433 1061 343 978 l 451 1060 l 518 960 z "},"Ż":{"ha":760,"x_min":42,"x_max":722,"o":"m 389 1211 q 456 1186 432 1211 q 481 1117 481 1161 q 454 1042 481 1069 q 382 1014 428 1014 q 312 1039 336 1014 q 288 1110 288 1064 q 315 1183 288 1156 q 389 1211 342 1211 m 264 143 l 565 143 l 717 156 l 722 144 l 708 -4 l 506 0 l 149 0 l 42 -6 l 42 129 l 490 750 l 207 750 l 56 738 l 47 747 l 63 896 l 624 894 l 710 896 l 710 758 l 264 143 z "},"ż":{"ha":671,"x_min":50,"x_max":626,"o":"m 322 1018 q 390 993 365 1018 q 414 924 414 968 q 388 849 414 876 q 315 821 361 821 q 245 846 269 821 q 221 917 221 871 q 248 990 221 963 q 322 1018 275 1018 m 257 132 l 488 132 l 621 143 l 626 135 l 613 -4 l 432 0 l 146 0 l 50 -4 l 50 119 l 410 568 l 186 568 l 58 556 l 51 565 l 65 704 l 219 701 l 539 701 l 614 703 l 614 575 l 257 132 z "},"Ž":{"ha":760,"x_min":42,"x_max":722,"o":"m 264 143 l 564 143 l 715 156 l 722 144 l 707 -4 l 506 0 l 149 0 l 42 -6 l 42 129 l 490 750 l 207 750 l 56 738 l 47 747 l 61 896 l 622 894 l 708 896 l 708 758 l 264 143 m 590 1142 q 404 997 494 1078 l 367 997 q 181 1142 281 1074 l 214 1215 l 232 1215 l 275 1190 q 385 1128 326 1164 q 494 1190 443 1164 l 538 1215 l 556 1215 l 590 1142 z "},"ž":{"ha":671,"x_min":50,"x_max":626,"o":"m 257 132 l 488 132 l 619 143 l 626 135 l 613 -4 l 432 0 l 144 0 l 50 -4 l 50 119 l 410 568 l 186 568 l 58 556 l 51 565 l 65 704 l 219 701 l 538 701 l 614 703 l 614 575 l 257 132 m 533 979 q 338 783 454 907 l 297 783 q 103 979 189 903 l 149 1050 l 167 1050 q 318 922 258 978 q 468 1050 372 974 l 486 1050 l 533 979 z "},"ƒ":{"ha":439,"x_min":-24,"x_max":565,"o":"m 454 861 q 565 849 506 861 l 539 726 l 526 719 q 425 743 469 743 q 321 649 336 743 l 306 535 l 447 535 l 451 524 l 442 432 l 292 432 l 267 257 l 246 76 q 192 -86 235 -24 q 51 -208 149 -149 l -24 -135 l -22 -121 q 57 -38 32 -81 q 92 72 82 4 l 113 242 l 135 432 l 43 432 l 38 442 l 47 535 l 146 535 l 157 621 q 249 799 171 738 q 454 861 326 861 z "},"Ơ":{"ha":903,"x_min":39,"x_max":918,"o":"m 824 1078 q 890 1040 863 1078 q 918 947 918 1003 q 872 834 918 879 q 756 779 826 789 q 856 461 856 665 q 744 113 856 239 q 435 -14 633 -14 q 142 103 244 -14 q 39 435 39 221 q 89 690 39 583 q 231 851 139 796 q 447 907 322 907 q 613 879 519 907 q 690 863 663 863 q 751 883 728 863 q 774 936 774 903 q 731 1028 774 988 l 735 1042 q 824 1078 781 1078 m 444 754 q 284 685 333 754 q 235 454 235 615 q 285 207 235 282 q 449 132 335 132 q 609 203 560 132 q 658 436 658 274 q 608 681 658 607 q 444 754 558 754 z "},"ơ":{"ha":786,"x_min":46,"x_max":790,"o":"m 625 817 q 706 849 668 849 q 765 818 740 849 q 790 740 790 788 q 754 648 790 686 q 660 597 718 610 q 733 363 733 510 q 640 88 733 188 q 379 -12 546 -12 q 132 80 218 -12 q 46 340 46 172 q 138 615 46 517 q 392 713 231 713 q 529 693 449 713 q 594 682 579 682 q 657 733 657 682 q 621 804 657 772 l 625 817 m 393 119 q 515 168 479 119 q 551 340 551 217 q 513 520 551 468 q 386 572 475 572 q 263 524 299 572 q 228 353 228 475 q 266 172 228 225 q 393 119 304 119 z "},"Ư":{"ha":900,"x_min":86,"x_max":931,"o":"m 931 979 q 896 884 931 926 q 801 819 861 842 l 797 440 l 796 322 q 703 75 797 163 q 432 -12 608 -12 q 174 72 263 -12 q 88 315 85 157 l 90 444 l 86 894 l 275 894 l 265 340 q 443 142 264 142 q 621 331 622 142 l 613 894 l 701 894 q 788 963 788 894 q 743 1046 788 1007 l 747 1060 q 836 1096 796 1096 q 902 1062 874 1096 q 931 979 931 1028 z "},"ư":{"ha":786,"x_min":79,"x_max":801,"o":"m 682 238 q 603 53 683 118 q 375 -11 522 -11 q 154 53 231 -11 q 82 238 78 118 l 83 347 l 79 701 l 254 701 l 246 263 q 278 163 244 194 q 382 131 311 131 q 518 263 519 131 l 511 701 l 599 701 q 667 754 667 701 q 632 819 667 793 l 636 832 q 719 865 682 865 q 777 838 753 865 q 801 771 801 810 q 771 689 801 725 q 688 633 740 653 l 682 344 l 682 238 z "},"Ǎ":{"ha":833,"x_min":11,"x_max":811,"o":"m 619 0 l 597 117 l 574 200 l 399 204 l 244 200 l 221 126 l 197 0 l 11 0 l 314 894 l 538 894 l 811 0 l 619 0 m 428 718 l 415 718 l 293 346 l 413 343 l 533 346 l 428 718 m 625 1142 q 439 997 529 1078 l 401 997 q 215 1142 315 1074 l 249 1215 l 267 1215 l 310 1190 q 419 1128 361 1164 q 529 1190 478 1164 l 572 1215 l 590 1215 l 625 1142 z "},"ǎ":{"ha":735,"x_min":24,"x_max":700,"o":"m 524 0 l 504 101 l 492 142 l 350 143 l 225 140 l 215 111 l 194 0 l 24 0 l 269 701 l 476 701 l 700 0 l 524 0 m 375 542 l 364 542 l 271 274 l 361 272 l 454 274 l 375 542 m 592 979 q 396 783 513 907 l 356 783 q 161 979 247 903 l 207 1050 l 225 1050 q 376 922 317 978 q 526 1050 431 974 l 544 1050 l 592 979 z "},"Ǐ":{"ha":410,"x_min":0,"x_max":410,"o":"m 297 0 l 108 0 l 118 267 l 108 894 l 300 894 l 289 283 l 297 0 m 410 1142 q 224 997 314 1078 l 186 997 q 0 1142 100 1074 l 33 1215 l 51 1215 l 94 1190 q 204 1128 146 1164 q 314 1190 263 1164 l 357 1215 l 375 1215 l 410 1142 z "},"ǐ":{"ha":388,"x_min":-18,"x_max":413,"o":"m 276 0 l 101 0 l 108 208 l 101 701 l 279 701 l 269 225 l 276 0 m 413 979 q 217 783 333 907 l 176 783 q -18 979 68 903 l 28 1050 l 46 1050 q 197 922 138 978 q 347 1050 251 974 l 365 1050 l 413 979 z "},"Ǒ":{"ha":893,"x_min":39,"x_max":856,"o":"m 463 907 q 753 792 651 907 q 856 467 856 678 q 745 111 856 236 q 432 -14 635 -14 q 141 103 243 -14 q 39 436 39 221 q 149 785 39 663 q 463 907 260 907 m 446 754 q 285 685 335 754 q 235 461 235 617 q 284 208 235 283 q 447 132 333 132 q 608 201 558 132 q 658 429 658 271 q 609 680 658 606 q 446 754 560 754 m 654 1142 q 468 997 558 1078 l 431 997 q 244 1142 344 1074 l 278 1215 l 296 1215 l 339 1190 q 449 1128 390 1164 q 558 1190 507 1164 l 601 1215 l 619 1215 l 654 1142 z "},"ǒ":{"ha":778,"x_min":46,"x_max":733,"o":"m 403 713 q 647 622 561 713 q 733 367 733 532 q 640 87 733 186 q 375 -12 546 -12 q 132 80 218 -12 q 46 340 46 172 q 139 615 46 518 q 403 713 232 713 m 388 571 q 265 524 301 571 q 228 364 228 478 q 244 220 228 272 q 295 146 260 168 q 390 124 331 124 q 515 169 478 124 q 551 331 551 215 q 535 474 551 422 q 483 549 518 526 q 388 571 449 571 m 607 979 q 411 783 528 907 l 371 783 q 176 979 263 903 l 222 1050 l 240 1050 q 392 922 332 978 q 542 1050 446 974 l 560 1050 l 607 979 z "},"Ǔ":{"ha":886,"x_min":86,"x_max":804,"o":"m 796 322 q 703 75 797 163 q 432 -12 608 -12 q 174 72 263 -12 q 89 315 85 157 l 90 444 l 86 894 l 275 894 l 265 340 q 443 142 264 142 q 622 331 624 142 l 613 894 l 804 894 l 797 440 l 796 322 m 661 1172 q 465 976 582 1100 l 425 976 q 231 1172 317 1096 l 276 1243 l 294 1243 q 446 1115 386 1171 q 596 1243 500 1167 l 614 1243 l 661 1172 z "},"ǔ":{"ha":774,"x_min":83,"x_max":693,"o":"m 686 238 q 608 53 688 118 q 379 -11 528 -11 q 158 53 235 -11 q 86 238 82 118 l 88 347 l 83 701 l 258 701 l 250 263 q 386 131 249 131 q 524 263 525 131 l 517 701 l 693 701 l 688 344 l 686 238 m 604 979 q 408 783 525 907 l 368 783 q 174 979 260 903 l 219 1050 l 238 1050 q 389 922 329 978 q 539 1050 443 974 l 557 1050 l 604 979 z "},"Ǖ":{"ha":886,"x_min":86,"x_max":804,"o":"m 796 322 q 703 75 797 163 q 432 -12 608 -12 q 174 72 263 -12 q 89 315 85 157 l 90 444 l 86 894 l 275 894 l 265 340 q 443 142 264 142 q 622 331 624 142 l 613 894 l 804 894 l 797 440 l 796 322 m 642 1244 l 254 1244 l 240 1258 l 250 1363 l 639 1363 l 651 1349 l 642 1244 m 328 1165 q 388 1144 367 1165 q 408 1082 408 1122 q 385 1017 408 1042 q 321 992 361 992 q 239 1076 239 992 q 263 1141 239 1117 q 328 1165 286 1165 m 569 1165 q 629 1144 608 1165 q 650 1082 650 1122 q 626 1017 650 1042 q 563 992 603 992 q 481 1076 481 992 q 504 1141 481 1117 q 569 1165 528 1165 z "},"ǖ":{"ha":774,"x_min":83,"x_max":693,"o":"m 686 238 q 608 53 688 118 q 379 -11 528 -11 q 158 53 235 -11 q 86 238 82 118 l 88 347 l 83 701 l 258 701 l 250 263 q 386 131 249 131 q 524 263 525 131 l 517 701 l 693 701 l 688 344 l 686 238 m 585 1051 l 197 1051 l 183 1065 l 193 1169 l 582 1169 l 594 1156 l 585 1051 m 271 972 q 331 951 310 972 q 351 889 351 929 q 328 824 351 849 q 264 799 304 799 q 182 883 182 799 q 206 948 182 924 q 271 972 229 972 m 513 972 q 572 951 551 972 q 593 889 593 929 q 569 824 593 849 q 506 799 546 799 q 424 883 424 799 q 447 948 424 924 q 513 972 471 972 z "},"Ǘ":{"ha":886,"x_min":86,"x_max":804,"o":"m 796 322 q 703 75 797 163 q 432 -12 608 -12 q 174 72 263 -12 q 89 315 85 157 l 90 444 l 86 894 l 275 894 l 265 340 q 443 142 264 142 q 622 331 624 142 l 613 894 l 804 894 l 797 440 l 796 322 m 618 1300 l 608 1283 q 296 1231 407 1246 l 279 1238 l 264 1319 q 574 1424 442 1372 l 590 1415 l 618 1300 m 328 1165 q 388 1144 367 1165 q 408 1082 408 1122 q 385 1017 408 1042 q 321 992 361 992 q 239 1076 239 992 q 263 1141 239 1117 q 328 1165 286 1165 m 569 1165 q 629 1144 608 1165 q 650 1082 650 1122 q 626 1017 650 1042 q 563 992 603 992 q 481 1076 481 992 q 504 1141 481 1117 q 569 1165 528 1165 z "},"ǘ":{"ha":774,"x_min":83,"x_max":693,"o":"m 686 238 q 608 53 688 118 q 379 -11 528 -11 q 158 53 235 -11 q 86 238 82 118 l 88 347 l 83 701 l 258 701 l 250 263 q 386 131 249 131 q 524 263 525 131 l 517 701 l 693 701 l 688 344 l 686 238 m 561 1107 l 551 1090 q 239 1038 350 1053 l 222 1044 l 207 1126 q 517 1231 385 1179 l 533 1222 l 561 1107 m 271 972 q 331 951 310 972 q 351 889 351 929 q 328 824 351 849 q 264 799 304 799 q 182 883 182 799 q 206 948 182 924 q 271 972 229 972 m 513 972 q 572 951 551 972 q 593 889 593 929 q 569 824 593 849 q 506 799 546 799 q 424 883 424 799 q 447 948 424 924 q 513 972 471 972 z "},"Ǚ":{"ha":886,"x_min":86,"x_max":804,"o":"m 796 322 q 703 75 797 163 q 432 -12 608 -12 q 174 72 263 -12 q 89 315 85 157 l 90 444 l 86 894 l 275 894 l 265 340 q 443 142 264 142 q 622 331 624 142 l 613 894 l 804 894 l 797 440 l 796 322 m 650 1329 q 464 1185 556 1265 l 426 1185 q 240 1329 339 1258 l 274 1403 l 292 1403 l 444 1315 l 597 1403 l 615 1403 l 650 1329 m 328 1165 q 388 1144 367 1165 q 408 1082 408 1122 q 385 1017 408 1042 q 321 992 361 992 q 239 1076 239 992 q 263 1141 239 1117 q 328 1165 286 1165 m 569 1165 q 629 1144 608 1165 q 650 1082 650 1122 q 626 1017 650 1042 q 563 992 603 992 q 481 1076 481 992 q 504 1141 481 1117 q 569 1165 528 1165 z "},"ǚ":{"ha":774,"x_min":83,"x_max":693,"o":"m 686 238 q 608 53 688 118 q 379 -11 528 -11 q 158 53 235 -11 q 86 238 82 118 l 88 347 l 83 701 l 258 701 l 250 263 q 386 131 249 131 q 524 263 525 131 l 517 701 l 693 701 l 688 344 l 686 238 m 593 1136 q 407 992 499 1072 l 369 992 q 183 1136 282 1065 l 217 1210 l 235 1210 l 388 1122 l 540 1210 l 558 1210 l 593 1136 m 271 972 q 331 951 310 972 q 351 889 351 929 q 328 824 351 849 q 264 799 304 799 q 182 883 182 799 q 206 948 182 924 q 271 972 229 972 m 513 972 q 572 951 551 972 q 593 889 593 929 q 569 824 593 849 q 506 799 546 799 q 424 883 424 799 q 447 948 424 924 q 513 972 471 972 z "},"Ǜ":{"ha":886,"x_min":86,"x_max":804,"o":"m 796 322 q 703 75 797 163 q 432 -12 608 -12 q 174 72 263 -12 q 89 315 85 157 l 90 444 l 86 894 l 275 894 l 265 340 q 443 142 264 142 q 622 331 624 142 l 613 894 l 804 894 l 797 440 l 796 322 m 307 1424 q 618 1319 442 1371 l 601 1238 l 585 1231 q 272 1283 469 1246 l 264 1300 l 290 1415 l 307 1424 m 328 1165 q 388 1144 367 1165 q 408 1082 408 1122 q 385 1017 408 1042 q 321 992 361 992 q 239 1076 239 992 q 263 1141 239 1117 q 328 1165 286 1165 m 569 1165 q 629 1144 608 1165 q 650 1082 650 1122 q 626 1017 650 1042 q 563 992 603 992 q 481 1076 481 992 q 504 1141 481 1117 q 569 1165 528 1165 z "},"ǜ":{"ha":774,"x_min":83,"x_max":693,"o":"m 686 238 q 608 53 688 118 q 379 -11 528 -11 q 158 53 235 -11 q 86 238 82 118 l 88 347 l 83 701 l 258 701 l 250 263 q 386 131 249 131 q 524 263 525 131 l 517 701 l 693 701 l 688 344 l 686 238 m 250 1231 q 561 1126 385 1178 l 544 1044 l 528 1038 q 215 1090 413 1053 l 207 1107 l 233 1222 l 250 1231 m 271 972 q 331 951 310 972 q 351 889 351 929 q 328 824 351 849 q 264 799 304 799 q 182 883 182 799 q 206 948 182 924 q 271 972 229 972 m 513 972 q 572 951 551 972 q 593 889 593 929 q 569 824 593 849 q 506 799 546 799 q 424 883 424 799 q 447 948 424 924 q 513 972 471 972 z "},"Ǫ":{"ha":893,"x_min":39,"x_max":854,"o":"m 564 -53 q 542 -118 542 -90 q 594 -169 542 -169 q 685 -129 636 -169 l 694 -129 l 710 -206 q 567 -274 633 -274 q 475 -239 510 -274 q 440 -151 440 -204 q 481 -37 440 -92 l 500 -10 q 432 -14 467 -14 q 141 103 243 -14 q 39 436 39 221 q 149 785 39 663 q 463 907 260 907 q 752 792 650 907 q 854 467 854 678 q 792 180 854 294 q 611 18 729 65 l 564 -53 m 235 461 q 284 208 235 283 q 447 132 333 132 q 608 201 557 132 q 658 429 658 271 q 608 680 658 606 q 444 754 558 754 q 284 685 333 754 q 235 461 235 617 z "},"ǫ":{"ha":778,"x_min":46,"x_max":733,"o":"m 472 -58 q 449 -125 449 -93 q 499 -171 449 -171 q 592 -129 546 -171 l 603 -129 l 619 -204 q 474 -274 542 -274 q 383 -240 417 -274 q 349 -151 349 -206 q 386 -44 349 -97 l 408 -11 l 375 -12 q 132 80 218 -12 q 46 340 46 172 q 139 615 46 518 q 404 713 232 713 q 647 622 561 713 q 733 367 733 532 q 677 135 733 226 q 514 8 621 43 l 472 -58 m 228 364 q 244 220 228 272 q 295 146 260 168 q 390 124 331 124 q 515 169 478 124 q 551 331 551 215 q 535 474 551 422 q 483 549 518 526 q 388 571 449 571 q 265 524 301 571 q 228 364 228 478 z "},"Ǻ":{"ha":833,"x_min":11,"x_max":811,"o":"m 282 1188 q 590 1299 444 1240 l 607 1292 l 636 1176 l 628 1161 q 317 1099 476 1126 l 300 1107 l 282 1188 m 619 0 l 597 114 l 574 196 l 399 200 l 244 196 l 221 124 l 197 0 l 11 0 l 317 863 q 293 947 293 894 q 328 1044 293 1010 q 429 1079 364 1079 q 526 1046 493 1079 q 560 953 560 1013 q 532 863 560 897 l 811 0 l 619 0 m 425 1000 q 369 949 369 1000 q 426 893 369 893 q 483 946 483 893 q 425 1000 483 1000 m 428 701 l 415 701 l 293 339 l 411 336 l 532 339 l 428 701 z "},"ǻ":{"ha":735,"x_min":24,"x_max":700,"o":"m 231 1168 q 539 1279 393 1221 l 556 1272 l 585 1157 l 576 1142 q 265 1079 425 1107 l 249 1088 l 231 1168 m 242 929 q 277 1026 242 992 q 378 1061 313 1061 q 475 1028 442 1061 q 508 935 508 994 q 472 834 508 869 q 371 799 435 799 q 276 832 310 799 q 242 929 242 865 m 432 928 q 374 982 432 982 q 318 931 318 982 q 375 875 318 875 q 432 928 432 875 m 524 0 l 506 101 l 493 142 l 350 143 l 225 140 l 215 111 l 194 0 l 24 0 l 269 701 l 476 701 l 700 0 l 524 0 m 375 542 l 364 542 l 271 274 l 361 272 l 454 274 l 375 542 z "},"Ǽ":{"ha":1142,"x_min":-25,"x_max":1131,"o":"m 1118 0 l 578 0 l 571 117 l 547 307 l 253 229 l 204 126 l 163 0 l -25 0 l 406 894 l 1017 894 l 1029 879 l 1014 739 l 799 746 l 676 746 l 707 494 l 976 564 l 990 553 l 1006 421 l 724 354 l 749 147 l 890 147 l 1119 156 l 1131 140 l 1118 0 m 497 718 l 485 718 l 333 397 l 531 449 l 497 718 m 904 1121 l 899 1104 q 600 996 771 1054 l 582 1001 l 551 1078 q 840 1235 719 1163 l 857 1231 l 904 1121 z "},"ǽ":{"ha":988,"x_min":-6,"x_max":967,"o":"m 956 0 l 500 0 l 494 96 l 476 226 l 217 158 l 189 106 l 156 0 l -6 0 l 354 701 l 874 701 l 883 688 l 869 565 l 689 574 l 589 574 l 613 389 l 839 447 l 850 438 l 863 318 l 628 265 l 646 129 l 765 129 l 957 136 l 967 124 l 956 0 m 433 550 l 422 550 l 296 308 l 460 350 l 433 550 m 782 960 l 779 942 q 733 914 749 922 q 508 778 560 807 l 490 779 l 446 849 q 697 1061 607 978 l 715 1060 l 782 960 z "},"Ǿ":{"ha":893,"x_min":39,"x_max":854,"o":"m 711 831 q 854 467 854 719 q 744 111 854 236 q 432 -14 635 -14 q 314 0 365 -14 l 235 -165 l 117 -122 l 108 -106 l 188 60 q 39 436 39 175 q 149 785 39 663 q 463 907 260 907 q 585 892 526 907 l 656 1039 l 771 997 l 782 978 l 711 831 m 447 132 q 608 201 557 132 q 658 429 658 271 q 608 680 658 606 q 444 754 558 754 q 284 685 333 754 q 235 461 235 617 q 284 208 235 283 q 447 132 333 132 m 653 1122 l 647 1106 q 349 997 519 1056 l 331 1003 l 300 1079 q 589 1236 468 1164 l 606 1232 l 653 1122 z "},"ǿ":{"ha":778,"x_min":46,"x_max":733,"o":"m 631 639 q 733 367 733 549 q 640 86 733 185 q 375 -12 547 -12 q 278 -1 325 -12 l 189 -158 l 83 -108 l 79 -92 l 160 54 q 46 340 46 147 q 139 615 46 518 q 404 713 232 713 q 515 699 468 713 l 590 831 l 690 779 l 700 763 l 631 639 m 390 124 q 515 169 478 124 q 551 331 551 215 q 535 474 551 422 q 483 549 518 526 q 388 571 449 571 q 265 524 301 571 q 228 364 228 478 q 244 220 228 272 q 295 146 260 168 q 390 124 331 124 m 574 963 l 571 944 q 525 917 540 925 q 300 781 351 810 l 282 782 l 238 851 q 489 1064 399 981 l 507 1063 l 574 963 z "},"Ș":{"ha":692,"x_min":43,"x_max":644,"o":"m 396 906 q 622 860 510 906 l 592 697 l 564 686 q 466 739 517 719 q 374 758 415 758 q 285 728 318 758 q 251 660 251 699 q 288 592 251 619 q 404 526 325 564 q 528 462 481 492 q 610 383 576 432 q 644 264 644 335 q 603 124 644 188 q 485 24 561 61 q 308 -12 408 -12 q 43 44 176 -12 l 69 219 l 90 231 q 212 156 146 182 q 329 131 278 131 q 424 160 390 131 q 458 232 458 190 q 422 304 458 276 q 303 371 385 332 q 181 433 228 404 q 100 511 133 463 q 67 629 67 560 q 108 770 67 707 q 225 869 150 833 q 396 906 300 906 m 382 -56 q 438 -161 438 -99 q 288 -378 438 -271 l 233 -331 l 232 -318 q 301 -196 301 -261 q 263 -121 301 -154 l 263 -107 q 382 -56 324 -71 z "},"ș":{"ha":618,"x_min":53,"x_max":558,"o":"m 350 711 q 543 676 451 711 l 517 521 l 490 514 q 328 581 400 581 q 267 562 289 581 q 244 517 244 543 q 272 469 244 488 q 360 425 300 450 q 462 376 422 399 q 530 315 501 354 q 558 215 558 275 q 528 103 558 156 q 434 19 497 51 q 278 -12 371 -12 q 53 31 164 -12 l 76 194 l 94 207 q 198 140 140 165 q 300 115 256 115 q 363 135 339 115 q 386 183 386 154 q 358 233 386 214 q 271 275 331 251 q 169 324 210 300 q 101 388 129 347 q 72 488 72 428 q 106 601 72 550 q 202 682 139 653 q 350 711 265 711 m 331 -56 q 386 -161 386 -99 q 236 -378 386 -271 l 182 -331 l 181 -318 q 250 -196 250 -261 q 211 -121 250 -154 l 211 -107 q 331 -56 272 -71 z "},"Ț":{"ha":699,"x_min":21,"x_max":679,"o":"m 668 739 l 499 747 l 446 747 l 438 283 l 446 0 l 257 0 l 268 267 l 260 747 l 203 747 l 33 739 l 21 754 l 33 894 l 668 894 l 679 879 l 668 739 m 394 -56 q 450 -161 450 -99 q 300 -378 450 -271 l 246 -331 l 244 -318 q 314 -196 314 -261 q 275 -121 314 -154 l 275 -107 q 394 -56 336 -71 z "},"ț":{"ha":619,"x_min":32,"x_max":588,"o":"m 578 554 l 436 564 l 397 564 l 392 225 l 399 0 l 224 0 l 232 208 l 228 564 l 188 564 l 43 554 l 32 568 l 43 701 l 579 701 l 588 688 l 578 554 m 356 -56 q 411 -161 411 -99 q 261 -378 411 -271 l 207 -331 l 206 -318 q 275 -196 275 -261 q 236 -121 275 -154 l 236 -107 q 356 -56 297 -71 z "},"ȷ":{"ha":438,"x_min":25,"x_max":329,"o":"m 324 133 q 276 -18 324 39 q 104 -122 228 -75 l 49 -35 l 49 -19 q 135 45 110 11 q 161 132 161 79 l 161 213 l 156 572 l 36 569 l 25 581 l 36 701 l 329 701 l 322 231 l 324 133 z "},"ˆ":{"ha":540,"x_min":53,"x_max":483,"o":"m 53 800 q 249 996 132 872 l 289 996 q 483 800 397 876 l 438 729 l 419 729 q 268 857 328 801 q 118 729 214 806 l 100 729 l 53 800 z "},"ˇ":{"ha":540,"x_min":54,"x_max":485,"o":"m 485 924 q 289 728 406 851 l 249 728 q 54 924 140 847 l 100 994 l 118 994 q 269 867 210 922 q 419 994 324 918 l 438 994 l 485 924 z "},"ˉ":{"ha":540,"x_min":65,"x_max":475,"o":"m 467 801 l 78 801 l 65 814 l 75 917 l 464 917 l 475 904 l 467 801 z "},"˘":{"ha":540,"x_min":61,"x_max":479,"o":"m 479 910 q 405 783 458 831 q 265 736 351 736 q 131 785 182 736 q 61 910 81 833 l 104 972 l 131 972 q 271 867 164 867 q 410 972 379 867 l 436 972 l 479 910 z "},"˙":{"ha":354,"x_min":79,"x_max":272,"o":"m 181 961 q 248 936 224 961 q 272 867 272 911 q 246 792 272 819 q 174 764 219 764 q 103 789 128 764 q 79 860 79 814 q 106 933 79 906 q 181 961 133 961 z "},"˚":{"ha":540,"x_min":136,"x_max":403,"o":"m 272 1006 q 369 972 336 1006 q 403 879 403 939 q 366 778 403 814 q 265 743 329 743 q 170 776 204 743 q 136 874 136 810 q 172 971 136 936 q 272 1006 207 1006 m 268 926 q 213 875 213 926 q 269 819 213 819 q 326 872 326 819 q 268 926 326 926 z "},"˛":{"ha":540,"x_min":133,"x_max":403,"o":"m 257 -53 q 235 -118 235 -90 q 288 -169 235 -169 q 378 -129 329 -169 l 388 -129 l 403 -206 q 260 -274 326 -274 q 168 -239 203 -274 q 133 -151 133 -204 q 174 -37 133 -92 l 263 88 l 350 88 l 257 -53 z "},"˜":{"ha":540,"x_min":25,"x_max":513,"o":"m 513 904 l 415 781 l 397 774 q 282 800 360 778 q 183 822 199 822 q 153 810 168 822 q 122 779 139 797 q 97 751 106 761 l 81 751 l 25 806 l 25 821 l 124 944 l 140 951 q 258 924 174 947 q 354 903 336 903 q 387 917 371 903 q 419 949 403 931 q 442 974 436 967 l 458 974 l 513 919 l 513 904 z "},"˝":{"ha":540,"x_min":26,"x_max":513,"o":"m 26 769 q 200 1008 122 893 l 214 1011 l 299 950 l 300 936 q 100 726 224 850 l 83 722 l 26 769 m 239 769 q 411 1008 340 904 l 426 1011 l 511 950 l 513 936 q 313 726 436 850 l 296 722 l 239 769 z "},"̃":{"ha":0,"x_min":25,"x_max":513,"o":"m 513 904 l 414 779 l 397 774 q 281 801 367 778 q 183 822 203 822 q 153 810 168 822 q 122 779 139 797 q 97 751 106 761 l 81 751 l 25 806 l 25 821 l 124 944 l 142 951 q 257 925 154 950 q 354 903 331 903 q 387 917 371 903 q 419 949 403 931 q 442 974 436 967 l 458 974 l 513 919 l 513 904 z "},"̣":{"ha":0,"x_min":69,"x_max":263,"o":"m 171 -121 q 238 -146 214 -121 q 263 -215 263 -171 q 236 -290 263 -262 q 164 -318 210 -318 q 94 -293 118 -318 q 69 -222 69 -268 q 97 -149 69 -176 q 171 -121 124 -121 z "},"̦":{"ha":0,"x_min":47,"x_max":254,"o":"m 197 -62 q 253 -169 253 -107 q 103 -384 253 -277 l 49 -337 l 48 -325 q 117 -203 117 -267 q 77 -128 117 -160 l 78 -114 q 197 -62 135 -80 z "},"Δ":{"ha":833,"x_min":11,"x_max":811,"o":"m 11 0 l 313 894 l 538 894 l 811 0 l 11 0 m 226 144 l 590 144 l 428 718 l 415 718 l 226 144 z "},"Ω":{"ha":1047,"x_min":35,"x_max":1011,"o":"m 532 907 q 753 857 663 907 q 888 721 843 807 q 933 525 933 635 q 893 326 933 424 q 774 147 853 229 l 776 142 l 885 142 l 1001 153 l 1011 142 l 990 -8 l 831 0 l 635 0 l 582 -3 l 574 4 l 574 124 q 736 493 736 268 q 683 686 736 617 q 521 756 629 756 q 361 688 413 756 q 310 500 310 621 q 471 124 310 272 l 471 4 l 463 -3 l 410 0 l 182 0 l 44 -6 l 35 7 l 56 151 l 183 140 l 268 142 l 271 147 q 113 510 113 306 q 161 713 113 622 q 304 855 210 803 q 532 907 399 907 z "},"μ":{"ha":725,"x_min":79,"x_max":701,"o":"m 682 24 q 583 -10 635 -10 q 508 13 536 -10 q 464 86 481 35 l 453 86 q 304 -8 381 13 q 253 -3 274 -8 l 253 -257 l 79 -257 l 85 267 l 79 633 l 253 649 l 253 239 q 339 140 253 140 q 457 194 394 140 l 457 633 l 632 649 l 621 174 q 653 122 619 122 q 688 132 665 122 l 701 122 l 682 24 z "},"π":{"ha":933,"x_min":-4,"x_max":876,"o":"m 740 174 q 772 122 740 122 q 817 133 792 122 l 831 124 l 811 24 q 711 -10 749 -10 q 613 27 650 -10 q 575 149 575 64 l 575 554 l 393 554 l 393 285 l 399 -125 l 219 -125 l 225 267 l 221 554 l 197 554 q 158 538 178 554 q 104 483 139 521 l 71 447 l 51 447 l -4 517 l -4 536 l 122 690 l 147 701 l 701 701 l 865 704 l 876 689 l 864 551 l 746 553 l 740 174 z "},"Ẁ":{"ha":1254,"x_min":26,"x_max":1247,"o":"m 508 1236 q 797 1079 629 1164 l 767 1003 l 749 997 q 450 1106 578 1056 l 444 1122 l 492 1232 l 508 1236 m 756 0 l 622 428 l 610 428 l 475 0 l 276 0 l 26 894 l 210 894 l 225 785 l 382 194 l 394 194 l 546 676 l 483 894 l 675 894 l 696 765 l 857 194 l 869 194 l 1050 772 l 1072 894 l 1247 894 l 953 0 l 756 0 z "},"ẁ":{"ha":1075,"x_min":38,"x_max":1058,"o":"m 429 1061 q 681 849 519 978 l 636 779 l 618 778 q 393 914 567 807 q 347 942 378 922 l 344 960 l 411 1060 l 429 1061 m 632 0 l 535 300 l 524 300 l 424 0 l 235 0 l 38 701 l 211 701 l 224 604 l 338 182 l 349 182 l 463 535 l 415 701 l 596 701 l 613 588 l 729 182 l 742 182 l 874 594 l 893 701 l 1058 701 l 821 0 l 632 0 z "},"Ẃ":{"ha":1254,"x_min":26,"x_max":1247,"o":"m 756 0 l 622 428 l 610 428 l 475 0 l 276 0 l 26 894 l 211 894 l 225 785 l 383 194 l 396 194 l 547 676 l 483 894 l 675 894 l 696 765 l 857 194 l 869 194 l 1050 772 l 1072 894 l 1247 894 l 953 0 l 756 0 m 825 1121 l 819 1104 q 521 996 692 1054 l 503 1001 l 472 1078 q 761 1235 640 1163 l 778 1231 l 825 1121 z "},"ẃ":{"ha":1075,"x_min":38,"x_max":1058,"o":"m 633 0 l 535 300 l 524 300 l 424 0 l 236 0 l 38 701 l 213 701 l 224 604 l 338 182 l 349 182 l 463 535 l 417 701 l 597 701 l 613 588 l 731 182 l 742 182 l 874 594 l 893 701 l 1058 701 l 822 0 l 633 0 m 714 960 l 711 942 q 665 914 681 922 q 440 778 492 807 l 422 779 l 378 849 q 629 1061 539 978 l 647 1060 l 714 960 z "},"Ẅ":{"ha":1254,"x_min":26,"x_max":1247,"o":"m 503 1197 q 565 1174 543 1197 q 588 1111 588 1151 q 563 1042 588 1067 q 496 1017 539 1017 q 433 1040 456 1017 q 411 1104 411 1063 q 435 1172 411 1147 q 503 1197 460 1197 m 744 1197 q 807 1174 785 1197 q 829 1111 829 1151 q 805 1042 829 1067 q 738 1017 781 1017 q 675 1040 697 1017 q 653 1104 653 1063 q 677 1172 653 1147 q 744 1197 701 1197 m 756 0 l 622 428 l 610 428 l 475 0 l 276 0 l 26 894 l 210 894 l 225 785 l 382 194 l 394 194 l 546 676 l 483 894 l 675 894 l 696 765 l 857 194 l 869 194 l 1050 772 l 1072 894 l 1247 894 l 953 0 l 756 0 z "},"ẅ":{"ha":1075,"x_min":38,"x_max":1058,"o":"m 397 1004 q 460 981 438 1004 q 482 918 482 958 q 458 849 482 874 q 390 824 433 824 q 328 847 350 824 q 306 911 306 869 q 330 979 306 954 q 397 1004 354 1004 m 639 1004 q 701 981 679 1004 q 724 918 724 958 q 699 849 724 874 q 632 824 675 824 q 569 847 592 824 q 547 911 547 869 q 572 979 547 954 q 639 1004 596 1004 m 632 0 l 535 300 l 524 300 l 424 0 l 235 0 l 38 701 l 211 701 l 224 604 l 338 182 l 349 182 l 463 535 l 415 701 l 596 701 l 613 588 l 729 182 l 742 182 l 874 594 l 893 701 l 1058 701 l 821 0 l 632 0 z "},"ẞ":{"ha":928,"x_min":83,"x_max":901,"o":"m 471 906 q 647 883 563 906 q 832 813 732 860 l 840 785 l 640 524 q 791 441 738 476 q 873 359 844 406 q 901 247 901 313 q 860 106 901 164 q 751 17 819 47 q 597 -12 682 -12 q 353 44 467 -12 l 379 219 l 400 231 q 508 158 451 185 q 610 132 564 132 q 686 158 657 132 q 715 226 715 185 q 650 325 715 279 q 421 436 585 371 l 414 465 l 607 722 q 458 754 529 754 q 269 576 269 754 l 265 285 l 274 0 l 83 0 l 94 264 l 89 576 q 188 816 88 726 q 471 906 289 906 z "},"Ạ":{"ha":833,"x_min":11,"x_max":811,"o":"m 619 0 l 597 117 l 574 200 l 399 204 l 244 200 l 221 126 l 197 0 l 11 0 l 313 894 l 538 894 l 811 0 l 619 0 m 428 718 l 415 718 l 293 346 l 411 343 l 533 346 l 428 718 m 415 -72 q 483 -97 458 -72 q 507 -167 507 -122 q 481 -242 507 -214 q 408 -269 454 -269 q 338 -244 363 -269 q 314 -174 314 -219 q 341 -100 314 -128 q 415 -72 368 -72 z "},"ạ":{"ha":735,"x_min":24,"x_max":700,"o":"m 524 0 l 506 101 l 493 142 l 350 143 l 225 140 l 215 111 l 194 0 l 24 0 l 269 701 l 476 701 l 700 0 l 524 0 m 375 542 l 364 542 l 271 274 l 361 272 l 454 274 l 375 542 m 367 -72 q 434 -97 410 -72 q 458 -167 458 -122 q 432 -242 458 -214 q 360 -269 406 -269 q 290 -244 314 -269 q 265 -174 265 -219 q 292 -100 265 -128 q 367 -72 319 -72 z "},"Ả":{"ha":833,"x_min":11,"x_max":811,"o":"m 619 0 l 597 117 l 574 200 l 399 204 l 244 200 l 221 126 l 197 0 l 11 0 l 314 894 l 538 894 l 811 0 l 619 0 m 428 718 l 415 718 l 293 346 l 413 343 l 533 346 l 428 718 m 406 1276 q 485 1249 453 1276 q 517 1178 517 1221 q 500 1125 517 1150 q 440 1063 483 1100 l 472 1008 l 404 969 l 346 1061 q 399 1113 379 1086 q 418 1160 418 1139 q 379 1190 418 1190 q 290 1156 333 1190 l 260 1206 q 406 1276 328 1276 z "},"ả":{"ha":735,"x_min":24,"x_max":700,"o":"m 524 0 l 504 101 l 492 142 l 350 143 l 225 140 l 215 111 l 194 0 l 24 0 l 269 701 l 476 701 l 700 0 l 524 0 m 375 542 l 364 542 l 271 274 l 361 272 l 454 274 l 375 542 m 364 1085 q 443 1057 411 1085 q 475 986 475 1029 q 458 933 475 958 q 399 871 442 908 l 431 817 l 363 778 l 304 869 q 357 921 338 894 q 376 968 376 947 q 338 999 376 999 q 249 964 292 999 l 218 1014 q 364 1085 286 1085 z "},"Ấ":{"ha":833,"x_min":11,"x_max":811,"o":"m 619 0 l 597 117 l 574 200 l 399 204 l 244 200 l 221 126 l 197 0 l 11 0 l 314 894 l 538 894 l 811 0 l 619 0 m 428 718 l 415 718 l 293 346 l 413 343 l 533 346 l 428 718 m 703 1328 l 571 1157 l 558 1157 l 496 1204 l 593 1376 l 607 1382 l 699 1342 l 703 1328 m 213 1057 q 399 1201 308 1121 l 436 1201 q 622 1057 522 1125 l 589 983 l 571 983 l 528 1008 q 418 1071 476 1035 q 308 1008 360 1035 l 265 983 l 247 983 l 213 1057 z "},"ấ":{"ha":735,"x_min":24,"x_max":700,"o":"m 524 0 l 504 101 l 492 142 l 350 143 l 225 140 l 215 111 l 194 0 l 24 0 l 269 701 l 476 701 l 700 0 l 524 0 m 375 542 l 364 542 l 271 274 l 361 272 l 454 274 l 375 542 m 660 1135 l 528 964 l 515 964 l 453 1011 l 550 1183 l 564 1189 l 656 1149 l 660 1135 m 169 864 q 356 1008 265 928 l 393 1008 q 579 864 479 932 l 546 790 l 528 790 l 485 815 q 375 878 433 842 q 265 815 317 842 l 222 790 l 204 790 l 169 864 z "},"Ầ":{"ha":833,"x_min":11,"x_max":811,"o":"m 619 0 l 597 117 l 574 200 l 399 204 l 244 200 l 221 126 l 197 0 l 11 0 l 314 894 l 538 894 l 811 0 l 619 0 m 428 718 l 415 718 l 293 346 l 413 343 l 533 346 l 428 718 m 643 1204 l 581 1157 l 568 1157 l 436 1328 l 440 1342 l 533 1382 l 546 1376 l 643 1204 m 213 1057 q 399 1201 308 1121 l 436 1201 q 622 1057 522 1125 l 589 983 l 571 983 l 528 1008 q 418 1071 476 1035 q 308 1008 360 1035 l 265 983 l 247 983 l 213 1057 z "},"ầ":{"ha":735,"x_min":24,"x_max":700,"o":"m 524 0 l 504 101 l 492 142 l 350 143 l 225 140 l 215 111 l 194 0 l 24 0 l 269 701 l 476 701 l 700 0 l 524 0 m 375 542 l 364 542 l 271 274 l 361 272 l 454 274 l 375 542 m 600 1011 l 538 964 l 525 964 l 393 1135 l 397 1149 l 490 1189 l 503 1183 l 600 1011 m 169 864 q 356 1008 265 928 l 393 1008 q 579 864 479 932 l 546 790 l 528 790 l 485 815 q 375 878 433 842 q 265 815 317 842 l 222 790 l 204 790 l 169 864 z "},"Ẩ":{"ha":833,"x_min":11,"x_max":811,"o":"m 535 1361 q 451 1328 492 1361 l 421 1375 q 560 1442 483 1442 q 636 1415 606 1442 q 667 1349 667 1389 q 650 1298 667 1322 q 592 1239 633 1274 l 622 1188 l 558 1150 l 503 1238 q 572 1331 572 1288 q 535 1361 572 1361 m 213 1057 q 399 1201 308 1121 l 436 1201 q 622 1057 522 1125 l 589 983 l 571 983 l 528 1008 q 418 1071 476 1035 q 308 1008 360 1035 l 265 983 l 247 983 l 213 1057 m 619 0 l 597 117 l 574 200 l 399 204 l 244 200 l 221 126 l 197 0 l 11 0 l 313 894 l 538 894 l 811 0 l 619 0 m 428 718 l 415 718 l 293 346 l 411 343 l 533 346 l 428 718 z "},"ẩ":{"ha":735,"x_min":24,"x_max":700,"o":"m 492 1168 q 408 1135 449 1168 l 378 1182 q 517 1249 440 1249 q 593 1222 563 1249 q 624 1156 624 1196 q 607 1105 624 1129 q 549 1046 590 1081 l 579 994 l 515 957 l 460 1044 q 529 1138 529 1094 q 492 1168 529 1168 m 169 864 q 356 1008 265 928 l 393 1008 q 579 864 479 932 l 546 790 l 528 790 l 485 815 q 375 878 433 842 q 265 815 317 842 l 222 790 l 204 790 l 169 864 m 524 0 l 506 101 l 493 142 l 350 143 l 225 140 l 215 111 l 194 0 l 24 0 l 269 701 l 476 701 l 700 0 l 524 0 m 375 542 l 364 542 l 271 274 l 361 272 l 454 274 l 375 542 z "},"Ẫ":{"ha":833,"x_min":11,"x_max":811,"o":"m 199 1260 l 199 1275 l 289 1392 l 306 1397 q 413 1372 329 1394 q 503 1351 486 1351 q 533 1365 518 1351 q 564 1396 549 1378 q 583 1419 579 1414 l 599 1419 l 649 1368 l 649 1353 l 558 1236 l 543 1229 q 436 1256 508 1235 q 344 1276 363 1276 q 317 1265 331 1276 q 288 1235 303 1253 q 265 1208 274 1218 l 250 1208 l 199 1260 m 436 1201 q 622 1057 522 1125 l 589 983 l 571 983 l 528 1008 q 418 1071 476 1035 q 308 1008 360 1035 l 265 983 l 247 983 l 213 1057 q 399 1201 308 1121 l 436 1201 m 619 0 l 597 117 l 574 200 l 399 204 l 244 200 l 221 126 l 197 0 l 11 0 l 313 894 l 538 894 l 811 0 l 619 0 m 428 718 l 415 718 l 293 346 l 411 343 l 533 346 l 428 718 z "},"ẫ":{"ha":735,"x_min":24,"x_max":700,"o":"m 156 1067 l 156 1082 l 246 1199 l 263 1204 q 369 1179 286 1201 q 460 1158 443 1158 q 490 1172 475 1158 q 521 1203 506 1185 q 540 1226 536 1221 l 556 1226 l 606 1175 l 606 1160 l 515 1043 l 500 1036 q 393 1063 465 1042 q 301 1083 321 1083 q 274 1072 288 1083 q 245 1042 260 1060 q 222 1015 231 1025 l 207 1015 l 156 1067 m 393 1008 q 579 864 479 932 l 546 790 l 528 790 l 485 815 q 375 878 433 842 q 265 815 317 842 l 222 790 l 204 790 l 169 864 q 356 1008 265 928 l 393 1008 m 524 0 l 506 101 l 493 142 l 350 143 l 225 140 l 215 111 l 194 0 l 24 0 l 269 701 l 476 701 l 700 0 l 524 0 m 375 542 l 364 542 l 271 274 l 361 272 l 454 274 l 375 542 z "},"Ậ":{"ha":833,"x_min":11,"x_max":811,"o":"m 213 1085 q 399 1229 308 1149 l 436 1229 q 622 1085 522 1153 l 589 1011 l 571 1011 l 528 1036 q 418 1099 476 1063 q 308 1036 360 1063 l 265 1011 l 247 1011 l 213 1085 m 619 0 l 597 117 l 574 200 l 399 204 l 244 200 l 221 126 l 197 0 l 11 0 l 313 894 l 538 894 l 811 0 l 619 0 m 428 718 l 415 718 l 293 346 l 411 343 l 533 346 l 428 718 m 415 -72 q 483 -97 458 -72 q 507 -167 507 -122 q 481 -242 507 -214 q 408 -269 454 -269 q 338 -244 363 -269 q 314 -174 314 -219 q 341 -100 314 -128 q 415 -72 368 -72 z "},"ậ":{"ha":735,"x_min":24,"x_max":700,"o":"m 161 857 q 357 1053 240 929 l 397 1053 q 592 857 506 933 l 546 786 l 528 786 q 376 914 436 858 q 226 786 322 863 l 208 786 l 161 857 m 524 0 l 506 101 l 493 142 l 350 143 l 225 140 l 215 111 l 194 0 l 24 0 l 269 701 l 476 701 l 700 0 l 524 0 m 375 542 l 364 542 l 271 274 l 361 272 l 454 274 l 375 542 m 367 -72 q 434 -97 410 -72 q 458 -167 458 -122 q 432 -242 458 -214 q 360 -269 406 -269 q 290 -244 314 -269 q 265 -174 265 -219 q 292 -100 265 -128 q 367 -72 319 -72 z "},"Ắ":{"ha":833,"x_min":11,"x_max":811,"o":"m 619 0 l 597 117 l 574 200 l 399 204 l 244 200 l 221 126 l 197 0 l 11 0 l 314 894 l 538 894 l 811 0 l 619 0 m 428 718 l 415 718 l 293 346 l 413 343 l 533 346 l 428 718 m 579 1317 q 424 1167 494 1232 l 408 1163 l 350 1208 l 379 1249 q 478 1383 446 1338 l 492 1386 l 576 1331 l 579 1317 m 628 1119 q 547 1011 601 1049 q 415 974 493 974 q 287 1011 340 974 q 210 1119 233 1049 l 253 1179 l 279 1179 q 335 1122 297 1143 q 422 1101 372 1101 q 558 1179 521 1101 l 585 1179 l 628 1119 z "},"ắ":{"ha":735,"x_min":24,"x_max":700,"o":"m 524 0 l 504 101 l 492 142 l 350 143 l 225 140 l 215 111 l 194 0 l 24 0 l 269 701 l 476 701 l 700 0 l 524 0 m 375 542 l 364 542 l 271 274 l 361 272 l 454 274 l 375 542 m 536 1124 q 381 974 451 1039 l 365 969 l 307 1015 l 336 1056 q 435 1190 403 1144 l 449 1193 l 533 1138 l 536 1124 m 585 926 q 504 818 558 856 q 372 781 450 781 q 244 818 297 781 q 167 926 190 856 l 210 986 l 236 986 q 292 929 254 950 q 379 908 329 908 q 515 986 478 908 l 542 986 l 585 926 z "},"Ằ":{"ha":833,"x_min":11,"x_max":811,"o":"m 619 0 l 597 117 l 574 200 l 399 204 l 244 200 l 221 126 l 197 0 l 11 0 l 314 894 l 538 894 l 811 0 l 619 0 m 428 718 l 415 718 l 293 346 l 413 343 l 533 346 l 428 718 m 361 1383 q 489 1208 421 1297 l 431 1163 l 414 1167 q 260 1317 311 1264 l 261 1331 l 347 1386 l 361 1383 m 628 1119 q 547 1011 601 1049 q 415 974 493 974 q 287 1011 340 974 q 210 1119 233 1049 l 253 1179 l 279 1179 q 335 1122 297 1143 q 422 1101 372 1101 q 558 1179 521 1101 l 585 1179 l 628 1119 z "},"ằ":{"ha":735,"x_min":24,"x_max":700,"o":"m 524 0 l 504 101 l 492 142 l 350 143 l 225 140 l 215 111 l 194 0 l 24 0 l 269 701 l 476 701 l 700 0 l 524 0 m 375 542 l 364 542 l 271 274 l 361 272 l 454 274 l 375 542 m 318 1190 q 446 1015 378 1104 l 388 969 l 371 974 q 217 1124 268 1071 l 218 1138 l 304 1193 l 318 1190 m 585 926 q 504 818 558 856 q 372 781 450 781 q 244 818 297 781 q 167 926 190 856 l 210 986 l 236 986 q 292 929 254 950 q 379 908 329 908 q 515 986 478 908 l 542 986 l 585 926 z "},"Ẳ":{"ha":833,"x_min":11,"x_max":811,"o":"m 386 1376 q 297 1342 340 1376 l 267 1392 q 413 1463 335 1463 q 492 1435 460 1463 q 524 1364 524 1407 q 507 1311 524 1336 q 447 1249 490 1286 l 479 1194 l 411 1156 l 353 1247 q 406 1299 386 1272 q 425 1346 425 1325 q 386 1376 425 1376 m 415 974 q 287 1011 340 974 q 210 1119 233 1049 l 253 1179 l 279 1179 q 335 1122 297 1143 q 422 1101 372 1101 q 558 1179 521 1101 l 585 1179 l 628 1119 q 547 1011 601 1049 q 415 974 493 974 m 619 0 l 597 117 l 574 200 l 399 204 l 244 200 l 221 126 l 197 0 l 11 0 l 313 894 l 538 894 l 811 0 l 619 0 m 428 718 l 415 718 l 293 346 l 411 343 l 533 346 l 428 718 z "},"ẳ":{"ha":735,"x_min":24,"x_max":700,"o":"m 343 1183 q 254 1149 297 1183 l 224 1199 q 369 1269 292 1269 q 449 1242 417 1269 q 481 1171 481 1214 q 464 1118 481 1143 q 404 1056 447 1093 l 436 1001 l 368 963 l 310 1054 q 363 1106 343 1079 q 382 1153 382 1132 q 343 1183 382 1183 m 372 781 q 244 818 297 781 q 167 926 190 856 l 210 986 l 236 986 q 292 929 254 950 q 379 908 329 908 q 515 986 478 908 l 542 986 l 585 926 q 504 818 558 856 q 372 781 450 781 m 524 0 l 506 101 l 493 142 l 350 143 l 225 140 l 215 111 l 194 0 l 24 0 l 269 701 l 476 701 l 700 0 l 524 0 m 375 542 l 364 542 l 271 274 l 361 272 l 454 274 l 375 542 z "},"Ẵ":{"ha":833,"x_min":11,"x_max":811,"o":"m 199 1260 l 199 1275 l 289 1392 l 306 1397 q 413 1372 329 1394 q 503 1351 486 1351 q 533 1365 518 1351 q 564 1396 549 1378 q 583 1419 579 1414 l 599 1419 l 649 1368 l 649 1353 l 558 1236 l 543 1229 q 436 1256 508 1235 q 344 1276 363 1276 q 317 1265 331 1276 q 288 1235 303 1253 q 265 1208 274 1218 l 250 1208 l 199 1260 m 426 1096 q 557 1169 521 1096 l 582 1169 l 622 1114 q 546 1009 599 1046 q 421 972 493 972 q 298 1009 349 972 q 224 1114 247 1046 l 264 1169 l 290 1169 q 426 1096 325 1096 m 619 0 l 597 117 l 574 200 l 399 204 l 244 200 l 221 126 l 197 0 l 11 0 l 313 894 l 538 894 l 811 0 l 619 0 m 428 718 l 415 718 l 293 346 l 411 343 l 533 346 l 428 718 z "},"ẵ":{"ha":735,"x_min":24,"x_max":700,"o":"m 156 1067 l 156 1082 l 246 1199 l 263 1204 q 369 1179 286 1201 q 460 1158 443 1158 q 490 1172 475 1158 q 521 1203 506 1185 q 540 1226 536 1221 l 556 1226 l 606 1175 l 606 1160 l 515 1043 l 500 1036 q 393 1063 465 1042 q 301 1083 321 1083 q 274 1072 288 1083 q 245 1042 260 1060 q 222 1015 231 1025 l 207 1015 l 156 1067 m 383 903 q 514 976 478 903 l 539 976 l 579 921 q 503 816 556 853 q 378 779 450 779 q 255 816 306 779 q 181 921 204 853 l 221 976 l 247 976 q 383 903 282 903 m 524 0 l 506 101 l 493 142 l 350 143 l 225 140 l 215 111 l 194 0 l 24 0 l 269 701 l 476 701 l 700 0 l 524 0 m 375 542 l 364 542 l 271 274 l 361 272 l 454 274 l 375 542 z "},"Ặ":{"ha":833,"x_min":11,"x_max":811,"o":"m 415 1000 q 286 1038 339 1000 q 210 1147 233 1076 l 253 1206 l 279 1206 q 422 1129 317 1129 q 558 1206 521 1129 l 585 1206 l 628 1147 q 547 1038 601 1076 q 415 1000 492 1000 m 619 0 l 597 117 l 574 200 l 399 204 l 244 200 l 221 126 l 197 0 l 11 0 l 313 894 l 538 894 l 811 0 l 619 0 m 428 718 l 415 718 l 293 346 l 411 343 l 533 346 l 428 718 m 415 -72 q 483 -97 458 -72 q 507 -167 507 -122 q 481 -242 507 -214 q 408 -269 454 -269 q 338 -244 363 -269 q 314 -174 314 -219 q 341 -100 314 -128 q 415 -72 368 -72 z "},"ặ":{"ha":735,"x_min":24,"x_max":700,"o":"m 372 792 q 238 840 289 792 q 168 965 188 889 l 211 1028 l 238 1028 q 378 922 271 922 q 517 1028 486 922 l 543 1028 l 586 965 q 512 839 565 886 q 372 792 458 792 m 524 0 l 506 101 l 493 142 l 350 143 l 225 140 l 215 111 l 194 0 l 24 0 l 269 701 l 476 701 l 700 0 l 524 0 m 375 542 l 364 542 l 271 274 l 361 272 l 454 274 l 375 542 m 367 -72 q 434 -97 410 -72 q 458 -167 458 -122 q 432 -242 458 -214 q 360 -269 406 -269 q 290 -244 314 -269 q 265 -174 265 -219 q 292 -100 265 -128 q 367 -72 319 -72 z "},"Ẹ":{"ha":707,"x_min":108,"x_max":685,"o":"m 681 140 l 669 0 l 108 0 l 119 267 l 108 894 l 675 894 l 685 879 l 672 739 l 457 746 l 297 744 l 294 528 l 446 526 l 593 531 l 604 517 l 592 376 l 433 381 l 292 379 l 290 283 l 294 149 l 450 147 l 671 156 l 681 140 m 413 -72 q 480 -97 456 -72 q 504 -167 504 -122 q 478 -242 504 -214 q 406 -269 451 -269 q 335 -244 360 -269 q 311 -174 311 -219 q 338 -100 311 -128 q 413 -72 365 -72 z "},"ẹ":{"ha":633,"x_min":101,"x_max":599,"o":"m 594 131 l 582 0 l 101 0 l 110 208 l 101 701 l 589 701 l 599 688 l 588 558 l 407 565 l 276 565 l 274 424 l 399 422 l 519 426 l 531 414 l 518 282 l 386 286 l 271 286 l 269 225 l 272 136 l 394 136 l 583 142 l 594 131 m 354 -72 q 422 -97 397 -72 q 446 -167 446 -122 q 419 -242 446 -214 q 347 -269 393 -269 q 277 -244 301 -269 q 253 -174 253 -219 q 280 -100 253 -128 q 354 -72 307 -72 z "},"Ẻ":{"ha":707,"x_min":108,"x_max":686,"o":"m 682 140 l 669 0 l 108 0 l 118 267 l 108 894 l 675 894 l 686 879 l 672 739 l 458 746 l 297 744 l 293 529 l 447 526 l 593 531 l 604 517 l 592 376 l 433 381 l 290 379 l 289 283 l 293 149 l 450 147 l 671 156 l 682 140 m 379 1276 q 458 1249 426 1276 q 490 1178 490 1221 q 474 1125 490 1150 q 414 1063 457 1100 l 446 1008 l 378 969 l 319 1061 q 372 1113 353 1086 q 392 1160 392 1139 q 353 1190 392 1190 q 264 1156 307 1190 l 233 1206 q 379 1276 301 1276 z "},"ẻ":{"ha":633,"x_min":101,"x_max":599,"o":"m 594 131 l 582 0 l 101 0 l 108 208 l 101 701 l 589 701 l 599 688 l 588 558 l 407 565 l 276 565 l 274 424 l 399 422 l 519 426 l 529 414 l 518 282 l 386 286 l 271 286 l 269 225 l 272 136 l 394 136 l 583 142 l 594 131 m 332 1085 q 411 1057 379 1085 q 443 986 443 1029 q 426 933 443 958 q 367 871 410 908 l 399 817 l 331 778 l 272 869 q 325 921 306 894 q 344 968 344 947 q 306 999 344 999 q 217 964 260 999 l 186 1014 q 332 1085 254 1085 z "},"Ẽ":{"ha":707,"x_min":108,"x_max":686,"o":"m 682 140 l 669 0 l 108 0 l 118 267 l 108 894 l 675 894 l 686 879 l 672 739 l 458 746 l 297 744 l 293 529 l 447 526 l 593 531 l 604 517 l 592 376 l 433 381 l 290 379 l 289 283 l 293 149 l 450 147 l 671 156 l 682 140 m 635 1153 l 538 1029 l 519 1022 q 404 1049 482 1026 q 306 1071 321 1071 q 276 1058 290 1071 q 244 1028 261 1046 q 219 1000 228 1010 l 203 1000 l 147 1054 l 147 1069 l 246 1193 l 263 1200 q 381 1172 296 1196 q 476 1151 458 1151 q 509 1165 493 1151 q 542 1197 525 1179 q 564 1222 558 1215 l 581 1222 l 635 1168 l 635 1153 z "},"ẽ":{"ha":633,"x_min":99,"x_max":599,"o":"m 594 131 l 582 0 l 101 0 l 108 208 l 101 701 l 589 701 l 599 688 l 588 558 l 407 565 l 276 565 l 274 424 l 399 422 l 519 426 l 529 414 l 518 282 l 386 286 l 271 286 l 269 225 l 272 136 l 394 136 l 583 142 l 594 131 m 586 960 l 489 836 l 471 829 q 356 856 433 833 q 257 878 272 878 q 227 865 242 878 q 196 835 213 853 q 171 807 179 817 l 154 807 l 99 861 l 99 876 l 197 1000 l 214 1007 q 332 979 247 1003 q 428 958 410 958 q 460 972 444 958 q 493 1004 476 986 q 515 1029 510 1022 l 532 1029 l 586 975 l 586 960 z "},"Ế":{"ha":707,"x_min":108,"x_max":686,"o":"m 682 140 l 669 0 l 108 0 l 118 267 l 108 894 l 675 894 l 686 879 l 672 739 l 458 746 l 297 744 l 293 529 l 447 526 l 593 531 l 604 517 l 592 376 l 433 381 l 290 379 l 289 283 l 293 149 l 450 147 l 671 156 l 682 140 m 676 1328 l 544 1157 l 532 1157 l 469 1204 l 567 1376 l 581 1382 l 672 1342 l 676 1328 m 186 1057 q 372 1201 282 1121 l 410 1201 q 596 1057 496 1125 l 563 983 l 544 983 l 501 1008 q 392 1071 450 1035 q 282 1008 333 1035 l 239 983 l 221 983 l 186 1057 z "},"ế":{"ha":633,"x_min":101,"x_max":628,"o":"m 594 131 l 582 0 l 101 0 l 108 208 l 101 701 l 589 701 l 599 688 l 588 558 l 407 565 l 276 565 l 274 424 l 399 422 l 519 426 l 529 414 l 518 282 l 386 286 l 271 286 l 269 225 l 272 136 l 394 136 l 583 142 l 594 131 m 628 1135 l 496 964 l 483 964 l 421 1011 l 518 1183 l 532 1189 l 624 1149 l 628 1135 m 138 864 q 324 1008 233 928 l 361 1008 q 547 864 447 932 l 514 790 l 496 790 l 453 815 q 343 878 401 842 q 233 815 285 842 l 190 790 l 172 790 l 138 864 z "},"Ề":{"ha":707,"x_min":108,"x_max":686,"o":"m 682 140 l 669 0 l 108 0 l 118 267 l 108 894 l 675 894 l 686 879 l 672 739 l 458 746 l 297 744 l 293 529 l 447 526 l 593 531 l 604 517 l 592 376 l 433 381 l 290 379 l 289 283 l 293 149 l 450 147 l 671 156 l 682 140 m 617 1204 l 554 1157 l 542 1157 l 410 1328 l 414 1342 l 507 1382 l 519 1376 l 617 1204 m 186 1057 q 372 1201 282 1121 l 410 1201 q 596 1057 496 1125 l 563 983 l 544 983 l 501 1008 q 392 1071 450 1035 q 282 1008 333 1035 l 239 983 l 221 983 l 186 1057 z "},"ề":{"ha":633,"x_min":101,"x_max":599,"o":"m 594 131 l 582 0 l 101 0 l 108 208 l 101 701 l 589 701 l 599 688 l 588 558 l 407 565 l 276 565 l 274 424 l 399 422 l 519 426 l 529 414 l 518 282 l 386 286 l 271 286 l 269 225 l 272 136 l 394 136 l 583 142 l 594 131 m 568 1011 l 506 964 l 493 964 l 361 1135 l 365 1149 l 458 1189 l 471 1183 l 568 1011 m 138 864 q 324 1008 233 928 l 361 1008 q 547 864 447 932 l 514 790 l 496 790 l 453 815 q 343 878 401 842 q 233 815 285 842 l 190 790 l 172 790 l 138 864 z "},"Ể":{"ha":707,"x_min":108,"x_max":685,"o":"m 508 1361 q 425 1328 465 1361 l 394 1375 q 533 1442 457 1442 q 610 1415 579 1442 q 640 1349 640 1389 q 624 1298 640 1322 q 565 1239 607 1274 l 596 1188 l 532 1150 l 476 1238 q 546 1331 546 1288 q 508 1361 546 1361 m 186 1057 q 372 1201 282 1121 l 410 1201 q 596 1057 496 1125 l 563 983 l 544 983 l 501 1008 q 392 1071 450 1035 q 282 1008 333 1035 l 239 983 l 221 983 l 186 1057 m 681 140 l 669 0 l 108 0 l 119 267 l 108 894 l 675 894 l 685 879 l 672 739 l 457 746 l 297 744 l 294 528 l 446 526 l 593 531 l 604 517 l 592 376 l 433 381 l 292 379 l 290 283 l 294 149 l 450 147 l 671 156 l 681 140 z "},"ể":{"ha":633,"x_min":101,"x_max":599,"o":"m 460 1168 q 376 1135 417 1168 l 346 1182 q 485 1249 408 1249 q 561 1222 531 1249 q 592 1156 592 1196 q 575 1105 592 1129 q 517 1046 558 1081 l 547 994 l 483 957 l 428 1044 q 497 1138 497 1094 q 460 1168 497 1168 m 138 864 q 324 1008 233 928 l 361 1008 q 547 864 447 932 l 514 790 l 496 790 l 453 815 q 343 878 401 842 q 233 815 285 842 l 190 790 l 172 790 l 138 864 m 594 131 l 582 0 l 101 0 l 110 208 l 101 701 l 589 701 l 599 688 l 588 558 l 407 565 l 276 565 l 274 424 l 399 422 l 519 426 l 531 414 l 518 282 l 386 286 l 271 286 l 269 225 l 272 136 l 394 136 l 583 142 l 594 131 z "},"Ễ":{"ha":707,"x_min":108,"x_max":686,"o":"m 682 140 l 669 0 l 108 0 l 118 267 l 108 894 l 675 894 l 686 879 l 672 739 l 458 746 l 297 744 l 293 529 l 447 526 l 593 531 l 604 517 l 592 376 l 433 381 l 290 379 l 289 283 l 293 149 l 450 147 l 671 156 l 682 140 m 617 1204 l 554 1157 l 542 1157 l 410 1328 l 414 1342 l 507 1382 l 519 1376 l 617 1204 m 186 1057 q 372 1201 282 1121 l 410 1201 q 596 1057 496 1125 l 563 983 l 544 983 l 501 1008 q 392 1071 450 1035 q 282 1008 333 1035 l 239 983 l 221 983 l 186 1057 z "},"ễ":{"ha":633,"x_min":101,"x_max":599,"o":"m 124 1067 l 124 1082 l 214 1199 l 231 1204 q 338 1179 254 1201 q 428 1158 411 1158 q 458 1172 443 1158 q 489 1203 474 1185 q 508 1226 504 1221 l 524 1226 l 574 1175 l 574 1160 l 483 1043 l 468 1036 q 361 1063 433 1042 q 269 1083 288 1083 q 242 1072 256 1083 q 213 1042 228 1060 q 190 1015 199 1025 l 175 1015 l 124 1067 m 361 1008 q 547 864 447 932 l 514 790 l 496 790 l 453 815 q 343 878 401 842 q 233 815 285 842 l 190 790 l 172 790 l 138 864 q 324 1008 233 928 l 361 1008 m 594 131 l 582 0 l 101 0 l 110 208 l 101 701 l 589 701 l 599 688 l 588 558 l 407 565 l 276 565 l 274 424 l 399 422 l 519 426 l 531 414 l 518 282 l 386 286 l 271 286 l 269 225 l 272 136 l 394 136 l 583 142 l 594 131 z "},"Ệ":{"ha":707,"x_min":108,"x_max":685,"o":"m 188 1085 q 374 1229 283 1149 l 411 1229 q 597 1085 497 1153 l 564 1011 l 546 1011 l 503 1036 q 393 1099 451 1063 q 283 1036 335 1063 l 240 1011 l 222 1011 l 188 1085 m 681 140 l 669 0 l 108 0 l 119 267 l 108 894 l 675 894 l 685 879 l 672 739 l 457 746 l 297 744 l 294 528 l 446 526 l 593 531 l 604 517 l 592 376 l 433 381 l 292 379 l 290 283 l 294 149 l 450 147 l 671 156 l 681 140 m 413 -72 q 480 -97 456 -72 q 504 -167 504 -122 q 478 -242 504 -214 q 406 -269 451 -269 q 335 -244 360 -269 q 311 -174 311 -219 q 338 -100 311 -128 q 413 -72 365 -72 z "},"ệ":{"ha":633,"x_min":101,"x_max":599,"o":"m 129 857 q 325 1053 208 929 l 365 1053 q 560 857 474 933 l 514 786 l 496 786 q 344 914 404 858 q 194 786 290 863 l 176 786 l 129 857 m 594 131 l 582 0 l 101 0 l 110 208 l 101 701 l 589 701 l 599 688 l 588 558 l 407 565 l 276 565 l 274 424 l 399 422 l 519 426 l 531 414 l 518 282 l 386 286 l 271 286 l 269 225 l 272 136 l 394 136 l 583 142 l 594 131 m 354 -72 q 422 -97 397 -72 q 446 -167 446 -122 q 419 -242 446 -214 q 347 -269 393 -269 q 277 -244 301 -269 q 253 -174 253 -219 q 280 -100 253 -128 q 354 -72 307 -72 z "},"Ỉ":{"ha":410,"x_min":46,"x_max":303,"o":"m 297 0 l 108 0 l 118 267 l 108 894 l 300 894 l 289 283 l 297 0 m 192 1276 q 271 1249 239 1276 q 303 1178 303 1221 q 286 1125 303 1150 q 226 1063 269 1100 l 258 1008 l 190 969 l 132 1061 q 185 1113 165 1086 q 204 1160 204 1139 q 165 1190 204 1190 q 76 1156 119 1190 l 46 1206 q 192 1276 114 1276 z "},"ỉ":{"ha":388,"x_min":38,"x_max":294,"o":"m 276 0 l 101 0 l 108 208 l 101 701 l 279 701 l 269 225 l 276 0 m 183 1085 q 263 1057 231 1085 q 294 986 294 1029 q 278 933 294 958 q 218 871 261 908 l 250 817 l 182 778 l 124 869 q 176 921 157 894 q 196 968 196 947 q 157 999 196 999 q 68 964 111 999 l 38 1014 q 183 1085 106 1085 z "},"Ị":{"ha":410,"x_min":99,"x_max":300,"o":"m 299 0 l 108 0 l 119 267 l 108 894 l 300 894 l 290 283 l 299 0 m 200 -72 q 267 -97 243 -72 q 292 -167 292 -122 q 265 -242 292 -214 q 193 -269 239 -269 q 123 -244 147 -269 q 99 -174 99 -219 q 126 -100 99 -128 q 200 -72 153 -72 z "},"ị":{"ha":388,"x_min":90,"x_max":283,"o":"m 276 0 l 101 0 l 110 208 l 101 701 l 279 701 l 269 225 l 276 0 m 192 -72 q 259 -97 235 -72 q 283 -167 283 -122 q 257 -242 283 -214 q 185 -269 231 -269 q 115 -244 139 -269 q 90 -174 90 -219 q 117 -100 90 -128 q 192 -72 144 -72 z "},"Ọ":{"ha":893,"x_min":39,"x_max":854,"o":"m 463 907 q 752 792 650 907 q 854 467 854 678 q 744 111 854 236 q 432 -14 635 -14 q 141 103 243 -14 q 39 436 39 221 q 149 785 39 663 q 463 907 260 907 m 444 754 q 284 685 333 754 q 235 461 235 617 q 284 208 235 283 q 447 132 333 132 q 608 201 557 132 q 658 429 658 271 q 608 680 658 606 q 444 754 558 754 m 454 -72 q 522 -97 497 -72 q 546 -167 546 -122 q 519 -242 546 -214 q 447 -269 493 -269 q 377 -244 401 -269 q 353 -174 353 -219 q 380 -100 353 -128 q 454 -72 407 -72 z "},"ọ":{"ha":778,"x_min":46,"x_max":733,"o":"m 404 713 q 647 622 561 713 q 733 367 733 532 q 640 86 733 185 q 375 -12 547 -12 q 132 80 218 -12 q 46 340 46 172 q 139 615 46 518 q 404 713 232 713 m 388 571 q 265 524 301 571 q 228 364 228 478 q 244 220 228 272 q 295 146 260 168 q 390 124 331 124 q 515 169 478 124 q 551 331 551 215 q 535 474 551 422 q 483 549 518 526 q 388 571 449 571 m 396 -72 q 463 -97 439 -72 q 488 -167 488 -122 q 461 -242 488 -214 q 389 -269 435 -269 q 319 -244 343 -269 q 294 -174 294 -219 q 322 -100 294 -128 q 396 -72 349 -72 z "},"Ỏ":{"ha":893,"x_min":39,"x_max":856,"o":"m 463 907 q 753 792 651 907 q 856 467 856 678 q 745 111 856 236 q 432 -14 635 -14 q 141 103 243 -14 q 39 436 39 221 q 149 785 39 663 q 463 907 260 907 m 446 754 q 285 685 335 754 q 235 461 235 617 q 284 208 235 283 q 447 132 333 132 q 608 201 558 132 q 658 429 658 271 q 609 680 658 606 q 446 754 560 754 m 435 1276 q 514 1249 482 1276 q 546 1178 546 1221 q 529 1125 546 1150 q 469 1063 513 1100 l 501 1008 l 433 969 l 375 1061 q 428 1113 408 1086 q 447 1160 447 1139 q 408 1190 447 1190 q 319 1156 363 1190 l 289 1206 q 435 1276 357 1276 z "},"ỏ":{"ha":778,"x_min":46,"x_max":733,"o":"m 403 713 q 647 622 561 713 q 733 367 733 532 q 640 87 733 186 q 375 -12 546 -12 q 132 80 218 -12 q 46 340 46 172 q 139 615 46 518 q 403 713 232 713 m 388 571 q 265 524 301 571 q 228 364 228 478 q 244 220 228 272 q 295 146 260 168 q 390 124 331 124 q 515 169 478 124 q 551 331 551 215 q 535 474 551 422 q 483 549 518 526 q 388 571 449 571 m 379 1085 q 458 1057 426 1085 q 490 986 490 1029 q 474 933 490 958 q 414 871 457 908 l 446 817 l 378 778 l 319 869 q 372 921 353 894 q 392 968 392 947 q 353 999 392 999 q 264 964 307 999 l 233 1014 q 379 1085 301 1085 z "},"Ố":{"ha":893,"x_min":39,"x_max":856,"o":"m 463 907 q 753 792 651 907 q 856 467 856 678 q 745 111 856 236 q 432 -14 635 -14 q 141 103 243 -14 q 39 436 39 221 q 149 785 39 663 q 463 907 260 907 m 446 754 q 285 685 335 754 q 235 461 235 617 q 284 208 235 283 q 447 132 333 132 q 608 201 558 132 q 658 429 658 271 q 609 680 658 606 q 446 754 560 754 m 732 1328 l 600 1157 l 588 1157 l 525 1204 l 622 1376 l 636 1382 l 728 1342 l 732 1328 m 242 1057 q 428 1201 338 1121 l 465 1201 q 651 1057 551 1125 l 618 983 l 600 983 l 557 1008 q 447 1071 506 1035 q 338 1008 389 1035 l 294 983 l 276 983 l 242 1057 z "},"ố":{"ha":778,"x_min":46,"x_max":733,"o":"m 403 713 q 647 622 561 713 q 733 367 733 532 q 640 87 733 186 q 375 -12 546 -12 q 132 80 218 -12 q 46 340 46 172 q 139 615 46 518 q 403 713 232 713 m 388 571 q 265 524 301 571 q 228 364 228 478 q 244 220 228 272 q 295 146 260 168 q 390 124 331 124 q 515 169 478 124 q 551 331 551 215 q 535 474 551 422 q 483 549 518 526 q 388 571 449 571 m 675 1135 l 543 964 l 531 964 l 468 1011 l 565 1183 l 579 1189 l 671 1149 l 675 1135 m 185 864 q 371 1008 281 928 l 408 1008 q 594 864 494 932 l 561 790 l 543 790 l 500 815 q 390 878 449 842 q 281 815 332 842 l 238 790 l 219 790 l 185 864 z "},"Ồ":{"ha":893,"x_min":39,"x_max":856,"o":"m 463 907 q 753 792 651 907 q 856 467 856 678 q 745 111 856 236 q 432 -14 635 -14 q 141 103 243 -14 q 39 436 39 221 q 149 785 39 663 q 463 907 260 907 m 446 754 q 285 685 335 754 q 235 461 235 617 q 284 208 235 283 q 447 132 333 132 q 608 201 558 132 q 658 429 658 271 q 609 680 658 606 q 446 754 560 754 m 672 1204 l 610 1157 l 597 1157 l 465 1328 l 469 1342 l 563 1382 l 575 1376 l 672 1204 m 242 1057 q 428 1201 338 1121 l 465 1201 q 651 1057 551 1125 l 618 983 l 600 983 l 557 1008 q 447 1071 506 1035 q 338 1008 389 1035 l 294 983 l 276 983 l 242 1057 z "},"ồ":{"ha":778,"x_min":46,"x_max":733,"o":"m 403 713 q 647 622 561 713 q 733 367 733 532 q 640 87 733 186 q 375 -12 546 -12 q 132 80 218 -12 q 46 340 46 172 q 139 615 46 518 q 403 713 232 713 m 388 571 q 265 524 301 571 q 228 364 228 478 q 244 220 228 272 q 295 146 260 168 q 390 124 331 124 q 515 169 478 124 q 551 331 551 215 q 535 474 551 422 q 483 549 518 526 q 388 571 449 571 m 615 1011 l 553 964 l 540 964 l 408 1135 l 413 1149 l 506 1189 l 518 1183 l 615 1011 m 185 864 q 371 1008 281 928 l 408 1008 q 594 864 494 932 l 561 790 l 543 790 l 500 815 q 390 878 449 842 q 281 815 332 842 l 238 790 l 219 790 l 185 864 z "},"Ổ":{"ha":893,"x_min":39,"x_max":854,"o":"m 589 1442 q 665 1415 635 1442 q 696 1349 696 1389 q 679 1298 696 1322 q 621 1239 663 1274 l 651 1188 l 588 1150 l 532 1238 q 601 1331 601 1288 q 564 1361 601 1361 q 481 1328 521 1361 l 450 1375 q 589 1442 513 1442 m 242 1057 q 428 1201 338 1121 l 465 1201 q 651 1057 551 1125 l 618 983 l 600 983 l 557 1008 q 447 1071 506 1035 q 338 1008 389 1035 l 294 983 l 276 983 l 242 1057 m 463 907 q 752 792 650 907 q 854 467 854 678 q 744 111 854 236 q 432 -14 635 -14 q 141 103 243 -14 q 39 436 39 221 q 149 785 39 663 q 463 907 260 907 m 444 754 q 284 685 333 754 q 235 461 235 617 q 284 208 235 283 q 447 132 333 132 q 608 201 557 132 q 658 429 658 271 q 608 680 658 606 q 444 754 558 754 z "},"ổ":{"ha":778,"x_min":46,"x_max":733,"o":"m 532 1249 q 608 1222 578 1249 q 639 1156 639 1196 q 622 1105 639 1129 q 564 1046 606 1081 l 594 994 l 531 957 l 475 1044 q 544 1138 544 1094 q 507 1168 544 1168 q 424 1135 464 1168 l 393 1182 q 532 1249 456 1249 m 185 864 q 371 1008 281 928 l 408 1008 q 594 864 494 932 l 561 790 l 543 790 l 500 815 q 390 878 449 842 q 281 815 332 842 l 238 790 l 219 790 l 185 864 m 404 713 q 647 622 561 713 q 733 367 733 532 q 640 86 733 185 q 375 -12 547 -12 q 132 80 218 -12 q 46 340 46 172 q 139 615 46 518 q 404 713 232 713 m 388 571 q 265 524 301 571 q 228 364 228 478 q 244 220 228 272 q 295 146 260 168 q 390 124 331 124 q 515 169 478 124 q 551 331 551 215 q 535 474 551 422 q 483 549 518 526 q 388 571 449 571 z "},"Ỗ":{"ha":893,"x_min":39,"x_max":854,"o":"m 678 1353 l 588 1236 l 572 1229 q 465 1256 538 1235 q 374 1276 392 1276 q 346 1265 360 1276 q 317 1235 332 1253 q 294 1208 303 1218 l 279 1208 l 228 1260 l 228 1275 l 318 1392 l 335 1397 q 442 1372 358 1394 q 532 1351 515 1351 q 563 1365 547 1351 q 593 1396 578 1378 q 613 1419 608 1414 l 628 1419 l 678 1368 l 678 1353 m 242 1057 q 428 1201 338 1121 l 465 1201 q 651 1057 551 1125 l 618 983 l 600 983 l 557 1008 q 447 1071 506 1035 q 338 1008 389 1035 l 294 983 l 276 983 l 242 1057 m 463 907 q 752 792 650 907 q 854 467 854 678 q 744 111 854 236 q 432 -14 635 -14 q 141 103 243 -14 q 39 436 39 221 q 149 785 39 663 q 463 907 260 907 m 444 754 q 284 685 333 754 q 235 461 235 617 q 284 208 235 283 q 447 132 333 132 q 608 201 557 132 q 658 429 658 271 q 608 680 658 606 q 444 754 558 754 z "},"ỗ":{"ha":778,"x_min":46,"x_max":733,"o":"m 621 1160 l 531 1043 l 515 1036 q 408 1063 481 1042 q 317 1083 336 1083 q 289 1072 303 1083 q 260 1042 275 1060 q 238 1015 246 1025 l 222 1015 l 171 1067 l 171 1082 l 261 1199 l 278 1204 q 385 1179 301 1201 q 475 1158 457 1158 q 506 1172 490 1158 q 536 1203 521 1185 q 556 1226 551 1221 l 571 1226 l 621 1175 l 621 1160 m 185 864 q 371 1008 281 928 l 408 1008 q 594 864 494 932 l 561 790 l 543 790 l 500 815 q 390 878 449 842 q 281 815 332 842 l 238 790 l 219 790 l 185 864 m 404 713 q 647 622 561 713 q 733 367 733 532 q 640 86 733 185 q 375 -12 547 -12 q 132 80 218 -12 q 46 340 46 172 q 139 615 46 518 q 404 713 232 713 m 388 571 q 265 524 301 571 q 228 364 228 478 q 244 220 228 272 q 295 146 260 168 q 390 124 331 124 q 515 169 478 124 q 551 331 551 215 q 535 474 551 422 q 483 549 518 526 q 388 571 449 571 z "},"Ộ":{"ha":893,"x_min":39,"x_max":854,"o":"m 250 1079 q 436 1224 346 1143 l 474 1224 q 660 1079 560 1147 l 626 1006 l 608 1006 l 565 1031 q 456 1093 514 1057 q 346 1031 397 1057 l 303 1006 l 285 1006 l 250 1079 m 463 907 q 752 792 650 907 q 854 467 854 678 q 744 111 854 236 q 432 -14 635 -14 q 141 103 243 -14 q 39 436 39 221 q 149 785 39 663 q 463 907 260 907 m 444 754 q 284 685 333 754 q 235 461 235 617 q 284 208 235 283 q 447 132 333 132 q 608 201 557 132 q 658 429 658 271 q 608 680 658 606 q 444 754 558 754 m 454 -72 q 522 -97 497 -72 q 546 -167 546 -122 q 519 -242 546 -214 q 447 -269 493 -269 q 377 -244 401 -269 q 353 -174 353 -219 q 380 -100 353 -128 q 454 -72 407 -72 z "},"ộ":{"ha":778,"x_min":46,"x_max":733,"o":"m 176 857 q 372 1053 256 929 l 413 1053 q 607 857 521 933 l 561 786 l 543 786 q 392 914 451 858 q 242 786 338 863 l 224 786 l 176 857 m 404 713 q 647 622 561 713 q 733 367 733 532 q 640 86 733 185 q 375 -12 547 -12 q 132 80 218 -12 q 46 340 46 172 q 139 615 46 518 q 404 713 232 713 m 388 571 q 265 524 301 571 q 228 364 228 478 q 244 220 228 272 q 295 146 260 168 q 390 124 331 124 q 515 169 478 124 q 551 331 551 215 q 535 474 551 422 q 483 549 518 526 q 388 571 449 571 m 396 -72 q 463 -97 439 -72 q 488 -167 488 -122 q 461 -242 488 -214 q 389 -269 435 -269 q 319 -244 343 -269 q 294 -174 294 -219 q 322 -100 294 -128 q 396 -72 349 -72 z "},"Ớ":{"ha":903,"x_min":39,"x_max":918,"o":"m 824 1078 q 890 1040 863 1078 q 918 947 918 1003 q 872 834 918 879 q 756 779 826 789 q 856 461 856 665 q 744 113 856 239 q 435 -14 633 -14 q 142 103 244 -14 q 39 435 39 221 q 89 690 39 583 q 231 851 139 796 q 447 907 322 907 q 613 879 519 907 q 690 863 663 863 q 751 883 728 863 q 774 936 774 903 q 731 1028 774 988 l 735 1042 q 824 1078 781 1078 m 444 754 q 284 685 333 754 q 235 454 235 615 q 285 207 235 282 q 449 132 335 132 q 609 203 560 132 q 658 436 658 274 q 608 681 658 607 q 444 754 558 754 m 654 1121 l 649 1104 q 350 996 521 1054 l 332 1001 l 301 1078 q 590 1235 469 1163 l 607 1231 l 654 1121 z "},"ớ":{"ha":786,"x_min":46,"x_max":790,"o":"m 625 817 q 706 849 668 849 q 765 818 740 849 q 790 740 790 788 q 754 648 790 686 q 660 597 718 610 q 733 363 733 510 q 640 88 733 188 q 379 -12 546 -12 q 132 80 218 -12 q 46 340 46 172 q 138 615 46 517 q 392 713 231 713 q 529 693 449 713 q 594 682 579 682 q 657 733 657 682 q 621 804 657 772 l 625 817 m 393 119 q 515 168 479 119 q 551 340 551 217 q 513 520 551 468 q 386 572 475 572 q 263 524 299 572 q 228 353 228 475 q 266 172 228 225 q 393 119 304 119 m 586 928 l 581 911 q 282 803 453 861 l 264 808 l 233 885 q 522 1042 401 969 l 539 1038 l 586 928 z "},"Ờ":{"ha":903,"x_min":39,"x_max":918,"o":"m 339 1236 q 628 1079 460 1164 l 597 1003 l 579 997 q 281 1106 408 1056 l 275 1122 l 322 1232 l 339 1236 m 822 1078 q 890 1040 861 1078 q 918 947 918 1003 q 872 834 918 879 q 756 779 826 789 q 854 461 854 664 q 744 112 854 238 q 433 -14 633 -14 q 141 103 243 -14 q 39 435 39 221 q 89 691 39 585 q 231 852 139 797 q 447 907 322 907 q 613 879 519 907 q 690 863 663 863 q 751 883 728 863 q 774 936 774 903 q 731 1028 774 988 l 733 1042 q 822 1078 782 1078 m 444 754 q 283 685 332 754 q 235 454 235 615 q 285 207 235 282 q 449 132 335 132 q 609 203 560 132 q 658 436 658 274 q 608 681 658 607 q 444 754 558 754 z "},"ờ":{"ha":786,"x_min":46,"x_max":792,"o":"m 269 1043 q 558 886 390 971 l 528 810 l 510 804 q 211 913 339 863 l 206 929 l 253 1039 l 269 1043 m 625 817 q 706 849 671 849 q 766 818 740 849 q 792 740 792 788 q 756 648 792 686 q 661 597 719 610 q 733 363 733 508 q 640 87 733 186 q 379 -12 547 -12 q 132 80 218 -12 q 46 340 46 172 q 139 615 46 517 q 392 713 232 713 q 529 693 449 713 q 596 682 579 682 q 657 733 657 682 q 621 804 657 775 l 625 817 m 393 119 q 515 168 479 119 q 551 340 551 217 q 513 520 551 468 q 386 572 475 572 q 263 524 299 572 q 228 353 228 475 q 266 172 228 225 q 393 119 304 119 z "},"Ở":{"ha":903,"x_min":39,"x_max":918,"o":"m 824 1078 q 890 1040 863 1078 q 918 947 918 1003 q 872 834 918 879 q 756 779 826 789 q 856 461 856 665 q 744 113 856 239 q 435 -14 633 -14 q 142 103 244 -14 q 39 435 39 221 q 89 690 39 583 q 231 851 139 796 q 447 907 322 907 q 613 879 519 907 q 690 863 663 863 q 751 883 728 863 q 774 936 774 903 q 731 1028 774 988 l 735 1042 q 824 1078 781 1078 m 444 754 q 284 685 333 754 q 235 454 235 615 q 285 207 235 282 q 449 132 335 132 q 609 203 560 132 q 658 436 658 274 q 608 681 658 607 q 444 754 558 754 m 435 1276 q 514 1249 482 1276 q 546 1178 546 1221 q 529 1125 546 1150 q 469 1063 513 1100 l 501 1008 l 433 969 l 375 1061 q 428 1113 408 1086 q 447 1160 447 1139 q 408 1190 447 1190 q 319 1156 363 1190 l 289 1206 q 435 1276 357 1276 z "},"ở":{"ha":786,"x_min":46,"x_max":790,"o":"m 625 817 q 706 849 668 849 q 765 818 740 849 q 790 740 790 788 q 754 648 790 686 q 660 597 718 610 q 733 363 733 510 q 640 88 733 188 q 379 -12 546 -12 q 132 80 218 -12 q 46 340 46 172 q 138 615 46 517 q 392 713 231 713 q 529 693 449 713 q 594 682 579 682 q 657 733 657 682 q 621 804 657 772 l 625 817 m 393 119 q 515 168 479 119 q 551 340 551 217 q 513 520 551 468 q 386 572 475 572 q 263 524 299 572 q 228 353 228 475 q 266 172 228 225 q 393 119 304 119 m 367 1085 q 446 1057 414 1085 q 478 986 478 1029 q 461 933 478 958 q 401 871 444 908 l 433 817 l 365 778 l 307 869 q 360 921 340 894 q 379 968 379 947 q 340 999 379 999 q 251 964 294 999 l 221 1014 q 367 1085 289 1085 z "},"Ỡ":{"ha":903,"x_min":39,"x_max":918,"o":"m 824 1078 q 890 1040 863 1078 q 918 947 918 1003 q 872 834 918 879 q 756 779 826 789 q 856 461 856 665 q 744 113 856 239 q 435 -14 633 -14 q 142 103 244 -14 q 39 435 39 221 q 89 690 39 583 q 231 851 139 796 q 447 907 322 907 q 613 879 519 907 q 690 863 663 863 q 751 883 728 863 q 774 936 774 903 q 731 1028 774 988 l 735 1042 q 824 1078 781 1078 m 444 754 q 284 685 333 754 q 235 454 235 615 q 285 207 235 282 q 449 132 335 132 q 609 203 560 132 q 658 436 658 274 q 608 681 658 607 q 444 754 558 754 m 690 1153 l 593 1029 l 575 1022 q 460 1049 538 1026 q 361 1071 376 1071 q 331 1058 346 1071 q 300 1028 317 1046 q 275 1000 283 1010 l 258 1000 l 203 1054 l 203 1069 l 301 1193 l 318 1200 q 436 1172 351 1196 q 532 1151 514 1151 q 565 1165 549 1151 q 597 1197 581 1179 q 619 1222 614 1215 l 636 1222 l 690 1168 l 690 1153 z "},"ỡ":{"ha":786,"x_min":46,"x_max":790,"o":"m 625 817 q 706 849 668 849 q 765 818 740 849 q 790 740 790 788 q 754 648 790 686 q 660 597 718 610 q 733 363 733 510 q 640 88 733 188 q 379 -12 546 -12 q 132 80 218 -12 q 46 340 46 172 q 138 615 46 517 q 392 713 231 713 q 529 693 449 713 q 594 682 579 682 q 657 733 657 682 q 621 804 657 772 l 625 817 m 393 119 q 515 168 479 119 q 551 340 551 217 q 513 520 551 468 q 386 572 475 572 q 263 524 299 572 q 228 353 228 475 q 266 172 228 225 q 393 119 304 119 m 622 960 l 525 836 l 507 829 q 392 856 469 833 q 293 878 308 878 q 263 865 278 878 q 232 835 249 853 q 207 807 215 817 l 190 807 l 135 861 l 135 876 l 233 1000 l 250 1007 q 368 979 283 1003 q 464 958 446 958 q 497 972 481 958 q 529 1004 513 986 q 551 1029 546 1022 l 568 1029 l 622 975 l 622 960 z "},"Ợ":{"ha":903,"x_min":39,"x_max":918,"o":"m 822 1078 q 890 1040 861 1078 q 918 947 918 1003 q 872 834 918 879 q 756 779 826 789 q 854 461 854 664 q 744 112 854 238 q 433 -14 633 -14 q 141 103 243 -14 q 39 435 39 221 q 89 691 39 585 q 231 852 139 797 q 447 907 322 907 q 613 879 519 907 q 690 863 663 863 q 751 883 728 863 q 774 936 774 903 q 731 1028 774 988 l 733 1042 q 822 1078 782 1078 m 444 754 q 283 685 332 754 q 235 454 235 615 q 285 207 235 282 q 449 132 335 132 q 609 203 560 132 q 658 436 658 274 q 608 681 658 607 q 444 754 558 754 m 454 -72 q 522 -97 497 -72 q 546 -167 546 -122 q 519 -242 546 -214 q 447 -269 493 -269 q 377 -244 401 -269 q 353 -174 353 -219 q 380 -100 353 -128 q 454 -72 407 -72 z "},"ợ":{"ha":786,"x_min":46,"x_max":792,"o":"m 625 817 q 706 849 671 849 q 766 818 740 849 q 792 740 792 788 q 756 648 792 686 q 661 597 719 610 q 733 363 733 508 q 640 87 733 186 q 379 -12 547 -12 q 132 80 218 -12 q 46 340 46 172 q 139 615 46 517 q 392 713 232 713 q 529 693 449 713 q 596 682 579 682 q 657 733 657 682 q 621 804 657 775 l 625 817 m 393 119 q 515 168 479 119 q 551 340 551 217 q 513 520 551 468 q 386 572 475 572 q 263 524 299 572 q 228 353 228 475 q 266 172 228 225 q 393 119 304 119 m 396 -72 q 463 -97 439 -72 q 488 -167 488 -122 q 461 -242 488 -214 q 389 -269 435 -269 q 319 -244 343 -269 q 294 -174 294 -219 q 322 -100 294 -128 q 396 -72 349 -72 z "},"Ụ":{"ha":886,"x_min":86,"x_max":803,"o":"m 796 322 q 703 75 797 163 q 432 -12 608 -12 q 174 72 263 -12 q 88 315 85 157 l 90 444 l 86 894 l 275 894 l 265 340 q 443 142 264 142 q 621 331 622 142 l 613 894 l 803 894 l 797 440 l 796 322 m 444 -72 q 512 -97 488 -72 q 536 -167 536 -122 q 510 -242 536 -214 q 438 -269 483 -269 q 367 -244 392 -269 q 343 -174 343 -219 q 370 -100 343 -128 q 444 -72 397 -72 z "},"ụ":{"ha":774,"x_min":83,"x_max":693,"o":"m 686 238 q 607 53 688 118 q 378 -11 526 -11 q 158 53 233 -11 q 85 238 82 118 l 88 347 l 83 701 l 258 701 l 249 263 q 386 131 247 131 q 522 263 524 131 l 515 701 l 693 701 l 686 344 l 686 238 m 392 -72 q 459 -97 435 -72 q 483 -167 483 -122 q 457 -242 483 -214 q 385 -269 431 -269 q 315 -244 339 -269 q 290 -174 290 -219 q 317 -100 290 -128 q 392 -72 344 -72 z "},"Ủ":{"ha":886,"x_min":86,"x_max":804,"o":"m 796 322 q 703 75 797 163 q 432 -12 608 -12 q 174 72 263 -12 q 89 315 85 157 l 90 444 l 86 894 l 275 894 l 265 340 q 443 142 264 142 q 622 331 624 142 l 613 894 l 804 894 l 797 440 l 796 322 m 433 1276 q 513 1249 481 1276 q 544 1178 544 1221 q 528 1125 544 1150 q 468 1063 511 1100 l 500 1008 l 432 969 l 374 1061 q 426 1113 407 1086 q 446 1160 446 1139 q 407 1190 446 1190 q 318 1156 361 1190 l 288 1206 q 433 1276 356 1276 z "},"ủ":{"ha":774,"x_min":83,"x_max":693,"o":"m 686 238 q 608 53 688 118 q 379 -11 528 -11 q 158 53 235 -11 q 86 238 82 118 l 88 347 l 83 701 l 258 701 l 250 263 q 386 131 249 131 q 524 263 525 131 l 517 701 l 693 701 l 688 344 l 686 238 m 375 1085 q 454 1057 422 1085 q 486 986 486 1029 q 469 933 486 958 q 410 871 453 908 l 442 817 l 374 778 l 315 869 q 368 921 349 894 q 388 968 388 947 q 349 999 388 999 q 260 964 303 999 l 229 1014 q 375 1085 297 1085 z "},"Ứ":{"ha":900,"x_min":86,"x_max":931,"o":"m 931 979 q 896 884 931 926 q 801 819 861 842 l 797 440 l 796 322 q 703 75 797 163 q 432 -12 608 -12 q 174 72 263 -12 q 88 315 85 157 l 90 444 l 86 894 l 275 894 l 265 340 q 443 142 264 142 q 621 331 622 142 l 613 894 l 701 894 q 788 963 788 894 q 743 1046 788 1007 l 747 1060 q 836 1096 796 1096 q 902 1062 874 1096 q 931 979 931 1028 m 653 1121 l 647 1104 q 349 996 519 1054 l 331 1001 l 300 1078 q 589 1235 468 1163 l 606 1231 l 653 1121 z "},"ứ":{"ha":786,"x_min":79,"x_max":801,"o":"m 682 238 q 603 53 683 118 q 375 -11 522 -11 q 154 53 231 -11 q 82 238 78 118 l 83 347 l 79 701 l 254 701 l 246 263 q 278 163 244 194 q 382 131 311 131 q 518 263 519 131 l 511 701 l 599 701 q 667 754 667 701 q 632 819 667 793 l 636 832 q 719 865 682 865 q 777 838 753 865 q 801 771 801 810 q 771 689 801 725 q 688 633 740 653 l 682 344 l 682 238 m 581 928 l 575 911 q 276 803 447 861 l 258 808 l 228 885 q 517 1042 396 969 l 533 1038 l 581 928 z "},"Ừ":{"ha":900,"x_min":86,"x_max":931,"o":"m 578 997 q 279 1106 407 1056 l 274 1122 l 321 1232 l 338 1236 q 626 1079 458 1164 l 596 1003 l 578 997 m 931 979 q 896 884 931 926 q 801 819 861 842 l 797 440 l 796 322 q 703 75 797 163 q 432 -12 608 -12 q 174 72 263 -12 q 88 315 85 157 l 90 444 l 86 894 l 275 894 l 265 340 q 443 142 264 142 q 621 331 622 142 l 613 894 l 701 894 q 788 963 788 894 q 743 1046 788 1007 l 747 1060 q 836 1096 796 1096 q 902 1062 874 1096 q 931 979 931 1028 z "},"ừ":{"ha":786,"x_min":79,"x_max":801,"o":"m 506 804 q 207 913 335 863 l 201 929 l 249 1039 l 265 1043 q 554 886 386 971 l 524 810 l 506 804 m 682 238 q 603 53 683 118 q 375 -11 522 -11 q 154 53 231 -11 q 82 238 78 118 l 83 347 l 79 701 l 254 701 l 246 263 q 278 163 244 194 q 382 131 311 131 q 518 263 519 131 l 511 701 l 599 701 q 667 754 667 701 q 632 819 667 793 l 636 832 q 719 865 682 865 q 777 838 753 865 q 801 771 801 810 q 771 689 801 725 q 688 633 740 653 l 682 344 l 682 238 z "},"Ử":{"ha":900,"x_min":86,"x_max":931,"o":"m 931 979 q 896 884 931 926 q 801 819 861 842 l 797 440 l 796 322 q 703 75 797 163 q 432 -12 608 -12 q 174 72 263 -12 q 88 315 85 157 l 90 444 l 86 894 l 275 894 l 265 340 q 443 142 264 142 q 621 331 622 142 l 613 894 l 701 894 q 788 963 788 894 q 743 1046 788 1007 l 747 1060 q 836 1096 796 1096 q 902 1062 874 1096 q 931 979 931 1028 m 433 1278 q 513 1250 481 1278 q 544 1179 544 1222 q 528 1126 544 1151 q 468 1064 511 1101 l 500 1010 l 432 971 l 374 1063 q 426 1114 407 1088 q 446 1161 446 1140 q 407 1192 446 1192 q 318 1157 361 1192 l 288 1207 q 433 1278 356 1278 z "},"ử":{"ha":786,"x_min":79,"x_max":801,"o":"m 682 238 q 603 53 683 118 q 375 -11 522 -11 q 154 53 231 -11 q 82 238 78 118 l 83 347 l 79 701 l 254 701 l 246 263 q 278 163 244 194 q 382 131 311 131 q 518 263 519 131 l 511 701 l 599 701 q 667 754 667 701 q 632 819 667 793 l 636 832 q 719 865 682 865 q 777 838 753 865 q 801 771 801 810 q 771 689 801 725 q 688 633 740 653 l 682 344 l 682 238 m 361 1085 q 440 1057 408 1085 q 472 986 472 1029 q 456 933 472 958 q 396 871 439 908 l 428 817 l 360 778 l 301 869 q 354 921 335 894 q 374 968 374 947 q 335 999 374 999 q 246 964 289 999 l 215 1014 q 361 1085 283 1085 z "},"Ữ":{"ha":900,"x_min":86,"x_max":931,"o":"m 931 979 q 896 884 931 926 q 801 819 861 842 l 797 440 l 796 322 q 703 75 797 163 q 432 -12 608 -12 q 174 72 263 -12 q 88 315 85 157 l 90 444 l 86 894 l 275 894 l 265 340 q 443 142 264 142 q 621 331 622 142 l 613 894 l 701 894 q 788 963 788 894 q 743 1046 788 1007 l 747 1060 q 836 1096 796 1096 q 902 1062 874 1096 q 931 979 931 1028 m 688 1153 l 590 1029 l 572 1022 q 457 1049 535 1026 q 358 1071 374 1071 q 328 1058 343 1071 q 297 1028 314 1046 q 272 1000 281 1010 l 256 1000 l 200 1054 l 200 1069 l 299 1193 l 315 1200 q 433 1172 349 1196 q 529 1151 511 1151 q 562 1165 546 1151 q 594 1197 578 1179 q 617 1222 611 1215 l 633 1222 l 688 1168 l 688 1153 z "},"ữ":{"ha":786,"x_min":79,"x_max":801,"o":"m 682 238 q 603 53 683 118 q 375 -11 522 -11 q 154 53 231 -11 q 82 238 78 118 l 83 347 l 79 701 l 254 701 l 246 263 q 278 163 244 194 q 382 131 311 131 q 518 263 519 131 l 511 701 l 599 701 q 667 754 667 701 q 632 819 667 793 l 636 832 q 719 865 682 865 q 777 838 753 865 q 801 771 801 810 q 771 689 801 725 q 688 633 740 653 l 682 344 l 682 238 m 615 960 l 518 836 l 500 829 q 385 856 463 833 q 286 878 301 878 q 256 865 271 878 q 225 835 242 853 q 200 807 208 817 l 183 807 l 128 861 l 128 876 l 226 1000 l 243 1007 q 361 979 276 1003 q 457 958 439 958 q 490 972 474 958 q 522 1004 506 986 q 544 1029 539 1022 l 561 1029 l 615 975 l 615 960 z "},"Ự":{"ha":900,"x_min":86,"x_max":931,"o":"m 931 979 q 896 884 931 926 q 801 819 861 842 l 797 440 l 796 322 q 703 75 797 163 q 432 -12 608 -12 q 174 72 263 -12 q 88 315 85 157 l 90 444 l 86 894 l 275 894 l 265 340 q 443 142 264 142 q 621 331 622 142 l 613 894 l 701 894 q 788 963 788 894 q 743 1046 788 1007 l 747 1060 q 836 1096 796 1096 q 902 1062 874 1096 q 931 979 931 1028 m 447 -72 q 515 -97 490 -72 q 539 -167 539 -122 q 513 -242 539 -214 q 440 -269 486 -269 q 370 -244 394 -269 q 346 -174 346 -219 q 373 -100 346 -128 q 447 -72 400 -72 z "},"ự":{"ha":786,"x_min":79,"x_max":801,"o":"m 682 238 q 603 53 683 118 q 375 -11 522 -11 q 154 53 231 -11 q 82 238 78 118 l 83 347 l 79 701 l 254 701 l 246 263 q 278 163 244 194 q 382 131 311 131 q 518 263 519 131 l 511 701 l 599 701 q 667 754 667 701 q 632 819 667 793 l 636 832 q 719 865 682 865 q 777 838 753 865 q 801 771 801 810 q 771 689 801 725 q 688 633 740 653 l 682 344 l 682 238 m 393 -72 q 460 -97 436 -72 q 485 -167 485 -122 q 458 -242 485 -214 q 386 -269 432 -269 q 316 -244 340 -269 q 292 -174 292 -219 q 319 -100 292 -128 q 393 -72 346 -72 z "},"Ỳ":{"ha":775,"x_min":6,"x_max":778,"o":"m 514 997 q 215 1106 343 1056 l 210 1122 l 257 1232 l 274 1236 q 563 1079 394 1164 l 532 1003 l 514 997 m 471 0 l 282 0 l 293 249 l 292 299 l 6 894 l 204 894 l 225 832 l 376 492 l 389 492 l 558 826 l 583 894 l 778 894 l 465 304 l 463 249 l 471 0 z "},"ỳ":{"ha":690,"x_min":17,"x_max":679,"o":"m 458 778 q 233 914 407 807 q 188 942 218 922 l 185 960 l 251 1060 l 269 1061 q 521 849 360 978 l 476 779 l 458 778 m 422 0 l 247 0 l 256 190 l 254 224 l 17 701 l 201 701 l 218 650 l 335 404 l 346 404 l 475 643 l 499 701 l 679 701 l 415 228 l 414 190 l 422 0 z "},"Ỵ":{"ha":775,"x_min":6,"x_max":778,"o":"m 6 894 l 204 894 l 225 832 l 376 492 l 389 492 l 558 826 l 583 894 l 778 894 l 465 304 l 463 249 l 471 0 l 282 0 l 293 249 l 292 299 l 6 894 m 381 -72 q 448 -97 424 -72 q 472 -167 472 -122 q 446 -242 472 -214 q 374 -269 419 -269 q 303 -244 328 -269 q 279 -174 279 -219 q 306 -100 279 -128 q 381 -72 333 -72 z "},"ỵ":{"ha":690,"x_min":17,"x_max":679,"o":"m 17 701 l 201 701 l 218 650 l 335 404 l 346 404 l 475 643 l 499 701 l 679 701 l 415 228 l 414 190 l 422 0 l 247 0 l 256 190 l 254 224 l 17 701 m 339 -72 q 406 -97 382 -72 q 431 -167 431 -122 q 404 -242 431 -214 q 332 -269 378 -269 q 262 -244 286 -269 q 238 -174 238 -219 q 265 -100 238 -128 q 339 -72 292 -72 z "},"Ỷ":{"ha":775,"x_min":6,"x_max":779,"o":"m 471 0 l 282 0 l 293 249 l 290 301 l 6 894 l 206 894 l 225 832 l 376 492 l 390 492 l 558 826 l 585 894 l 779 894 l 465 304 l 463 249 l 471 0 m 371 1276 q 450 1249 418 1276 q 482 1178 482 1221 q 465 1125 482 1150 q 406 1063 449 1100 l 438 1008 l 369 969 l 311 1061 q 364 1113 344 1086 q 383 1160 383 1139 q 344 1190 383 1190 q 256 1156 299 1190 l 225 1206 q 371 1276 293 1276 z "},"ỷ":{"ha":690,"x_min":17,"x_max":679,"o":"m 422 0 l 247 0 l 256 190 l 254 222 l 17 701 l 201 701 l 218 650 l 335 404 l 346 404 l 476 643 l 499 701 l 679 701 l 417 229 l 415 190 l 422 0 m 340 1085 q 419 1057 388 1085 q 451 986 451 1029 q 435 933 451 958 q 375 871 418 908 l 407 817 l 339 778 l 281 869 q 333 921 314 894 q 353 968 353 947 q 314 999 353 999 q 225 964 268 999 l 194 1014 q 340 1085 263 1085 z "},"Ỹ":{"ha":775,"x_min":6,"x_max":779,"o":"m 471 0 l 282 0 l 293 249 l 290 301 l 6 894 l 206 894 l 225 832 l 376 492 l 390 492 l 558 826 l 585 894 l 779 894 l 465 304 l 463 249 l 471 0 m 626 1153 l 529 1029 l 511 1022 q 396 1049 474 1026 q 297 1071 313 1071 q 267 1058 282 1071 q 236 1028 253 1046 q 211 1000 219 1010 l 194 1000 l 139 1054 l 139 1069 l 238 1193 l 254 1200 q 372 1172 288 1196 q 468 1151 450 1151 q 501 1165 485 1151 q 533 1197 517 1179 q 556 1222 550 1215 l 572 1222 l 626 1168 l 626 1153 z "},"ỹ":{"ha":690,"x_min":17,"x_max":679,"o":"m 422 0 l 247 0 l 256 190 l 254 222 l 17 701 l 201 701 l 218 650 l 335 404 l 346 404 l 476 643 l 499 701 l 679 701 l 417 229 l 415 190 l 422 0 m 594 960 l 497 836 l 479 829 q 364 856 442 833 q 265 878 281 878 q 235 865 250 878 q 204 835 221 853 q 179 807 188 817 l 163 807 l 107 861 l 107 876 l 206 1000 l 222 1007 q 340 979 256 1003 q 436 958 418 958 q 469 972 453 958 q 501 1004 485 986 q 524 1029 518 1022 l 540 1029 l 594 975 l 594 960 z "},"–":{"ha":647,"x_min":-21,"x_max":668,"o":"m 660 296 l -8 296 l -21 308 l -11 421 l 656 421 l 668 407 l 660 296 z "},"—":{"ha":1235,"x_min":-24,"x_max":1258,"o":"m 1250 296 l -12 296 l -24 308 l -15 421 l 1246 421 l 1258 407 l 1250 296 z "},"‘":{"ha":288,"x_min":46,"x_max":240,"o":"m 125 543 q 46 674 46 586 q 174 901 46 779 l 238 860 l 240 846 q 185 728 185 785 q 240 629 185 663 l 240 614 q 125 543 182 569 z "},"’":{"ha":288,"x_min":49,"x_max":243,"o":"m 164 903 q 243 772 243 860 q 115 544 243 667 l 51 586 l 49 600 q 104 718 104 661 q 49 817 104 783 l 49 832 q 164 903 107 876 z "},"‚":{"ha":318,"x_min":26,"x_max":256,"o":"m 193 183 q 256 64 256 133 q 88 -176 256 -57 l 28 -124 l 26 -110 q 103 26 103 -46 q 58 110 103 74 l 60 125 q 193 183 124 164 z "},"“":{"ha":510,"x_min":42,"x_max":467,"o":"m 351 544 q 272 675 272 588 q 400 903 272 781 l 464 861 l 467 847 q 411 729 411 786 q 467 631 411 664 l 467 615 q 351 544 408 571 m 121 544 q 42 675 42 588 q 169 903 42 781 l 233 861 l 236 847 q 181 729 181 786 q 236 631 181 664 l 236 615 q 121 544 178 571 z "},"”":{"ha":507,"x_min":47,"x_max":461,"o":"m 382 903 q 461 772 461 860 q 333 544 461 667 l 269 586 l 267 600 q 322 718 322 661 q 267 817 322 783 l 267 832 q 382 903 325 876 m 163 903 q 242 772 242 860 q 114 544 242 667 l 50 586 l 47 600 q 103 718 103 661 q 47 817 103 783 l 47 832 q 163 903 106 876 z "},"„":{"ha":547,"x_min":26,"x_max":483,"o":"m 421 183 q 483 64 483 133 q 315 -176 483 -57 l 256 -124 l 254 -110 q 331 26 331 -46 q 286 110 331 74 l 288 125 q 421 183 351 164 m 193 183 q 256 64 256 133 q 88 -176 256 -57 l 28 -124 l 26 -110 q 103 26 103 -46 q 58 110 103 74 l 60 125 q 193 183 124 164 z "},"†":{"ha":697,"x_min":56,"x_max":643,"o":"m 408 449 l 408 401 l 408 -122 l 294 -131 l 282 -117 l 282 390 l 282 449 l 67 449 l 56 461 l 65 572 l 282 572 l 283 813 l 400 821 l 411 811 l 410 572 l 629 572 l 643 560 l 633 449 l 408 449 z "},"‡":{"ha":697,"x_min":56,"x_max":643,"o":"m 643 206 l 633 96 l 408 96 l 408 -122 l 294 -131 l 282 -117 l 282 96 l 67 96 l 56 108 l 65 219 l 282 219 l 282 390 l 282 464 l 67 464 l 56 476 l 65 588 l 282 588 l 283 813 l 400 821 l 411 811 l 410 588 l 629 588 l 643 575 l 633 464 l 408 464 l 408 401 l 408 219 l 629 219 l 643 206 z "},"•":{"ha":385,"x_min":69,"x_max":311,"o":"m 196 518 q 280 486 250 518 q 310 400 310 455 q 277 307 310 342 q 188 273 245 273 q 101 304 131 273 q 70 392 70 335 q 104 483 70 449 q 196 518 138 518 z "},"․":{"ha":318,"x_min":61,"x_max":254,"o":"m 163 188 q 230 163 206 188 q 254 93 254 138 q 228 18 254 46 q 156 -10 201 -10 q 85 15 110 -10 q 61 86 61 40 q 88 160 61 132 q 163 188 115 188 z "},"‥":{"ha":597,"x_min":56,"x_max":526,"o":"m 435 188 q 502 163 478 188 q 526 93 526 138 q 500 18 526 46 q 428 -10 474 -10 q 358 15 382 -10 q 333 86 333 40 q 360 160 333 132 q 435 188 388 188 m 157 188 q 224 163 200 188 q 249 93 249 138 q 222 18 249 46 q 150 -10 196 -10 q 80 15 104 -10 q 56 86 56 40 q 83 160 56 132 q 157 188 110 188 z "},"…":{"ha":876,"x_min":56,"x_max":806,"o":"m 435 188 q 502 163 478 188 q 526 93 526 138 q 500 18 526 46 q 428 -10 474 -10 q 358 15 382 -10 q 333 86 333 40 q 360 160 333 132 q 435 188 388 188 m 714 188 q 781 163 757 188 q 806 93 806 138 q 779 18 806 46 q 707 -10 753 -10 q 637 15 661 -10 q 613 86 613 40 q 640 160 613 132 q 714 188 667 188 m 157 188 q 224 163 200 188 q 249 93 249 138 q 222 18 249 46 q 150 -10 196 -10 q 80 15 104 -10 q 56 86 56 40 q 83 160 56 132 q 157 188 110 188 z "},"‰":{"ha":1707,"x_min":43,"x_max":1663,"o":"m 936 881 l 289 -128 l 210 -81 l 201 -61 l 850 953 l 925 907 l 936 881 m 271 903 q 424 840 371 903 q 476 660 476 776 q 419 465 476 532 q 251 397 361 397 q 97 460 150 397 q 43 640 43 522 q 102 835 43 768 q 271 903 161 903 m 258 781 q 183 749 207 781 q 160 650 160 718 q 260 510 160 510 q 361 643 361 510 q 336 747 361 714 q 258 781 311 781 m 936 497 q 1089 434 1036 497 q 1142 254 1142 371 q 1084 59 1142 126 q 917 -8 1026 -8 q 762 54 815 -8 q 708 235 708 117 q 767 430 708 363 q 936 497 826 497 m 1457 497 q 1609 434 1556 497 q 1663 254 1663 371 q 1605 59 1663 126 q 1438 -8 1547 -8 q 1283 54 1336 -8 q 1229 235 1229 117 q 1288 430 1229 363 q 1457 497 1347 497 m 924 375 q 849 344 872 375 q 825 244 825 313 q 925 104 825 104 q 1026 238 1026 104 q 1001 342 1026 308 q 924 375 976 375 m 1444 375 q 1369 344 1393 375 q 1346 244 1346 313 q 1446 104 1346 104 q 1547 238 1547 104 q 1522 342 1547 308 q 1444 375 1497 375 z "},"′":{"ha":285,"x_min":76,"x_max":229,"o":"m 181 574 l 94 561 l 79 574 l 76 882 l 219 892 l 229 879 l 181 574 z "},"″":{"ha":497,"x_min":76,"x_max":442,"o":"m 393 574 l 307 561 l 292 574 l 289 882 l 432 892 l 442 879 l 393 574 m 181 574 l 94 561 l 79 574 l 76 882 l 219 892 l 229 879 l 181 574 z "},"‹":{"ha":339,"x_min":31,"x_max":310,"o":"m 31 328 l 219 575 l 307 529 l 310 511 l 165 315 l 310 121 l 307 103 l 219 56 l 31 297 l 31 328 z "},"›":{"ha":342,"x_min":35,"x_max":314,"o":"m 314 307 l 125 60 l 38 106 l 35 124 l 179 319 l 35 514 l 38 532 l 125 579 l 314 338 l 314 307 z "},"⁄":{"ha":144,"x_min":-319,"x_max":415,"o":"m 415 881 l -232 -128 l -311 -81 l -319 -61 l 331 953 l 406 907 l 415 881 z "},"⁰":{"ha":521,"x_min":43,"x_max":476,"o":"m 271 982 q 424 913 371 982 q 476 717 476 844 q 419 504 476 578 q 251 431 361 431 q 97 499 150 431 q 43 696 43 568 q 102 908 43 835 q 271 982 161 982 m 258 849 q 183 815 207 849 q 160 707 160 781 q 184 590 160 628 q 260 553 208 553 q 361 699 361 553 q 336 813 361 776 q 258 849 311 849 z "},"⁴":{"ha":510,"x_min":28,"x_max":472,"o":"m 392 557 l 399 447 l 390 438 l 275 432 l 267 439 l 269 558 l 129 558 l 38 554 l 28 567 l 28 657 l 257 974 l 393 974 l 389 667 l 464 667 l 472 654 l 465 554 l 392 557 m 272 667 l 271 817 l 263 817 l 156 667 l 272 667 z "},"⁵":{"ha":444,"x_min":29,"x_max":400,"o":"m 386 863 l 376 853 l 286 863 l 186 863 l 185 781 l 243 767 q 360 714 322 750 q 397 618 397 678 q 329 481 397 532 q 150 429 261 429 q 38 440 93 429 l 29 540 l 39 551 q 150 536 93 536 q 227 554 200 536 q 254 604 254 572 q 236 644 254 629 q 176 667 218 658 l 79 683 l 71 694 l 72 958 l 88 975 l 144 974 l 292 974 l 392 978 l 400 969 l 386 863 z "},"⁶":{"ha":486,"x_min":38,"x_max":449,"o":"m 288 772 q 406 726 364 772 q 449 613 449 679 q 395 482 449 535 q 242 429 342 429 q 92 484 146 429 q 38 635 38 539 q 109 834 38 744 q 311 982 181 924 l 319 982 l 413 919 l 413 906 q 271 838 321 871 q 197 760 221 804 l 204 751 q 288 772 246 772 m 244 519 q 315 599 315 519 q 244 674 315 674 q 172 656 211 674 l 172 638 q 188 549 172 578 q 244 519 204 519 z "},"⁷":{"ha":432,"x_min":22,"x_max":399,"o":"m 350 974 l 399 975 l 399 871 l 258 575 l 200 428 l 81 458 l 72 481 l 254 856 l 124 856 l 31 847 l 22 860 l 33 976 l 149 974 l 350 974 z "},"⁸":{"ha":500,"x_min":49,"x_max":447,"o":"m 263 981 q 388 944 343 981 q 433 847 433 908 q 350 725 433 774 l 350 718 q 422 667 396 696 q 447 592 447 639 q 390 472 447 515 q 236 429 333 429 q 98 467 147 429 q 49 567 49 504 q 154 693 49 653 l 154 699 q 64 826 64 744 q 119 939 64 897 q 263 981 174 981 m 253 885 q 188 831 188 885 q 207 788 188 804 q 265 756 226 772 q 317 831 317 790 q 299 870 317 856 q 253 885 282 885 m 238 657 q 171 586 171 636 q 191 540 171 557 q 249 522 211 522 q 307 539 286 522 q 328 581 328 556 q 306 624 328 608 q 238 657 283 640 z "},"⁹":{"ha":488,"x_min":39,"x_max":451,"o":"m 247 983 q 397 928 343 983 q 451 774 451 872 q 379 576 451 665 q 176 429 307 486 l 168 429 l 76 490 l 76 504 q 217 572 167 538 q 292 650 268 606 l 285 658 q 200 639 246 639 q 83 685 126 639 q 39 799 39 732 q 93 929 39 875 q 247 983 147 983 m 244 738 q 317 757 282 738 l 317 772 q 301 863 317 833 q 244 892 285 892 q 172 813 172 892 q 244 738 172 738 z "},"₣":{"ha":564,"x_min":21,"x_max":572,"o":"m 257 406 l 368 406 l 501 408 l 510 396 l 500 285 l 356 288 l 256 288 l 254 222 l 256 193 l 410 193 l 417 183 l 411 119 l 257 119 l 261 0 l 106 0 l 110 119 l 26 119 l 21 128 l 25 193 l 113 193 l 113 208 l 106 699 l 563 699 l 572 686 l 561 575 l 378 581 l 261 581 l 257 406 z "},"€":{"ha":649,"x_min":8,"x_max":628,"o":"m 8 386 l 14 468 l 113 468 q 229 648 143 585 q 447 711 315 711 q 628 674 539 711 l 599 536 l 585 529 q 440 569 519 569 q 294 468 325 569 l 492 468 l 500 460 l 493 375 l 14 375 l 8 386 m 444 131 q 597 167 525 131 l 613 158 l 599 22 q 435 -10 525 -10 q 110 224 158 -10 l 14 224 l 8 233 l 14 317 l 492 317 l 500 307 l 493 224 l 299 224 q 444 131 336 131 z "},"ℓ":{"ha":539,"x_min":96,"x_max":519,"o":"m 508 0 l 96 0 l 104 208 l 96 701 l 274 701 l 264 225 l 267 143 l 510 143 l 519 131 l 508 0 z "},"™":{"ha":819,"x_min":33,"x_max":751,"o":"m 304 885 l 300 818 l 231 821 l 214 821 l 211 668 l 215 563 l 124 563 l 128 660 l 126 821 l 110 821 l 39 818 l 33 825 l 39 892 l 300 892 l 304 885 m 669 563 l 665 661 l 656 756 l 650 756 l 582 593 l 510 593 l 450 756 l 444 756 l 435 671 l 428 563 l 349 563 l 385 892 l 493 892 l 506 844 l 549 715 l 554 715 l 601 842 l 615 892 l 722 892 l 751 563 l 669 563 z "}}}
